<svg width="1440" height="1347" viewBox="0 0 1440 1347" fill="none" xmlns="http://www.w3.org/2000/svg">
<ellipse cx="720" cy="1291.25" rx="1927" ry="1291.25" fill="url(#paint0_linear_33_1486)"/>
<mask id="mask0_33_1486" style="mask-type:alpha" maskUnits="userSpaceOnUse" x="-1207" y="0" width="3854" height="2583">
<ellipse cx="720" cy="1291.25" rx="1927" ry="1291.25" fill="url(#paint1_linear_33_1486)"/>
</mask>
<g mask="url(#mask0_33_1486)">
<g filter="url(#filter0_d_33_1486)">
<ellipse cx="125.621" cy="357.613" rx="39.7413" ry="26.0427" fill="#568419"/>
<ellipse cx="107.367" cy="530.084" rx="20.5558" ry="10.9653" fill="#568419"/>
<ellipse cx="209.423" cy="431.138" rx="104.15" ry="68.5333" fill="#568419"/>
<ellipse cx="300.592" cy="484.852" rx="65.7787" ry="34.2667" fill="#568419"/>
</g>
<g filter="url(#filter1_d_33_1486)">
<ellipse cx="39.7413" cy="26.0427" rx="39.7413" ry="26.0427" transform="matrix(-1 0 0 1 1486.36 -4.74146)" fill="#568419"/>
<ellipse cx="104.15" cy="68.5333" rx="104.15" ry="68.5333" transform="matrix(-1 0 0 1 1466.97 26.2927)" fill="#568419"/>
<ellipse cx="65.7787" cy="34.2667" rx="65.7787" ry="34.2667" transform="matrix(-1 0 0 1 1337.43 114.274)" fill="#568419"/>
</g>
<g filter="url(#filter2_d_33_1486)">
</g>
<g filter="url(#filter3_dd_33_1486)">
<ellipse cx="212.378" cy="822.621" rx="27.1492" ry="17.4566" fill="#427027"/>
<ellipse cx="179.54" cy="789.199" rx="13.7039" ry="7.31022" fill="#427027"/>
<ellipse cx="272.038" cy="849.664" rx="11.8767" ry="7.31022" fill="#427027"/>
<ellipse cx="159.511" cy="955.232" rx="11.8767" ry="7.31022" fill="#427027"/>
<ellipse cx="329.524" cy="889.595" rx="7.30874" ry="4.56889" fill="#427027"/>
<ellipse cx="290.738" cy="870.198" rx="7.30874" ry="4.56889" fill="#427027"/>
<ellipse cx="204.275" cy="896.75" rx="69.4331" ry="45.6889" fill="#427027"/>
<ellipse cx="153.785" cy="928.87" rx="38.3709" ry="22.8444" fill="#427027"/>
<ellipse cx="257.264" cy="932.387" rx="43.8525" ry="22.8444" fill="#427027"/>
</g>
<ellipse cx="329.196" cy="754.761" rx="21.9262" ry="17.8187" fill="#39691E"/>
<ellipse cx="255.195" cy="874.923" rx="13.7039" ry="7.31022" fill="#39691E"/>
<ellipse cx="428.778" cy="779.89" rx="11.8767" ry="7.31022" fill="#39691E"/>
<ellipse cx="286.257" cy="867.613" rx="11.8767" ry="7.31022" fill="#39691E"/>
<ellipse cx="444.308" cy="791.769" rx="7.30874" ry="4.56889" fill="#39691E"/>
<ellipse cx="331.022" cy="809.131" rx="69.4331" ry="45.6889" fill="#39691E"/>
<ellipse cx="268.901" cy="815.527" rx="38.3709" ry="22.8444" fill="#39691E"/>
<ellipse cx="384.013" cy="844.768" rx="43.8525" ry="22.8444" fill="#39691E"/>
<g filter="url(#filter4_d_33_1486)">
<ellipse cx="694.296" cy="-11.2092" rx="21.5457" ry="11.4934" fill="#568419"/>
</g>
<g filter="url(#filter5_d_33_1486)">
<ellipse cx="286.58" cy="11.3167" rx="41.6551" ry="27.2968" fill="#568419"/>
<ellipse cx="267.447" cy="192.094" rx="21.5457" ry="11.4934" fill="#568419"/>
<ellipse cx="374.415" cy="88.3823" rx="109.165" ry="71.8337" fill="#568419"/>
<ellipse cx="469.977" cy="144.683" rx="68.9464" ry="35.9168" fill="#568419"/>
</g>
<g filter="url(#filter6_d_33_1486)">
<ellipse cx="41.6551" cy="27.2968" rx="41.6551" ry="27.2968" transform="matrix(-0.999983 -0.00583161 -0.00582926 0.999983 918.639 135.754)" fill="#568419"/>
<ellipse cx="21.5457" cy="11.4934" rx="21.5457" ry="11.4934" transform="matrix(-0.999983 -0.00583161 -0.00582926 0.999983 989.334 328.684)" fill="#568419"/>
<ellipse cx="109.165" cy="71.8337" rx="109.165" ry="71.8337" transform="matrix(-0.999983 -0.00583161 -0.00582926 0.999983 958.689 164.722)" fill="#568419"/>
<ellipse cx="60.3281" cy="35.9168" rx="60.3281" ry="35.9168" transform="matrix(-0.999983 -0.00583161 -0.00582926 0.999983 1007.26 210.98)" fill="#568419"/>
<ellipse cx="68.9464" cy="35.9168" rx="68.9464" ry="35.9168" transform="matrix(-0.999983 -0.00583161 -0.00582926 0.999983 834.627 255.947)" fill="#568419"/>
</g>
<g filter="url(#filter7_d_33_1486)">
<ellipse cx="32.5219" cy="26.4293" rx="32.5219" ry="26.4293" transform="matrix(0.997002 -0.0773775 0.0773465 0.997004 604.317 656.335)" fill="#568419"/>
<ellipse cx="21.5458" cy="11.4934" rx="21.5458" ry="11.4934" transform="matrix(0.997002 -0.0773775 0.0773465 0.997004 544.115 866.336)" fill="#568419"/>
<ellipse cx="109.165" cy="71.8336" rx="109.165" ry="71.8336" transform="matrix(0.997002 -0.0773775 0.0773465 0.997004 562.954 700.6)" fill="#568419"/>
<ellipse cx="60.3282" cy="35.9168" rx="60.3282" ry="35.9168" transform="matrix(0.997002 -0.0773775 0.0773465 0.997004 486.812 718.473)" fill="#568419"/>
<ellipse cx="68.9465" cy="35.9168" rx="68.9465" ry="35.9168" transform="matrix(0.997002 -0.0773775 0.0773465 0.997004 693.223 782.714)" fill="#568419"/>
</g>
<g filter="url(#filter8_d_33_1486)">
<ellipse cx="452.74" cy="12.5093" rx="22.9821" ry="18.6768" fill="#427027"/>
<ellipse cx="375.175" cy="138.458" rx="14.3638" ry="7.66226" fill="#427027"/>
<ellipse cx="596.567" cy="28.7467" rx="22.3588" ry="16.2642" fill="#427027"/>
<ellipse cx="407.733" cy="130.795" rx="12.4487" ry="7.66226" fill="#427027"/>
<ellipse cx="562.013" cy="53.1433" rx="12.1957" ry="8.13211" fill="#427027"/>
<ellipse cx="478.676" cy="45.0112" rx="42.685" ry="24.3963" fill="#427027"/>
<ellipse cx="389.54" cy="76.2026" rx="40.2187" ry="23.9445" fill="#427027"/>
<ellipse cx="518.541" cy="113.682" rx="45.9643" ry="23.9445" fill="#427027"/>
</g>
<g filter="url(#filter9_d_33_1486)">
<ellipse cx="22.9821" cy="18.6768" rx="22.9821" ry="18.6768" transform="matrix(-1 0 0 1 945.047 97.8699)" fill="#427027"/>
<ellipse cx="14.3638" cy="7.66226" rx="14.3638" ry="7.66226" transform="matrix(-1 0 0 1 1013.99 234.833)" fill="#427027"/>
<ellipse cx="12.4487" cy="7.66226" rx="12.4487" ry="7.66226" transform="matrix(-1 0 0 1 830.138 135.223)" fill="#427027"/>
<ellipse cx="12.4487" cy="7.66226" rx="12.4487" ry="7.66226" transform="matrix(-1 0 0 1 979.52 227.171)" fill="#427027"/>
<ellipse cx="7.66071" cy="4.78891" rx="7.66071" ry="4.78891" transform="matrix(-1 0 0 1 809.07 150.548)" fill="#427027"/>
<ellipse cx="73.1742" cy="60.9908" rx="73.1742" ry="60.9908" transform="matrix(-1 0 0 1 992.946 126.332)" fill="#427027"/>
<ellipse cx="40.2187" cy="23.9445" rx="40.2187" ry="23.9445" transform="matrix(-1 0 0 1 1025.48 156.294)" fill="#427027"/>
<ellipse cx="45.9643" cy="23.9445" rx="45.9643" ry="23.9445" transform="matrix(-1 0 0 1 910.574 186.944)" fill="#427027"/>
</g>
<g filter="url(#filter10_d_33_1486)">
<ellipse cx="22.9827" cy="18.6763" rx="22.9827" ry="18.6763" transform="matrix(0.939669 -0.342086 0.341964 0.939713 678.256 723.167)" fill="#427027"/>
<ellipse cx="14.3642" cy="7.66208" rx="14.3642" ry="7.66208" transform="matrix(0.939669 -0.342086 0.341964 0.939713 660.303 875.456)" fill="#427027"/>
<ellipse cx="12.4489" cy="7.66208" rx="12.4489" ry="7.66208" transform="matrix(0.939669 -0.342086 0.341964 0.939713 763.071 712.136)" fill="#427027"/>
<ellipse cx="12.4489" cy="7.66208" rx="12.4489" ry="7.66208" transform="matrix(0.939669 -0.342086 0.341964 0.939713 690.076 856.463)" fill="#427027"/>
<ellipse cx="7.66089" cy="4.7888" rx="7.66089" ry="4.7888" transform="matrix(0.939669 -0.342086 0.341964 0.939713 839.487 731.915)" fill="#427027"/>
<ellipse cx="7.66089" cy="4.7888" rx="7.66089" ry="4.7888" transform="matrix(0.939669 -0.342086 0.341964 0.939713 794.334 726.717)" fill="#427027"/>
<ellipse cx="72.7785" cy="47.888" rx="72.7785" ry="47.888" transform="matrix(0.939669 -0.342086 0.341964 0.939713 642.76 765.647)" fill="#427027"/>
<ellipse cx="40.2197" cy="23.944" rx="40.2197" ry="23.944" transform="matrix(0.939669 -0.342086 0.341964 0.939713 622.647 805.585)" fill="#427027"/>
<ellipse cx="45.9653" cy="23.944" rx="45.9653" ry="23.944" transform="matrix(0.939669 -0.342086 0.341964 0.939713 741.109 795.075)" fill="#427027"/>
</g>
<g filter="url(#filter11_dd_33_1486)">
<ellipse cx="1249.06" cy="433.32" rx="28.4566" ry="18.2973" fill="#427027"/>
<ellipse cx="1214.64" cy="398.288" rx="14.3638" ry="7.66226" fill="#427027"/>
<ellipse cx="1311.59" cy="461.665" rx="12.4487" ry="7.66226" fill="#427027"/>
<ellipse cx="1193.64" cy="572.316" rx="12.4487" ry="7.66226" fill="#427027"/>
<ellipse cx="1371.84" cy="503.518" rx="7.66071" ry="4.78891" fill="#427027"/>
<ellipse cx="1331.19" cy="483.188" rx="7.66071" ry="4.78891" fill="#427027"/>
<ellipse cx="1240.56" cy="511.018" rx="72.7768" ry="47.8891" fill="#427027"/>
<ellipse cx="1187.64" cy="544.685" rx="40.2187" ry="23.9445" fill="#427027"/>
<ellipse cx="1296.11" cy="548.371" rx="45.9643" ry="23.9445" fill="#427027"/>
</g>
<g filter="url(#filter12_dd_33_1486)">
<ellipse cx="14.3638" cy="7.66226" rx="14.3638" ry="7.66226" transform="matrix(-1 0 0 1 4.29346 219.383)" fill="#427027"/>
<ellipse cx="12.4487" cy="7.66226" rx="12.4487" ry="7.66226" transform="matrix(-1 0 0 1 23.3726 393.411)" fill="#427027"/>
<ellipse cx="72.7768" cy="47.8891" rx="72.7768" ry="47.8891" transform="matrix(-1 0 0 1 36.7783 291.886)" fill="#427027"/>
<ellipse cx="40.2187" cy="23.9445" rx="40.2187" ry="23.9445" transform="matrix(-1 0 0 1 57.1421 349.498)" fill="#427027"/>
</g>
<ellipse cx="1371.5" cy="362.191" rx="22.9821" ry="18.6768" fill="#39691E"/>
<ellipse cx="1293.94" cy="488.139" rx="14.3638" ry="7.66226" fill="#39691E"/>
<ellipse cx="1326.5" cy="480.477" rx="12.4487" ry="7.66226" fill="#39691E"/>
<ellipse cx="1373.41" cy="419.179" rx="72.7768" ry="47.8891" fill="#39691E"/>
<ellipse cx="1308.3" cy="425.883" rx="40.2187" ry="23.9445" fill="#39691E"/>
<ellipse cx="1428.96" cy="456.533" rx="45.9643" ry="23.9445" fill="#39691E"/>
<path d="M378.16 526.256C391.126 519.622 409.585 518.075 409.585 518.075C409.585 518.075 394.597 525.897 383.164 532.077C371.491 538.388 360.125 558.569 360.125 558.569C360.125 558.569 364.591 533.197 378.16 526.256Z" fill="#416D28"/>
<path d="M703.638 111.559C707.385 93.0574 726.903 73.4735 726.903 73.4735C726.903 73.4735 719.749 93.1433 714.723 114.581C710.188 133.922 708.36 166.749 708.36 166.749C708.36 166.749 699.108 133.921 703.638 111.559Z" fill="#416D28"/>
<path d="M1084.8 578.074C1089.09 563.542 1106.07 549.248 1106.07 549.248C1106.07 549.248 1098.98 564.476 1093.46 581.266C1088.48 596.415 1084.72 622.537 1084.72 622.537C1084.72 622.537 1079.62 595.639 1084.8 578.074Z" fill="#416D28"/>
<path d="M353.938 522.801C359.361 508.369 380.383 496.345 380.383 496.345C380.383 496.345 365.745 512.498 361.149 525.432C356.705 537.938 354.002 559.808 354.002 559.808C354.002 559.808 348.576 537.07 353.938 522.801Z" fill="#416D28"/>
<path d="M686.538 137.789C673.906 118.478 639.272 107.777 639.272 107.777C639.272 107.777 665.927 126.594 676.863 143.987C687.437 160.804 698.525 191.868 698.525 191.868C698.525 191.868 699.028 156.882 686.538 137.789Z" fill="#416D28"/>
<path d="M1069.29 597.851C1060.54 581.525 1033.6 570.544 1033.6 570.544C1033.6 570.544 1053.6 587.456 1061.12 602.13C1068.4 616.317 1075.1 641.934 1075.1 641.934C1075.1 641.934 1077.95 613.993 1069.29 597.851Z" fill="#416D28"/>
<path d="M326.494 537.211C319.035 530.126 307.736 526.924 307.736 526.924C307.736 526.924 316.404 534.465 322.93 540.891C329.24 547.105 337.233 559.447 337.233 559.447C337.233 559.447 333.868 544.215 326.494 537.211Z" fill="#416D28"/>
<path d="M735.161 145.25C745.888 135.552 762.893 136.599 762.893 136.599C762.893 136.599 749.909 139.991 740.533 148.797C731.467 157.312 720.21 176.208 720.21 176.208C720.21 176.208 724.555 154.838 735.161 145.25Z" fill="#416D28"/>
<path d="M1107.67 610.364C1112.15 599.651 1106.81 587.058 1106.81 587.058C1106.81 587.058 1107.71 597.793 1103.55 607.245C1099.53 616.384 1088.24 629.957 1088.24 629.957C1088.24 629.957 1103.25 620.956 1107.67 610.364Z" fill="#416D28"/>
<g filter="url(#filter13_d_33_1486)">
<path d="M1145.08 357.193C1145.82 354.918 1149.03 354.918 1149.77 357.193L1162.78 397.232H1204.87C1207.26 397.232 1208.26 400.292 1206.32 401.698L1172.27 426.444L1185.28 466.484C1186.02 468.759 1183.41 470.65 1181.48 469.244L1147.43 444.498L1113.37 469.244C1111.44 470.65 1108.84 468.759 1109.57 466.484L1122.58 426.444L1088.53 401.698C1086.59 400.292 1087.59 397.232 1089.98 397.232H1132.07L1145.08 357.193Z" fill="#EAE7E4"/>
<ellipse cx="1147.18" cy="418.371" rx="10.7986" ry="10.8008" fill="#EFBA35"/>
</g>
<g filter="url(#filter14_d_33_1486)">
<path d="M624.935 170.155C625.674 167.88 628.892 167.88 629.631 170.155L643.647 213.3H689.004C691.396 213.3 692.39 216.36 690.456 217.766L653.76 244.432L667.776 287.578C668.515 289.852 665.912 291.744 663.977 290.338L627.283 263.672L590.589 290.338C588.654 291.744 586.051 289.852 586.79 287.578L600.806 244.432L564.11 217.766C562.176 216.36 563.17 213.3 565.562 213.3H610.919L624.935 170.155Z" fill="#EAE7E4"/>
<ellipse cx="627.014" cy="235.828" rx="11.5082" ry="11.5106" fill="#EFBA35"/>
</g>
<g filter="url(#filter15_d_33_1486)">
<ellipse cx="377.942" cy="-6.35752" rx="7.93784" ry="7.93944" fill="#EFBA35"/>
</g>
<g filter="url(#filter16_d_33_1486)">
<path d="M1115.65 438.515C1116.39 436.24 1119.61 436.24 1120.35 438.515L1129.29 466.032H1158.21C1160.61 466.032 1161.6 469.092 1159.67 470.498L1136.26 487.505L1145.2 515.023C1145.94 517.298 1143.34 519.189 1141.4 517.783L1118 500.777L1094.6 517.783C1092.66 519.189 1090.06 517.298 1090.8 515.023L1099.74 487.505L1076.33 470.498C1074.4 469.092 1075.39 466.032 1077.78 466.032H1106.71L1115.65 438.515Z" fill="#EAE7E4"/>
<ellipse cx="1117.82" cy="481.57" rx="7.93784" ry="7.93944" fill="#EFBA35"/>
</g>
<g filter="url(#filter17_d_33_1486)">
<path d="M266.015 401.92C266.754 399.645 269.972 399.645 270.711 401.92L279.65 429.436H308.578C310.97 429.436 311.964 432.497 310.03 433.902L286.625 450.91L295.565 478.428C296.304 480.702 293.7 482.594 291.765 481.188L268.363 464.181L244.96 481.188C243.025 482.594 240.422 480.702 241.161 478.428L250.1 450.91L226.696 433.902C224.761 432.497 225.756 429.436 228.147 429.436H257.076L266.015 401.92Z" fill="#EAE7E4"/>
<ellipse cx="268.18" cy="444.975" rx="7.93784" ry="7.93944" fill="#EFBA35"/>
</g>
<g filter="url(#filter18_d_33_1486)">
<path d="M571.894 677.93C572.66 675.714 575.794 675.714 576.56 677.93L590.542 718.354H635.34C637.769 718.354 638.738 721.492 636.732 722.862L600.624 747.506L614.499 787.622C615.277 789.87 612.739 791.809 610.774 790.468L574.227 765.523L537.68 790.468C535.716 791.809 533.178 789.87 533.955 787.622L547.83 747.506L511.723 722.862C509.717 721.492 510.686 718.354 513.115 718.354H557.913L571.894 677.93Z" fill="#EAE7E4"/>
<ellipse cx="573.961" cy="739.449" rx="11.4735" ry="10.7786" fill="#EFBA35"/>
</g>
<g filter="url(#filter19_d_33_1486)">
<path d="M635.953 662.148C636.692 659.873 639.91 659.873 640.649 662.148L649.588 689.665H678.516C680.908 689.665 681.902 692.725 679.968 694.131L656.563 711.139L665.503 738.656C666.242 740.931 663.638 742.822 661.703 741.416L638.301 724.41L614.898 741.416C612.963 742.822 610.36 740.931 611.099 738.656L620.038 711.139L596.634 694.131C594.699 692.725 595.694 689.665 598.085 689.665H627.014L635.953 662.148Z" fill="#EAE7E4"/>
<ellipse cx="638.116" cy="705.204" rx="7.93784" ry="7.93944" fill="#EFBA35"/>
</g>
<g filter="url(#filter20_d_33_1486)">
<path d="M1478.86 149.471C1478.12 147.196 1474.9 147.196 1474.16 149.471L1465.22 176.988H1436.3C1433.9 176.988 1432.91 180.048 1434.84 181.454L1458.25 198.461L1449.31 225.979C1448.57 228.253 1451.17 230.145 1453.11 228.739L1476.51 211.732L1499.91 228.739C1501.85 230.145 1504.45 228.253 1503.71 225.979L1494.77 198.461L1518.18 181.454C1520.11 180.048 1519.12 176.988 1516.73 176.988H1487.8L1478.86 149.471Z" fill="#EAE7E4"/>
</g>
<g filter="url(#filter21_d_33_1486)">
<path d="M40.4387 137.141C38.1068 137.382 36.7847 134.541 38.4696 132.911L69.2095 103.172L50.3028 62.5514C49.2778 60.3493 51.7147 58.1458 53.8024 59.387L91.3774 81.7252L121.882 52.2135C123.591 50.5598 126.42 52.0418 126.034 54.3887L118.849 98.057L156.884 120.669C158.928 121.884 158.241 125.003 155.875 125.247L113.659 129.597L106.561 172.737C106.167 175.134 102.912 175.58 101.887 173.378L82.9804 132.758L40.4387 137.141Z" fill="#EAE7E4"/>
<ellipse cx="11.4754" cy="10.7768" rx="11.4754" ry="10.7768" transform="matrix(-0.421979 -0.906606 0.90654 -0.422119 90.4009 124.256)" fill="#EFBA35"/>
</g>
<g filter="url(#filter22_d_33_1486)">
<path d="M630.346 729.142C631.107 726.797 634.424 726.797 635.185 729.142L644.397 757.498H674.208C676.672 757.498 677.697 760.652 675.704 762.1L651.585 779.627L660.798 807.984C661.559 810.328 658.876 812.277 656.882 810.828L632.765 793.303L608.649 810.828C606.655 812.277 603.972 810.328 604.733 807.984L613.945 779.627L589.827 762.1C587.834 760.652 588.858 757.498 591.323 757.498H621.134L630.346 729.142Z" fill="#EAE7E4"/>
<ellipse cx="632.575" cy="773.511" rx="8.18004" ry="8.18169" fill="#EFBA35"/>
</g>
<g filter="url(#filter23_d_33_1486)">
<path d="M1484.47 216.464C1483.71 214.12 1480.39 214.12 1479.63 216.464L1470.42 244.82H1440.6C1438.14 244.82 1437.12 247.974 1439.11 249.423L1463.23 266.949L1454.01 295.307C1453.25 297.651 1455.94 299.6 1457.93 298.151L1482.05 280.625L1506.16 298.151C1508.16 299.6 1510.84 297.651 1510.08 295.307L1500.87 266.949L1524.99 249.423C1526.98 247.974 1525.95 244.82 1523.49 244.82H1493.68L1484.47 216.464Z" fill="#EAE7E4"/>
</g>
<g filter="url(#filter24_d_33_1486)">
<path d="M945.556 1013.57C946.346 1011.29 949.575 1011.29 950.365 1013.57L964.773 1055.23H1010.94C1013.44 1055.23 1014.44 1058.47 1012.37 1059.88L975.164 1085.27L989.462 1126.61C990.263 1128.93 987.647 1130.93 985.623 1129.55L947.961 1103.84L910.299 1129.55C908.274 1130.93 905.659 1128.93 906.46 1126.61L920.758 1085.27L883.549 1059.88C881.482 1058.47 882.481 1055.23 884.984 1055.23H931.149L945.556 1013.57Z" fill="#EAE7E4"/>
<ellipse cx="947.687" cy="1076.97" rx="11.8236" ry="11.1075" fill="#EFBA35"/>
</g>
<g filter="url(#filter25_d_33_1486)">
<path d="M1011.57 997.311C1012.33 994.966 1015.65 994.966 1016.41 997.311L1025.62 1025.67H1055.43C1057.9 1025.67 1058.92 1028.82 1056.93 1030.27L1032.81 1047.8L1042.02 1076.15C1042.78 1078.5 1040.1 1080.45 1038.11 1079L1013.99 1061.47L989.873 1079C987.88 1080.45 985.197 1078.5 985.958 1076.15L995.17 1047.8L971.052 1030.27C969.058 1028.82 970.083 1025.67 972.548 1025.67H1002.36L1011.57 997.311Z" fill="#EAE7E4"/>
<ellipse cx="1013.8" cy="1041.68" rx="8.18004" ry="8.18169" fill="#EFBA35"/>
</g>
</g>
<g filter="url(#filter26_d_33_1486)">
<path d="M288.094 274.689C277.95 295.169 251.374 302.68 228.734 291.467C206.094 280.253 195.964 254.56 206.108 234.081C216.251 213.601 223.022 198.628 245.662 209.841C268.302 221.055 240.868 239.818 288.094 274.689Z" fill="#FEF27A"/>
<path d="M356.079 332.207C337.563 345.603 334.558 373.057 349.368 393.526C364.178 413.995 391.193 419.728 409.709 406.332C428.226 392.935 441.87 383.777 427.061 363.308C412.251 342.839 398.292 373.003 356.079 332.207Z" fill="#C5263A"/>
<ellipse cx="376.731" cy="240.86" rx="94.7031" ry="76.244" transform="rotate(40.2318 376.731 240.86)" fill="#FFD13B"/>
<ellipse cx="304.535" cy="325.457" rx="83.0659" ry="75.2408" transform="rotate(40.2318 304.535 325.457)" fill="#FFD13B"/>
<circle cx="301.308" cy="330.01" r="28.4912" transform="rotate(40.2318 301.308 330.01)" fill="#F8931F"/>
<path d="M328.94 198.18C327.461 222.563 332.227 230.732 305.902 229.132C279.578 227.531 259.437 206.468 260.916 182.085C262.395 157.702 262.63 127.758 288.954 129.358C309.396 171.54 330.418 173.798 328.94 198.18Z" fill="#FFD13B"/>
<path d="M367.421 177.706C359.557 200.832 361.997 209.969 337.028 201.476C312.06 192.983 298.194 167.35 306.058 144.224C313.922 121.098 322.054 92.2788 347.023 100.772C355.603 146.852 375.285 154.579 367.421 177.706Z" fill="#FFD13B"/>
<path d="M411.369 175.753C398.469 196.495 398.775 205.947 376.38 192.017C353.984 178.087 346.287 149.98 359.187 129.238C372.088 108.496 386.539 82.2709 408.934 96.2007C406.85 143.024 424.269 155.011 411.369 175.753Z" fill="#FFD13B"/>
<path d="M445.427 207.507C425.243 221.264 421.702 230.033 406.847 208.241C391.991 186.449 396.311 157.631 416.495 143.873C436.679 130.116 460.498 111.971 475.354 133.763C454.522 175.746 465.611 193.75 445.427 207.507Z" fill="#FFD13B"/>
<path d="M426.342 281.387C402.542 286.886 393.696 283.539 399.635 309.234C405.575 334.929 429.684 351.302 453.485 345.804C477.286 340.306 506.777 335.114 500.838 309.418C455.853 296.248 450.143 275.889 426.342 281.387Z" fill="#FFD13B"/>
<path d="M440.159 240.046C418.655 251.632 409.239 250.74 421.752 273.956C434.265 297.173 461.84 306.6 483.344 295.014C504.848 283.427 531.921 270.632 519.408 247.416C472.544 246.588 461.662 228.459 440.159 240.046Z" fill="#FFD13B"/>
<path d="M434.805 196.383C416.487 212.541 407.114 213.805 424.562 233.583C442.01 253.361 471.004 256.295 489.322 240.137C507.64 223.979 531.109 205.382 513.661 185.604C467.83 195.417 453.123 180.224 434.805 196.383Z" fill="#FFD13B"/>
<path d="M397.847 168.054C387.623 190.239 379.562 195.183 403.514 206.223C427.466 217.263 455.171 208.228 465.394 186.044C475.617 163.86 489.565 137.363 465.613 126.323C427.661 153.823 408.07 145.87 397.847 168.054Z" fill="#FFD13B"/>
<ellipse cx="229.828" cy="358.893" rx="25.4816" ry="16.8539" transform="rotate(40.2318 229.828 358.893)" fill="#0BB756"/>
<ellipse cx="290.276" cy="411.085" rx="25.4816" ry="16.8539" transform="rotate(40.2318 290.276 411.085)" fill="#06A7E2"/>
<path d="M336.986 287.133L327.768 309.295L317.352 300.483L336.986 287.133Z" fill="#F8931F"/>
<path d="M356.574 343.902L332.581 344.559L336.36 331.449L356.574 343.902Z" fill="#F8931F"/>
<path d="M289.924 386.873L289.268 362.879L302.378 366.658L289.924 386.873Z" fill="#F8931F"/>
<path d="M245.906 319.338L269.9 318.681L266.121 331.791L245.906 319.338Z" fill="#F8931F"/>
<path d="M313.113 272.75L313.769 296.744L300.66 292.965L313.113 272.75Z" fill="#F8931F"/>
<path d="M355.4 313.833L335.075 326.602L331.661 313.392L355.4 313.833Z" fill="#F8931F"/>
<path d="M317.89 384.97L305.121 364.646L318.331 361.232L317.89 384.97Z" fill="#F8931F"/>
<path d="M247.735 347.239L268.059 334.471L271.473 347.68L247.735 347.239Z" fill="#F8931F"/>
<path d="M283.519 275.961L296.288 296.286L283.078 299.7L283.519 275.961Z" fill="#F8931F"/>
<path d="M344.49 365.949L322.328 356.73L331.14 346.314L344.49 365.949Z" fill="#F8931F"/>
<path d="M266.855 373.925L276.074 351.762L286.49 360.575L266.855 373.925Z" fill="#F8931F"/>
<path d="M258.126 294.072L280.288 303.29L271.476 313.706L258.126 294.072Z" fill="#F8931F"/>
<path d="M407.457 223.49C384.626 250.477 388.408 268.873 369.627 252.984C350.847 237.095 373.761 232.876 396.593 205.889C419.424 178.902 419.789 155.605 438.57 171.493C457.35 187.382 430.288 196.504 407.457 223.49Z" fill="#6A92F7"/>
<circle cx="367.919" cy="254.694" r="24.679" transform="rotate(40.2318 367.919 254.694)" fill="#FD4F00"/>
<path d="M352.56 216.201C348.897 221.042 341.848 221.879 336.815 218.071C331.782 214.264 330.671 207.252 334.334 202.411C337.997 197.57 336.893 207.263 341.926 211.071C346.958 214.879 356.222 211.36 352.56 216.201Z" fill="#3D1B11"/>
<path d="M426.024 274.322C422.361 279.163 415.315 280.003 410.286 276.198C405.257 272.393 404.149 265.384 407.811 260.543C411.474 255.702 410.04 266.188 415.069 269.993C420.098 273.798 429.686 269.481 426.024 274.322Z" fill="#3D1B11"/>
<ellipse cx="355.717" cy="183.964" rx="9.83147" ry="2.80899" transform="rotate(31.3091 355.717 183.964)" fill="#FFA409"/>
<ellipse cx="9.83147" cy="2.80899" rx="9.83147" ry="2.80899" transform="matrix(0.673216 0.739446 0.739446 -0.673216 425.537 245.296)" fill="#FFA409"/>
</g>
<g filter="url(#filter27_d_33_1486)">
<path d="M647.016 603C642.082 666.915 586.088 653.019 572.842 646.559C559.595 640.098 579.782 632.327 583.571 624.559C587.36 616.79 588.119 580.748 601.366 587.208C614.612 593.669 649.114 575.822 647.016 603Z" fill="#5E5F82"/>
<ellipse cx="23.3537" cy="13.6961" rx="23.3537" ry="13.6961" transform="matrix(-0.594616 -0.80401 -0.80401 0.594616 628.277 595.777)" fill="#8585A3"/>
<path d="M596.555 619.74C586.061 655.436 544.728 665.214 495.652 650.787C446.577 636.36 428.197 604.822 438.691 569.126C449.185 533.43 486.755 499.688 535.831 514.115C584.906 528.542 607.049 584.044 596.555 619.74Z" fill="#8585A3"/>
<path d="M534.848 394.532C538.866 412.237 530.825 428.334 510.02 433.056C489.215 437.778 469.093 427.253 465.075 409.548C461.057 391.844 480.42 358.503 496.409 354.874C512.399 351.246 530.83 376.828 534.848 394.532Z" fill="#5E5F82"/>
<path d="M522.846 397.545C525.447 409.008 520.241 419.431 506.771 422.488C493.301 425.545 480.272 418.73 477.67 407.267C475.069 395.805 487.606 374.218 497.958 371.868C508.311 369.519 520.244 386.082 522.846 397.545Z" fill="#ADADC7"/>
<path d="M612.111 417.246C599.151 429.96 597.201 447.848 612.14 463.077C627.08 478.307 649.697 480.347 662.658 467.633C675.618 454.92 677.378 416.405 665.896 404.7C654.414 392.995 625.071 404.533 612.111 417.246Z" fill="#5E5F82"/>
<ellipse cx="448.075" cy="537.409" rx="23.3537" ry="13.6961" transform="rotate(-8.38036 448.075 537.409)" fill="#8585A3"/>
<path d="M620.574 426.275C612.182 434.506 610.92 446.088 620.593 455.948C630.265 465.809 644.909 467.13 653.3 458.898C661.692 450.667 662.832 425.73 655.397 418.151C647.963 410.573 628.965 418.043 620.574 426.275Z" fill="#ADADC7"/>
<path d="M636.318 528.591C623.961 570.624 575.943 569.824 529.486 556.166C483.029 542.509 419.481 503.826 448.76 470.106C466.566 430.258 519.391 400.114 565.848 413.771C612.305 427.428 643.71 485.681 636.318 528.591Z" fill="black"/>
<path d="M636.21 535.084C622.481 578.718 571.29 584.532 525.2 570.03C479.109 555.528 419.83 507.933 450.24 473.054C469.357 431.728 523.235 400.719 569.326 415.221C615.416 429.724 644.995 490.507 636.21 535.084Z" fill="#787897"/>
<path d="M659.108 525.055C644.471 574.847 578.221 580.95 522.513 564.573C466.806 548.197 420.236 502.436 434.19 454.97C450.004 419.861 518.529 372.255 574.237 388.632C629.944 405.008 667.795 474.204 659.108 525.055Z" fill="#8585A3"/>
<path d="M574.018 515.719C565.392 545.062 555.271 569.393 520.082 559.048C484.892 548.703 437.959 507.599 446.585 478.257C455.211 448.915 490.731 433.514 525.92 443.859C561.11 454.204 582.644 486.377 574.018 515.719Z" fill="#8585A3"/>
<path d="M631.765 532.696C623.139 562.038 576.33 572.447 541.14 562.102C505.951 551.757 495.706 524.576 504.332 495.234C512.958 465.891 548.477 450.491 583.667 460.836C618.857 471.181 640.391 503.353 631.765 532.696Z" fill="#8585A3"/>
<path d="M528.893 484.281C521.938 507.941 529.053 536.393 496.174 526.728C463.296 517.062 442.281 490.046 449.237 466.386C456.193 442.725 493.143 425.453 518.412 432.881C543.681 440.31 535.849 460.62 528.893 484.281Z" fill="#5E5F82"/>
<path d="M568.313 494.566C561.225 518.675 539.737 540.371 572.971 550.141C606.205 559.911 638.892 548.287 645.98 524.178C653.067 500.069 639.119 467.112 605.885 457.342C572.651 447.572 575.4 470.457 568.313 494.566Z" fill="#5E5F82"/>
<path d="M606.434 505.137C603.333 511.18 595.412 500.946 591.614 499.233C587.817 497.521 583.308 497.481 586.41 491.438C588.104 488.139 591.167 490.657 595.209 492.732C599.251 494.806 608.224 502.387 606.434 505.137Z" fill="#3D1B11"/>
<path d="M492.254 474.597C491.6 481.358 505.135 476.936 509.255 477.546C513.376 478.156 517.192 480.557 517.846 473.797C518.202 470.105 514.265 470.57 509.742 470.132C505.22 469.695 492.234 471.316 492.254 474.597Z" fill="#3D1B11"/>
<g filter="url(#filter28_d_33_1486)">
<path d="M590.29 527.228C586.042 541.677 561.053 547.056 534.475 539.243C507.897 531.43 489.794 513.382 494.042 498.934C498.289 484.485 529.598 489.534 547.601 494.591C565.605 499.649 594.538 512.779 590.29 527.228Z" fill="#ADADC7"/>
</g>
<ellipse cx="546.403" cy="496.531" rx="13.0417" ry="6.21991" transform="rotate(16.3821 546.403 496.531)" fill="#43415D"/>
<ellipse cx="463.42" cy="637.966" rx="25.4816" ry="16.8539" transform="rotate(16.3821 463.42 637.966)" fill="#717297"/>
<ellipse cx="539.805" cy="661.258" rx="25.4816" ry="16.8539" transform="rotate(16.3821 539.805 661.258)" fill="#717297"/>
</g>
<g filter="url(#filter29_d_33_1486)">
<path d="M799.79 694.668C793.264 671.01 771.048 603.456 770.071 600.63L773.132 599.121L819.174 554.617L906.92 533.205L974.296 601.669L991.933 657.383L825.609 739.329L799.79 694.668Z" fill="#1B2A74"/>
<ellipse cx="821.743" cy="512.19" rx="109.028" ry="98.1686" transform="rotate(-26.229 821.743 512.19)" fill="#FFD8BD"/>
<g filter="url(#filter30_d_33_1486)">
<path d="M732.173 562.131L796.417 607.36L855.742 593.69L907.153 556.92L920.58 477.542C929.165 489.1 946.447 512.94 946.899 515.829C947.352 518.718 947.472 540.335 947.476 550.782L960.279 566.212L932.137 571.382L947.339 638.485L926.075 631.572L923.643 652.677L931.779 672.007L899.645 659.924L876.026 629.23L867.237 633.561C873.858 642.426 887.051 660.546 886.85 662.109C886.65 663.673 882.02 674.71 879.73 680.033C873.366 682.043 861.284 685.911 859.99 686.517C859.967 686.571 859.938 686.599 859.904 686.598C859.849 686.596 859.881 686.568 859.99 686.517C860.577 685.183 858.077 667.757 857.467 666.519C856.959 665.488 846.138 657.837 840.792 654.141L827.451 641.493L826.352 668.12L828.671 690.774L833.25 709.569C828.931 706.434 819.793 699.358 817.789 696.135C815.785 692.913 803.989 673.875 798.342 664.759L806.39 642.031L782.691 637.919C783.198 642.703 784.253 653.899 784.41 660.411C784.567 666.924 788.718 676.899 790.775 681.072C785.137 677.138 773.712 668.611 773.109 665.979C772.506 663.348 769.587 655.664 768.203 652.151L756.569 616.925L740.388 592.177L732.173 562.131Z" fill="#B2B1B1"/>
</g>
<g filter="url(#filter31_d_33_1486)">
<path d="M874.192 515.895C874.898 529.35 894.948 542.314 922.442 545.484C949.936 548.655 962.662 556.308 964.339 548.429C935.767 545.134 961.053 496.889 933.559 493.718C906.065 490.548 873.485 502.439 874.192 515.895Z" fill="#B2B1B1"/>
</g>
<path d="M875.309 511.095C871.136 525.244 888.352 544.36 917.335 555.43C946.317 566.501 959.632 580.172 964.368 572.479C934.249 560.974 963.685 519.686 934.703 508.616C905.72 497.545 879.483 496.946 875.309 511.095Z" fill="#D9D9D9"/>
<g filter="url(#filter32_d_33_1486)">
<path d="M727.118 522.426L754.34 460.899L778.592 445.164L853.907 420.774L897.398 446.915L934 496.464L921.198 446.725L874.766 404.609L816.743 395.047L786.75 409.824L741.543 432.097L711.745 473.666L706.536 514.232L711.501 557.738L745.471 589.35L738.685 563.28L727.118 522.426Z" fill="#D9D9D9"/>
</g>
<path d="M789.608 548.855C799.018 560.28 793.602 584.018 775.384 604.671C757.166 625.324 752.498 642.664 745.425 637.349C764.357 615.885 723.209 588.814 741.427 568.161C759.644 547.508 780.198 537.43 789.608 548.855Z" fill="#A6A0A0"/>
<g filter="url(#filter33_d_33_1486)">
<path d="M792.757 563.216C806.519 568.528 811.185 593.828 802.302 623.554C793.42 653.28 796.147 672.167 787.161 671.235C796.391 640.343 745.717 638.525 754.6 608.799C763.482 579.072 778.994 557.904 792.757 563.216Z" fill="#D9D9D9"/>
</g>
<g filter="url(#filter34_d_33_1486)">
<path d="M833.441 537.901C840.226 551.674 868.168 551.783 895.85 538.144C923.532 524.506 949.15 475.383 947.173 466.027C918.405 480.201 895.076 476.543 867.394 490.182C839.712 503.821 826.655 524.129 833.441 537.901Z" fill="#D9D9D9"/>
</g>
<g filter="url(#filter35_d_33_1486)">
<path d="M833.48 537.983C840.244 551.711 823.286 573.896 795.604 587.534C767.922 601.173 713.409 591.649 707.209 584.407C735.977 570.234 755.864 544.647 783.546 531.009C811.228 517.37 826.717 524.255 833.48 537.983Z" fill="#D9D9D9"/>
</g>
<path d="M798.104 489.77C801.353 496.366 788.016 500.326 775.254 506.614C762.491 512.902 742.704 514.427 739.766 510.927C753.029 504.393 756.349 495.501 769.111 489.214C781.874 482.926 794.854 483.175 798.104 489.77Z" fill="#D9D9D9"/>
<path d="M816.672 480.277C819.846 486.719 830.963 478.691 843.546 472.492C856.129 466.292 869.239 451.8 868.286 447.438C855.21 453.881 846.291 451.188 833.708 457.387C821.126 463.586 813.498 473.834 816.672 480.277Z" fill="#D9D9D9"/>
<path d="M975.925 559.568L951.662 707.303L956.585 708.91L989.457 562.898L1017.07 543.211L1035.18 482.729L1018.6 498.299L1024.26 501.871L1016.42 524.759L996.444 541.254L993.767 520.514L1001.97 473.177L1011.38 475.7L1004.69 449.55L988.335 470.237L996.12 472.589L987.773 518.874L977.937 538.719L965.43 513.029L966.776 488.685L973.294 487.844L963.907 466.452L957.958 529.66L975.925 559.568Z" fill="#FFD13B"/>
<path d="M771.438 429.991L725.03 457.43L711.707 424.128L728.435 429.084L724.897 391.582L755.52 411.161L745.913 359.606L782.083 399.204L781.122 361.155L806.513 388.207L820.52 375.147L835.344 404.09L798.321 417.89L771.438 429.991Z" fill="#FFD13B"/>
<path d="M844.298 493.344C841.246 487.991 844.214 482.522 849.778 479.348C855.343 476.175 861.396 476.499 864.449 481.852C867.502 487.204 858.353 482.046 852.788 485.219C847.224 488.393 847.351 498.697 844.298 493.344Z" fill="#3D1B11"/>
<path d="M774.196 526.333C771.144 520.981 774.094 515.513 779.654 512.342C785.215 509.171 791.279 509.497 794.332 514.849C797.385 520.202 788.225 515.042 782.664 518.213C777.104 521.384 777.249 531.686 774.196 526.333Z" fill="#3D1B11"/>
</g>
<g filter="url(#filter36_d_33_1486)">
<path d="M825.45 311.335L867.514 227.185L885.176 225.174L905.2 188.207L917.53 184.804L933.944 153.547L956.193 152.425L964.023 144.538L1082.09 373.355L1022.25 404.231L983.779 329.672L946.88 356.998L936.87 337.598L897.946 341.701L886.182 321.727L847.269 330.559L848.125 336.925L825.45 311.335Z" fill="#256AEA"/>
<path d="M836.719 312.011L874.573 234.017L887.837 261.598L845.426 328.886L836.719 312.011Z" fill="#256AEA"/>
<path d="M887.302 322.979L942.167 260.049L954.137 283.718L897.639 343.013L887.302 322.979Z" fill="#256AEA"/>
<path d="M935.562 338.385L1000.7 281.531L1012.72 304.831L943.577 353.919L935.562 338.385Z" fill="#256AEA"/>
<path d="M875.621 233.474L924.866 225.7L936.483 248.215L889.128 260.599L875.621 233.474Z" fill="#256AEA"/>
<path d="M943.496 259.365L984.242 248.82L995.955 271.52L955.697 283.01L943.496 259.365Z" fill="#256AEA"/>
<path d="M925.937 225.336L941.213 202.861L953.514 226.702L937.477 247.703L925.937 225.336Z" fill="#256AEA"/>
<path d="M942.874 202.006L969.413 198.918L980.698 220.789L955.119 225.738L942.874 202.006Z" fill="#256AEA"/>
<path d="M970.048 198.522L983.561 182.395L995.474 205.485L981.36 220.446L970.048 198.522Z" fill="#256AEA"/>
<path d="M986.223 247.776L1004.89 228.611L1016.79 251.67L997.757 270.129L986.223 247.776Z" fill="#256AEA"/>
<path d="M1001.7 281.017L1021.94 273.858L1033.01 295.316L1013.62 304.125L1001.7 281.017Z" fill="#256AEA"/>
<path d="M1023.53 273.693L1027.69 270.371L1039.16 292.601L1034.28 294.533L1023.53 273.693Z" fill="#256AEA"/>
<path d="M952.609 185.884L970.482 160.304L978.939 176.695L966.973 192.8L956.73 193.872L952.609 185.884Z" fill="#256AEA"/>
<path d="M908.102 190.769L952.072 184.439L957.948 195.828L936.382 196.175L923.362 220.346L908.102 190.769Z" fill="#256AEA"/>
<path d="M891.055 222.019L908.803 192.129L923.012 219.665L891.439 222.763L891.055 222.019Z" fill="#256AEA"/>
<path d="M939.365 158.592L960.907 156.399L963.209 160.861L950.271 179.729L939.365 158.592Z" fill="#256AEA"/>
<path d="M961.914 155.91L965.684 151.011L968.091 155.676L965.768 155.398L963.719 159.409L961.914 155.91Z" fill="#256AEA"/>
<path d="M922.812 183.471L938.228 159.641L948.946 180.414L922.812 183.471Z" fill="#256AEA"/>
<path d="M914.535 184.517L933.734 150.855L956.375 150.024L961.731 144.157L966.234 149.63L961.853 155.409L938.527 157.767L922.32 183.433L914.535 184.517Z" fill="#202D6B"/>
<path d="M884.622 224.197L905.987 185.404L950.338 180.245L967.962 154.608L970.946 161.34L953.227 185.844L909.478 192.17L891.193 223.17L884.622 224.197Z" fill="#202D6B"/>
<path d="M826.497 311.73L867.965 225.89L921.806 219.59L936.538 195.878L966.535 192.334L979.024 176.045L981.82 181.464L968.967 197.047L941.426 201.113L924.116 224.067L873.46 232.304L834.965 312.134L826.497 311.73Z" fill="#202D6B"/>
<path d="M846.261 328.88L889.18 262.01L937.705 250.688L955.117 227.988L982.772 223.26L994.686 209.658L1003.68 227.084L983.918 247.118L941.349 257.752L885.846 321.872L846.261 328.88Z" fill="#0F095B"/>
<path d="M898.517 344.707L955.038 285.25L997.245 273.37L1018.52 253.397L1026.34 268.557L1022.15 272.215L1000.04 279.727L934.36 337.911L898.517 344.707Z" fill="#0F095B"/>
<path d="M983.524 329.619L1014.56 307.144L1035.16 297.982L1041.15 296.363L1075.51 360.6L1015.49 391.569L983.524 329.619Z" fill="#256AEA"/>
<path d="M846.035 329.489L853.363 318.33L872.652 322.838C872.652 322.838 872.208 327.72 872.149 331.361C872.089 335.002 969.242 355.631 974.572 361.734C979.902 367.837 996.365 396.821 996.365 396.821L974.592 406.285C974.592 406.285 964.28 375.967 960.627 372.175C956.975 368.383 853.565 340.429 849.124 337.929C844.684 335.429 846.035 329.489 846.035 329.489Z" fill="#223C6C"/>
<path d="M862.751 305.195L870.261 293.921L890.559 300.021C890.559 300.021 891.254 301.369 891.199 305.018C891.143 308.668 987.208 332.725 992.548 338.849C997.888 344.972 1023.07 386.732 1023.07 386.732L998.78 396.009C998.78 396.009 982.579 351.461 978.919 347.657C975.26 343.852 872.615 314.085 868.169 311.574C863.723 309.063 862.751 305.195 862.751 305.195Z" fill="#223C6C"/>
<path d="M876.668 281.876L884.011 270.677L907.722 274.192C907.722 274.192 908.51 275.719 908.443 279.857C908.376 283.996 1018.48 312.636 1024.54 319.573C1030.59 326.51 1055.7 372.664 1055.7 372.664L1031.69 383.574C1031.69 383.574 1012.16 332.41 1008.01 328.1C1003.86 323.79 887.327 290.16 882.282 287.318C877.236 284.477 876.668 281.876 876.668 281.876Z" fill="#223C6C"/>
<path d="M969.336 403.845L1070.81 351.489L1085.47 379.914L984.003 432.27L969.336 403.845Z" fill="#272323"/>
<path d="M1178.55 128.983L1085.63 114.578L1073.75 127.798L1032.04 122.728L1022.12 130.801L987.149 126.093L973.335 143.563L962.372 145.378L1080.25 373.839L1140.09 342.964L1101.68 268.522L1145.33 254.274L1135.33 234.905L1161.24 205.58L1151.8 184.45L1181.55 157.869L1186.24 162.246L1178.55 128.983Z" fill="#256AEA"/>
<g filter="url(#filter37_d_33_1486)">
<path d="M1171.97 137.39L1086.58 124.074L1101.12 150.359L1180.52 153.951L1171.97 137.39Z" fill="#225ED0"/>
</g>
<g filter="url(#filter38_d_33_1486)">
<path d="M1151.34 184.071L1066.82 192.382L1081.15 219.682L1162.55 208.637L1151.34 184.071Z" fill="#225ED0"/>
</g>
<g filter="url(#filter39_d_33_1486)">
<path d="M1136.44 234.527L1052.25 254.468L1064.4 278.019L1144.54 250.227L1136.44 234.527Z" fill="#1F59C5"/>
</g>
<path d="M1085.9 124.513L1051.1 160.281L1062.83 183.021L1100.32 151.509L1085.9 124.513Z" fill="#256AEA"/>
<path d="M1067.86 195.197L1035.6 222.196L1047.18 244.629L1079.91 218.564L1067.86 195.197Z" fill="#256AEA"/>
<g filter="url(#filter40_d_33_1486)">
<path d="M1050.11 160.804L1022.94 160.23L1035.24 184.071L1061.65 183.171L1050.11 160.804Z" fill="#1F59C5"/>
</g>
<path d="M1020.95 161.256L1003.39 180.924L1014.67 202.795L1033.2 184.988L1020.95 161.256Z" fill="#256AEA"/>
<path d="M1002.39 181.467L982.85 181.838L995.563 206.476L1013.67 203.315L1002.39 181.467Z" fill="#2262D7"/>
<path d="M1033.97 223.946L1007.58 228.143L1019.33 250.921L1045.36 246.026L1033.97 223.946Z" fill="#256AEA"/>
<path d="M1051.25 254.987L1033.69 267.333L1044.76 288.791L1063.17 278.096L1051.25 254.987Z" fill="#256AEA"/>
<path d="M1032.96 268.366L1027.84 269.835L1039.31 292.065L1043.71 289.207L1032.96 268.366Z" fill="#256AEA"/>
<path d="M1001.79 159.191L970.443 160.036L976.705 174.537L997.97 173.251L1005.02 166.68L1001.79 159.191Z" fill="#1F5AC5"/>
<path d="M1031.8 126.943L1002.02 159.959L1006.14 167.948L1019.91 153.137L1047.62 155.156L1031.8 126.943Z" fill="#256AEA"/>
<g filter="url(#filter41_d_33_1486)">
<path d="M1067.35 129.922L1031.82 127.794L1046.48 152.947L1067.68 130.567L1067.35 129.922Z" fill="#1F5AC5"/>
</g>
<path d="M988.112 133.441L973.778 149.604L976.041 153.989L998.83 154.213L988.112 133.441Z" fill="#256AEA"/>
<g filter="url(#filter42_d_33_1486)">
<path d="M972.681 149.917L966.566 150.272L968.848 154.695L970.968 154.578L975.048 154.505L972.681 149.917Z" fill="#1F59C5"/>
</g>
<g filter="url(#filter43_d_33_1486)">
<path d="M1016.93 133.111L987.558 132.339L998.867 151.816L1016.93 133.111Z" fill="#1F59C5"/>
</g>
<path d="M1023.31 128.392L984.922 124.442L971.234 142.356L961.739 144.152L965.248 150.951L972.461 149.935L987.783 132.351L1017.95 134.088L1023.31 128.392Z" fill="#202D6B"/>
<path d="M1073.63 126.638L1029.01 121.494L998.688 155.12L967.443 155.2L970.444 161.83L1001.62 160.799L1032.55 128.357L1068.92 131.466L1073.63 126.638Z" fill="#202D6B"/>
<path d="M1177.65 129.682L1084.01 114.416L1047.55 154.421L1019.78 152.857L999.437 175.126L978.327 176.703L981.134 182.143L1001.84 179.776L1021.17 159.792L1049.83 158.838L1086 122.514L1173.05 136.767L1177.65 129.682Z" fill="#202D6B"/>
<path d="M1180.61 155.758L1101.06 152.764L1063.3 185.75L1034.63 187.041L1014.51 206.817L994.598 209.457L1003.69 227.079L1033.2 221.246L1066.89 192.706L1151.62 183.928L1180.61 155.758Z" fill="#0F095B"/>
<path d="M1163.12 208.118L1081.46 220.129L1047.01 247.747L1018.23 253.645L1026.01 268.72L1031.45 267.404L1050.55 253.672L1136.55 233.46L1163.12 208.118Z" fill="#0F095B"/>
<g filter="url(#filter44_d_33_1486)">
<path d="M1101.41 268.366L1065.28 280.508L1045.99 291.94L1041.23 295.871L1073.86 361.45L1133.55 330.652L1101.41 268.366Z" fill="#1F59C5"/>
</g>
<path d="M1181.31 156.058L1167.96 155.546L1160.47 173.913C1160.47 173.913 1164.71 176.391 1167.72 178.461C1170.72 180.531 1131.32 271.832 1133.22 279.734C1135.12 287.636 1149.24 317.939 1149.24 317.939L1169.57 305.674C1169.57 305.674 1150.79 279.616 1149.81 274.428C1148.83 269.24 1185.88 168.569 1186.41 163.49C1186.94 158.411 1181.31 156.058 1181.31 156.058Z" fill="#223C6C"/>
<path d="M1152 155.951L1138.42 155.557L1131.58 175.66C1131.58 175.66 1132.28 177.007 1135.29 179.074C1138.3 181.141 1102.01 273.494 1103.89 281.398C1105.78 289.302 1125.22 334.029 1125.22 334.029L1146.93 319.567C1146.93 319.567 1120 280.558 1119.02 275.369C1118.05 270.179 1153.51 169.149 1154.05 164.066C1154.59 158.984 1152 155.951 1152 155.951Z" fill="#223C6C"/>
<path d="M1124.75 153.426L1111.36 152.907L1100.5 174.298C1100.5 174.298 1101.29 175.829 1104.7 178.18C1108.12 180.531 1067.74 287.023 1069.9 295.999C1072.05 304.975 1095.17 352.298 1095.17 352.298L1117.98 339.045C1117.98 339.045 1087.53 293.365 1086.42 287.472C1085.31 281.58 1125.34 166.94 1125.94 161.171C1126.54 155.402 1124.75 153.426 1124.75 153.426Z" fill="#223C6C"/>
<path d="M969.336 403.845L1169.95 300.331L1184.62 328.756L984.003 432.27L969.336 403.845Z" fill="#223C6C"/>
<path d="M980.529 261.141C983.695 267.275 979.785 269.203 975.04 271.651C970.294 274.1 966.509 276.143 963.343 270.008C960.178 263.874 966.541 265.9 971.287 263.452C976.032 261.003 977.364 255.006 980.529 261.141Z" fill="#3D1B11"/>
<path d="M1056.74 220.505C1059.9 226.64 1055.99 228.567 1051.25 231.016C1046.5 233.465 1042.72 235.507 1039.55 229.373C1036.39 223.238 1042.75 225.265 1047.49 222.816C1052.24 220.367 1053.57 214.37 1056.74 220.505Z" fill="#3D1B11"/>
</g>
<defs>
<filter id="filter0_d_33_1486" x="83.5245" y="330.392" width="285.201" height="214.191" filterUnits="userSpaceOnUse" color-interpolation-filters="sRGB">
<feFlood flood-opacity="0" result="BackgroundImageFix"/>
<feColorMatrix in="SourceAlpha" type="matrix" values="0 0 0 0 0 0 0 0 0 0 0 0 0 0 0 0 0 0 127 0" result="hardAlpha"/>
<feOffset dy="1.17769"/>
<feGaussianBlur stdDeviation="1.17769"/>
<feComposite in2="hardAlpha" operator="out"/>
<feColorMatrix type="matrix" values="0 0 0 0 0 0 0 0 0 0 0 0 0 0 0 0 0 0 0.25 0"/>
<feBlend mode="normal" in2="BackgroundImageFix" result="effect1_dropShadow_33_1486"/>
<feBlend mode="normal" in="SourceGraphic" in2="effect1_dropShadow_33_1486" result="shape"/>
</filter>
<filter id="filter1_d_33_1486" x="1203.51" y="-5.91915" width="285.201" height="214.191" filterUnits="userSpaceOnUse" color-interpolation-filters="sRGB">
<feFlood flood-opacity="0" result="BackgroundImageFix"/>
<feColorMatrix in="SourceAlpha" type="matrix" values="0 0 0 0 0 0 0 0 0 0 0 0 0 0 0 0 0 0 127 0" result="hardAlpha"/>
<feOffset dy="1.17769"/>
<feGaussianBlur stdDeviation="1.17769"/>
<feComposite in2="hardAlpha" operator="out"/>
<feColorMatrix type="matrix" values="0 0 0 0 0 0 0 0 0 0 0 0 0 0 0 0 0 0 0.25 0"/>
<feBlend mode="normal" in2="BackgroundImageFix" result="effect1_dropShadow_33_1486"/>
<feBlend mode="normal" in="SourceGraphic" in2="effect1_dropShadow_33_1486" result="shape"/>
</filter>
<filter id="filter2_d_33_1486" x="-223.189" y="502.584" width="223.443" height="147.646" filterUnits="userSpaceOnUse" color-interpolation-filters="sRGB">
<feFlood flood-opacity="0" result="BackgroundImageFix"/>
<feColorMatrix in="SourceAlpha" type="matrix" values="0 0 0 0 0 0 0 0 0 0 0 0 0 0 0 0 0 0 127 0" result="hardAlpha"/>
<feOffset dy="1.17769"/>
<feGaussianBlur stdDeviation="0.588846"/>
<feComposite in2="hardAlpha" operator="out"/>
<feColorMatrix type="matrix" values="0 0 0 0 0 0 0 0 0 0 0 0 0 0 0 0 0 0 0.16 0"/>
<feBlend mode="normal" in2="BackgroundImageFix" result="effect1_dropShadow_33_1486"/>
<feBlend mode="normal" in="SourceGraphic" in2="effect1_dropShadow_33_1486" result="shape"/>
</filter>
<filter id="filter3_dd_33_1486" x="113.059" y="781.889" width="226.13" height="185.363" filterUnits="userSpaceOnUse" color-interpolation-filters="sRGB">
<feFlood flood-opacity="0" result="BackgroundImageFix"/>
<feColorMatrix in="SourceAlpha" type="matrix" values="0 0 0 0 0 0 0 0 0 0 0 0 0 0 0 0 0 0 127 0" result="hardAlpha"/>
<feOffset dy="2.35538"/>
<feGaussianBlur stdDeviation="1.17769"/>
<feComposite in2="hardAlpha" operator="out"/>
<feColorMatrix type="matrix" values="0 0 0 0 0 0 0 0 0 0 0 0 0 0 0 0 0 0 0.25 0"/>
<feBlend mode="normal" in2="BackgroundImageFix" result="effect1_dropShadow_33_1486"/>
<feColorMatrix in="SourceAlpha" type="matrix" values="0 0 0 0 0 0 0 0 0 0 0 0 0 0 0 0 0 0 127 0" result="hardAlpha"/>
<feOffset dy="1.17769"/>
<feGaussianBlur stdDeviation="0.588846"/>
<feComposite in2="hardAlpha" operator="out"/>
<feColorMatrix type="matrix" values="0 0 0 0 0 0 0 0 0 0 0 0 0 0 0 0 0 0 0.25 0"/>
<feBlend mode="normal" in2="effect1_dropShadow_33_1486" result="effect2_dropShadow_33_1486"/>
<feBlend mode="normal" in="SourceGraphic" in2="effect2_dropShadow_33_1486" result="shape"/>
</filter>
<filter id="filter4_d_33_1486" x="653.046" y="-216.451" width="315.197" height="220.439" filterUnits="userSpaceOnUse" color-interpolation-filters="sRGB">
<feFlood flood-opacity="0" result="BackgroundImageFix"/>
<feColorMatrix in="SourceAlpha" type="matrix" values="0 0 0 0 0 0 0 0 0 0 0 0 0 0 0 0 0 0 127 0" result="hardAlpha"/>
<feOffset dy="1.23441"/>
<feGaussianBlur stdDeviation="1.23441"/>
<feComposite in2="hardAlpha" operator="out"/>
<feColorMatrix type="matrix" values="0 0 0 0 0 0 0 0 0 0 0 0 0 0 0 0 0 0 0.25 0"/>
<feBlend mode="normal" in2="BackgroundImageFix" result="effect1_dropShadow_33_1486"/>
<feBlend mode="normal" in="SourceGraphic" in2="effect1_dropShadow_33_1486" result="shape"/>
</filter>
<filter id="filter5_d_33_1486" x="242.456" y="-17.2145" width="298.936" height="224.505" filterUnits="userSpaceOnUse" color-interpolation-filters="sRGB">
<feFlood flood-opacity="0" result="BackgroundImageFix"/>
<feColorMatrix in="SourceAlpha" type="matrix" values="0 0 0 0 0 0 0 0 0 0 0 0 0 0 0 0 0 0 127 0" result="hardAlpha"/>
<feOffset dy="1.23441"/>
<feGaussianBlur stdDeviation="1.23441"/>
<feComposite in2="hardAlpha" operator="out"/>
<feColorMatrix type="matrix" values="0 0 0 0 0 0 0 0 0 0 0 0 0 0 0 0 0 0 0.25 0"/>
<feBlend mode="normal" in2="BackgroundImageFix" result="effect1_dropShadow_33_1486"/>
<feBlend mode="normal" in="SourceGraphic" in2="effect1_dropShadow_33_1486" result="shape"/>
</filter>
<filter id="filter6_d_33_1486" x="694.058" y="134.276" width="315.46" height="220.973" filterUnits="userSpaceOnUse" color-interpolation-filters="sRGB">
<feFlood flood-opacity="0" result="BackgroundImageFix"/>
<feColorMatrix in="SourceAlpha" type="matrix" values="0 0 0 0 0 0 0 0 0 0 0 0 0 0 0 0 0 0 127 0" result="hardAlpha"/>
<feOffset dy="1.23441"/>
<feGaussianBlur stdDeviation="1.23441"/>
<feComposite in2="hardAlpha" operator="out"/>
<feColorMatrix type="matrix" values="0 0 0 0 0 0 0 0 0 0 0 0 0 0 0 0 0 0 0.25 0"/>
<feBlend mode="normal" in2="BackgroundImageFix" result="effect1_dropShadow_33_1486"/>
<feBlend mode="normal" in="SourceGraphic" in2="effect1_dropShadow_33_1486" result="shape"/>
</filter>
<filter id="filter7_d_33_1486" x="487.056" y="652.463" width="348.951" height="238.949" filterUnits="userSpaceOnUse" color-interpolation-filters="sRGB">
<feFlood flood-opacity="0" result="BackgroundImageFix"/>
<feColorMatrix in="SourceAlpha" type="matrix" values="0 0 0 0 0 0 0 0 0 0 0 0 0 0 0 0 0 0 127 0" result="hardAlpha"/>
<feOffset dy="1.23441"/>
<feGaussianBlur stdDeviation="1.23441"/>
<feComposite in2="hardAlpha" operator="out"/>
<feColorMatrix type="matrix" values="0 0 0 0 0 0 0 0 0 0 0 0 0 0 0 0 0 0 0.25 0"/>
<feBlend mode="normal" in2="BackgroundImageFix" result="effect1_dropShadow_33_1486"/>
<feBlend mode="normal" in="SourceGraphic" in2="effect1_dropShadow_33_1486" result="shape"/>
</filter>
<filter id="filter8_d_33_1486" x="348.087" y="-6.16748" width="272.074" height="154.757" filterUnits="userSpaceOnUse" color-interpolation-filters="sRGB">
<feFlood flood-opacity="0" result="BackgroundImageFix"/>
<feColorMatrix in="SourceAlpha" type="matrix" values="0 0 0 0 0 0 0 0 0 0 0 0 0 0 0 0 0 0 127 0" result="hardAlpha"/>
<feOffset dy="1.23441"/>
<feGaussianBlur stdDeviation="0.617203"/>
<feComposite in2="hardAlpha" operator="out"/>
<feColorMatrix type="matrix" values="0 0 0 0 0 0 0 0 0 0 0 0 0 0 0 0 0 0 0.25 0"/>
<feBlend mode="normal" in2="BackgroundImageFix" result="effect1_dropShadow_33_1486"/>
<feBlend mode="normal" in="SourceGraphic" in2="effect1_dropShadow_33_1486" result="shape"/>
</filter>
<filter id="filter9_d_33_1486" x="792.515" y="97.8698" width="234.204" height="154.756" filterUnits="userSpaceOnUse" color-interpolation-filters="sRGB">
<feFlood flood-opacity="0" result="BackgroundImageFix"/>
<feColorMatrix in="SourceAlpha" type="matrix" values="0 0 0 0 0 0 0 0 0 0 0 0 0 0 0 0 0 0 127 0" result="hardAlpha"/>
<feOffset dy="1.23441"/>
<feGaussianBlur stdDeviation="0.617203"/>
<feComposite in2="hardAlpha" operator="out"/>
<feColorMatrix type="matrix" values="0 0 0 0 0 0 0 0 0 0 0 0 0 0 0 0 0 0 0.16 0"/>
<feBlend mode="normal" in2="BackgroundImageFix" result="effect1_dropShadow_33_1486"/>
<feBlend mode="normal" in="SourceGraphic" in2="effect1_dropShadow_33_1486" result="shape"/>
</filter>
<filter id="filter10_d_33_1486" x="628.716" y="706.711" width="228.226" height="182.217" filterUnits="userSpaceOnUse" color-interpolation-filters="sRGB">
<feFlood flood-opacity="0" result="BackgroundImageFix"/>
<feColorMatrix in="SourceAlpha" type="matrix" values="0 0 0 0 0 0 0 0 0 0 0 0 0 0 0 0 0 0 127 0" result="hardAlpha"/>
<feOffset dy="1.23441"/>
<feGaussianBlur stdDeviation="0.617203"/>
<feComposite in2="hardAlpha" operator="out"/>
<feColorMatrix type="matrix" values="0 0 0 0 0 0 0 0 0 0 0 0 0 0 0 0 0 0 0.25 0"/>
<feBlend mode="normal" in2="BackgroundImageFix" result="effect1_dropShadow_33_1486"/>
<feBlend mode="normal" in="SourceGraphic" in2="effect1_dropShadow_33_1486" result="shape"/>
</filter>
<filter id="filter11_dd_33_1486" x="1144.96" y="390.626" width="237.017" height="194.29" filterUnits="userSpaceOnUse" color-interpolation-filters="sRGB">
<feFlood flood-opacity="0" result="BackgroundImageFix"/>
<feColorMatrix in="SourceAlpha" type="matrix" values="0 0 0 0 0 0 0 0 0 0 0 0 0 0 0 0 0 0 127 0" result="hardAlpha"/>
<feOffset dy="2.46881"/>
<feGaussianBlur stdDeviation="1.23441"/>
<feComposite in2="hardAlpha" operator="out"/>
<feColorMatrix type="matrix" values="0 0 0 0 0 0 0 0 0 0 0 0 0 0 0 0 0 0 0.25 0"/>
<feBlend mode="normal" in2="BackgroundImageFix" result="effect1_dropShadow_33_1486"/>
<feColorMatrix in="SourceAlpha" type="matrix" values="0 0 0 0 0 0 0 0 0 0 0 0 0 0 0 0 0 0 127 0" result="hardAlpha"/>
<feOffset dy="1.23441"/>
<feGaussianBlur stdDeviation="0.617203"/>
<feComposite in2="hardAlpha" operator="out"/>
<feColorMatrix type="matrix" values="0 0 0 0 0 0 0 0 0 0 0 0 0 0 0 0 0 0 0.25 0"/>
<feBlend mode="normal" in2="effect1_dropShadow_33_1486" result="effect2_dropShadow_33_1486"/>
<feBlend mode="normal" in="SourceGraphic" in2="effect2_dropShadow_33_1486" result="shape"/>
</filter>
<filter id="filter12_dd_33_1486" x="-177.408" y="219.383" width="237.019" height="194.29" filterUnits="userSpaceOnUse" color-interpolation-filters="sRGB">
<feFlood flood-opacity="0" result="BackgroundImageFix"/>
<feColorMatrix in="SourceAlpha" type="matrix" values="0 0 0 0 0 0 0 0 0 0 0 0 0 0 0 0 0 0 127 0" result="hardAlpha"/>
<feOffset dy="2.46881"/>
<feGaussianBlur stdDeviation="1.23441"/>
<feComposite in2="hardAlpha" operator="out"/>
<feColorMatrix type="matrix" values="0 0 0 0 0 0 0 0 0 0 0 0 0 0 0 0 0 0 0.25 0"/>
<feBlend mode="normal" in2="BackgroundImageFix" result="effect1_dropShadow_33_1486"/>
<feColorMatrix in="SourceAlpha" type="matrix" values="0 0 0 0 0 0 0 0 0 0 0 0 0 0 0 0 0 0 127 0" result="hardAlpha"/>
<feOffset dy="1.23441"/>
<feGaussianBlur stdDeviation="0.617203"/>
<feComposite in2="hardAlpha" operator="out"/>
<feColorMatrix type="matrix" values="0 0 0 0 0 0 0 0 0 0 0 0 0 0 0 0 0 0 0.25 0"/>
<feBlend mode="normal" in2="effect1_dropShadow_33_1486" result="effect2_dropShadow_33_1486"/>
<feBlend mode="normal" in="SourceGraphic" in2="effect2_dropShadow_33_1486" result="shape"/>
</filter>
<filter id="filter13_d_33_1486" x="1085.04" y="355.487" width="124.778" height="119.177" filterUnits="userSpaceOnUse" color-interpolation-filters="sRGB">
<feFlood flood-opacity="0" result="BackgroundImageFix"/>
<feColorMatrix in="SourceAlpha" type="matrix" values="0 0 0 0 0 0 0 0 0 0 0 0 0 0 0 0 0 0 127 0" result="hardAlpha"/>
<feOffset dy="2.46881"/>
<feGaussianBlur stdDeviation="1.23441"/>
<feComposite in2="hardAlpha" operator="out"/>
<feColorMatrix type="matrix" values="0 0 0 0 0 0 0 0 0 0 0 0 0 0 0 0 0 0 0.25 0"/>
<feBlend mode="normal" in2="BackgroundImageFix" result="effect1_dropShadow_33_1486"/>
<feBlend mode="normal" in="SourceGraphic" in2="effect1_dropShadow_33_1486" result="shape"/>
</filter>
<filter id="filter14_d_33_1486" x="560.62" y="168.449" width="133.327" height="127.309" filterUnits="userSpaceOnUse" color-interpolation-filters="sRGB">
<feFlood flood-opacity="0" result="BackgroundImageFix"/>
<feColorMatrix in="SourceAlpha" type="matrix" values="0 0 0 0 0 0 0 0 0 0 0 0 0 0 0 0 0 0 127 0" result="hardAlpha"/>
<feOffset dy="2.46881"/>
<feGaussianBlur stdDeviation="1.23441"/>
<feComposite in2="hardAlpha" operator="out"/>
<feColorMatrix type="matrix" values="0 0 0 0 0 0 0 0 0 0 0 0 0 0 0 0 0 0 0.25 0"/>
<feBlend mode="normal" in2="BackgroundImageFix" result="effect1_dropShadow_33_1486"/>
<feBlend mode="normal" in="SourceGraphic" in2="effect1_dropShadow_33_1486" result="shape"/>
</filter>
<filter id="filter15_d_33_1486" x="367.535" y="-14.297" width="20.8131" height="20.8165" filterUnits="userSpaceOnUse" color-interpolation-filters="sRGB">
<feFlood flood-opacity="0" result="BackgroundImageFix"/>
<feColorMatrix in="SourceAlpha" type="matrix" values="0 0 0 0 0 0 0 0 0 0 0 0 0 0 0 0 0 0 127 0" result="hardAlpha"/>
<feOffset dy="2.46881"/>
<feGaussianBlur stdDeviation="1.23441"/>
<feComposite in2="hardAlpha" operator="out"/>
<feColorMatrix type="matrix" values="0 0 0 0 0 0 0 0 0 0 0 0 0 0 0 0 0 0 0.25 0"/>
<feBlend mode="normal" in2="BackgroundImageFix" result="effect1_dropShadow_33_1486"/>
<feBlend mode="normal" in="SourceGraphic" in2="effect1_dropShadow_33_1486" result="shape"/>
</filter>
<filter id="filter16_d_33_1486" x="1072.84" y="436.809" width="90.3156" height="86.3947" filterUnits="userSpaceOnUse" color-interpolation-filters="sRGB">
<feFlood flood-opacity="0" result="BackgroundImageFix"/>
<feColorMatrix in="SourceAlpha" type="matrix" values="0 0 0 0 0 0 0 0 0 0 0 0 0 0 0 0 0 0 127 0" result="hardAlpha"/>
<feOffset dy="2.46881"/>
<feGaussianBlur stdDeviation="1.23441"/>
<feComposite in2="hardAlpha" operator="out"/>
<feColorMatrix type="matrix" values="0 0 0 0 0 0 0 0 0 0 0 0 0 0 0 0 0 0 0.25 0"/>
<feBlend mode="normal" in2="BackgroundImageFix" result="effect1_dropShadow_33_1486"/>
<feBlend mode="normal" in="SourceGraphic" in2="effect1_dropShadow_33_1486" result="shape"/>
</filter>
<filter id="filter17_d_33_1486" x="223.205" y="400.214" width="90.3156" height="86.3947" filterUnits="userSpaceOnUse" color-interpolation-filters="sRGB">
<feFlood flood-opacity="0" result="BackgroundImageFix"/>
<feColorMatrix in="SourceAlpha" type="matrix" values="0 0 0 0 0 0 0 0 0 0 0 0 0 0 0 0 0 0 127 0" result="hardAlpha"/>
<feOffset dy="2.46881"/>
<feGaussianBlur stdDeviation="1.23441"/>
<feComposite in2="hardAlpha" operator="out"/>
<feColorMatrix type="matrix" values="0 0 0 0 0 0 0 0 0 0 0 0 0 0 0 0 0 0 0.25 0"/>
<feBlend mode="normal" in2="BackgroundImageFix" result="effect1_dropShadow_33_1486"/>
<feBlend mode="normal" in="SourceGraphic" in2="effect1_dropShadow_33_1486" result="shape"/>
</filter>
<filter id="filter18_d_33_1486" x="508.172" y="676.268" width="132.109" height="119.578" filterUnits="userSpaceOnUse" color-interpolation-filters="sRGB">
<feFlood flood-opacity="0" result="BackgroundImageFix"/>
<feColorMatrix in="SourceAlpha" type="matrix" values="0 0 0 0 0 0 0 0 0 0 0 0 0 0 0 0 0 0 127 0" result="hardAlpha"/>
<feOffset dy="2.46881"/>
<feGaussianBlur stdDeviation="1.23441"/>
<feComposite in2="hardAlpha" operator="out"/>
<feColorMatrix type="matrix" values="0 0 0 0 0 0 0 0 0 0 0 0 0 0 0 0 0 0 0.25 0"/>
<feBlend mode="normal" in2="BackgroundImageFix" result="effect1_dropShadow_33_1486"/>
<feBlend mode="normal" in="SourceGraphic" in2="effect1_dropShadow_33_1486" result="shape"/>
</filter>
<filter id="filter19_d_33_1486" x="593.143" y="660.442" width="90.3156" height="86.3947" filterUnits="userSpaceOnUse" color-interpolation-filters="sRGB">
<feFlood flood-opacity="0" result="BackgroundImageFix"/>
<feColorMatrix in="SourceAlpha" type="matrix" values="0 0 0 0 0 0 0 0 0 0 0 0 0 0 0 0 0 0 127 0" result="hardAlpha"/>
<feOffset dy="2.46881"/>
<feGaussianBlur stdDeviation="1.23441"/>
<feComposite in2="hardAlpha" operator="out"/>
<feColorMatrix type="matrix" values="0 0 0 0 0 0 0 0 0 0 0 0 0 0 0 0 0 0 0.25 0"/>
<feBlend mode="normal" in2="BackgroundImageFix" result="effect1_dropShadow_33_1486"/>
<feBlend mode="normal" in="SourceGraphic" in2="effect1_dropShadow_33_1486" result="shape"/>
</filter>
<filter id="filter20_d_33_1486" x="1431.35" y="147.765" width="90.3156" height="86.3947" filterUnits="userSpaceOnUse" color-interpolation-filters="sRGB">
<feFlood flood-opacity="0" result="BackgroundImageFix"/>
<feColorMatrix in="SourceAlpha" type="matrix" values="0 0 0 0 0 0 0 0 0 0 0 0 0 0 0 0 0 0 127 0" result="hardAlpha"/>
<feOffset dy="2.46881"/>
<feGaussianBlur stdDeviation="1.23441"/>
<feComposite in2="hardAlpha" operator="out"/>
<feColorMatrix type="matrix" values="0 0 0 0 0 0 0 0 0 0 0 0 0 0 0 0 0 0 0.25 0"/>
<feBlend mode="normal" in2="BackgroundImageFix" result="effect1_dropShadow_33_1486"/>
<feBlend mode="normal" in="SourceGraphic" in2="effect1_dropShadow_33_1486" result="shape"/>
</filter>
<filter id="filter21_d_33_1486" x="35.2412" y="51.5104" width="125.321" height="128.233" filterUnits="userSpaceOnUse" color-interpolation-filters="sRGB">
<feFlood flood-opacity="0" result="BackgroundImageFix"/>
<feColorMatrix in="SourceAlpha" type="matrix" values="0 0 0 0 0 0 0 0 0 0 0 0 0 0 0 0 0 0 127 0" result="hardAlpha"/>
<feOffset dy="2.46881"/>
<feGaussianBlur stdDeviation="1.23441"/>
<feComposite in2="hardAlpha" operator="out"/>
<feColorMatrix type="matrix" values="0 0 0 0 0 0 0 0 0 0 0 0 0 0 0 0 0 0 0.25 0"/>
<feBlend mode="normal" in2="BackgroundImageFix" result="effect1_dropShadow_33_1486"/>
<feBlend mode="normal" in="SourceGraphic" in2="effect1_dropShadow_33_1486" result="shape"/>
</filter>
<filter id="filter22_d_33_1486" x="586.23" y="727.384" width="93.0712" height="89.0307" filterUnits="userSpaceOnUse" color-interpolation-filters="sRGB">
<feFlood flood-opacity="0" result="BackgroundImageFix"/>
<feColorMatrix in="SourceAlpha" type="matrix" values="0 0 0 0 0 0 0 0 0 0 0 0 0 0 0 0 0 0 127 0" result="hardAlpha"/>
<feOffset dy="2.54414"/>
<feGaussianBlur stdDeviation="1.27207"/>
<feComposite in2="hardAlpha" operator="out"/>
<feColorMatrix type="matrix" values="0 0 0 0 0 0 0 0 0 0 0 0 0 0 0 0 0 0 0.25 0"/>
<feBlend mode="normal" in2="BackgroundImageFix" result="effect1_dropShadow_33_1486"/>
<feBlend mode="normal" in="SourceGraphic" in2="effect1_dropShadow_33_1486" result="shape"/>
</filter>
<filter id="filter23_d_33_1486" x="1435.51" y="214.706" width="93.0712" height="89.0307" filterUnits="userSpaceOnUse" color-interpolation-filters="sRGB">
<feFlood flood-opacity="0" result="BackgroundImageFix"/>
<feColorMatrix in="SourceAlpha" type="matrix" values="0 0 0 0 0 0 0 0 0 0 0 0 0 0 0 0 0 0 127 0" result="hardAlpha"/>
<feOffset dy="2.54414"/>
<feGaussianBlur stdDeviation="1.27207"/>
<feComposite in2="hardAlpha" operator="out"/>
<feColorMatrix type="matrix" values="0 0 0 0 0 0 0 0 0 0 0 0 0 0 0 0 0 0 0.25 0"/>
<feBlend mode="normal" in2="BackgroundImageFix" result="effect1_dropShadow_33_1486"/>
<feBlend mode="normal" in="SourceGraphic" in2="effect1_dropShadow_33_1486" result="shape"/>
</filter>
<filter id="filter24_d_33_1486" x="879.89" y="1011.86" width="136.141" height="123.227" filterUnits="userSpaceOnUse" color-interpolation-filters="sRGB">
<feFlood flood-opacity="0" result="BackgroundImageFix"/>
<feColorMatrix in="SourceAlpha" type="matrix" values="0 0 0 0 0 0 0 0 0 0 0 0 0 0 0 0 0 0 127 0" result="hardAlpha"/>
<feOffset dy="2.54414"/>
<feGaussianBlur stdDeviation="1.27207"/>
<feComposite in2="hardAlpha" operator="out"/>
<feColorMatrix type="matrix" values="0 0 0 0 0 0 0 0 0 0 0 0 0 0 0 0 0 0 0.25 0"/>
<feBlend mode="normal" in2="BackgroundImageFix" result="effect1_dropShadow_33_1486"/>
<feBlend mode="normal" in="SourceGraphic" in2="effect1_dropShadow_33_1486" result="shape"/>
</filter>
<filter id="filter25_d_33_1486" x="967.454" y="995.552" width="93.0712" height="89.0307" filterUnits="userSpaceOnUse" color-interpolation-filters="sRGB">
<feFlood flood-opacity="0" result="BackgroundImageFix"/>
<feColorMatrix in="SourceAlpha" type="matrix" values="0 0 0 0 0 0 0 0 0 0 0 0 0 0 0 0 0 0 127 0" result="hardAlpha"/>
<feOffset dy="2.54414"/>
<feGaussianBlur stdDeviation="1.27207"/>
<feComposite in2="hardAlpha" operator="out"/>
<feColorMatrix type="matrix" values="0 0 0 0 0 0 0 0 0 0 0 0 0 0 0 0 0 0 0.25 0"/>
<feBlend mode="normal" in2="BackgroundImageFix" result="effect1_dropShadow_33_1486"/>
<feBlend mode="normal" in="SourceGraphic" in2="effect1_dropShadow_33_1486" result="shape"/>
</filter>
<filter id="filter26_d_33_1486" x="199.701" y="92.2941" width="325.35" height="344.62" filterUnits="userSpaceOnUse" color-interpolation-filters="sRGB">
<feFlood flood-opacity="0" result="BackgroundImageFix"/>
<feColorMatrix in="SourceAlpha" type="matrix" values="0 0 0 0 0 0 0 0 0 0 0 0 0 0 0 0 0 0 127 0" result="hardAlpha"/>
<feOffset dy="2.46881"/>
<feGaussianBlur stdDeviation="1.23441"/>
<feComposite in2="hardAlpha" operator="out"/>
<feColorMatrix type="matrix" values="0 0 0 0 0 0 0 0 0 0 0 0 0 0 0 0 0 0 0.25 0"/>
<feBlend mode="normal" in2="BackgroundImageFix" result="effect1_dropShadow_33_1486"/>
<feBlend mode="normal" in="SourceGraphic" in2="effect1_dropShadow_33_1486" result="shape"/>
</filter>
<filter id="filter27_d_33_1486" x="422.414" y="354.527" width="253.593" height="329.368" filterUnits="userSpaceOnUse" color-interpolation-filters="sRGB">
<feFlood flood-opacity="0" result="BackgroundImageFix"/>
<feColorMatrix in="SourceAlpha" type="matrix" values="0 0 0 0 0 0 0 0 0 0 0 0 0 0 0 0 0 0 127 0" result="hardAlpha"/>
<feOffset dy="2.46881"/>
<feGaussianBlur stdDeviation="1.23441"/>
<feComposite in2="hardAlpha" operator="out"/>
<feColorMatrix type="matrix" values="0 0 0 0 0 0 0 0 0 0 0 0 0 0 0 0 0 0 0.25 0"/>
<feBlend mode="normal" in2="BackgroundImageFix" result="effect1_dropShadow_33_1486"/>
<feBlend mode="normal" in="SourceGraphic" in2="effect1_dropShadow_33_1486" result="shape"/>
</filter>
<filter id="filter28_d_33_1486" x="491.572" y="488.828" width="100.99" height="57.0869" filterUnits="userSpaceOnUse" color-interpolation-filters="sRGB">
<feFlood flood-opacity="0" result="BackgroundImageFix"/>
<feColorMatrix in="SourceAlpha" type="matrix" values="0 0 0 0 0 0 0 0 0 0 0 0 0 0 0 0 0 0 127 0" result="hardAlpha"/>
<feOffset dy="1.23441"/>
<feGaussianBlur stdDeviation="0.925804"/>
<feComposite in2="hardAlpha" operator="out"/>
<feColorMatrix type="matrix" values="0 0 0 0 0 0 0 0 0 0 0 0 0 0 0 0 0 0 0.25 0"/>
<feBlend mode="normal" in2="BackgroundImageFix" result="effect1_dropShadow_33_1486"/>
<feBlend mode="normal" in="SourceGraphic" in2="effect1_dropShadow_33_1486" result="shape"/>
</filter>
<filter id="filter29_d_33_1486" x="704.068" y="359.606" width="333.578" height="384.661" filterUnits="userSpaceOnUse" color-interpolation-filters="sRGB">
<feFlood flood-opacity="0" result="BackgroundImageFix"/>
<feColorMatrix in="SourceAlpha" type="matrix" values="0 0 0 0 0 0 0 0 0 0 0 0 0 0 0 0 0 0 127 0" result="hardAlpha"/>
<feOffset dy="2.46881"/>
<feGaussianBlur stdDeviation="1.23441"/>
<feComposite in2="hardAlpha" operator="out"/>
<feColorMatrix type="matrix" values="0 0 0 0 0 0 0 0 0 0 0 0 0 0 0 0 0 0 0.25 0"/>
<feBlend mode="normal" in2="BackgroundImageFix" result="effect1_dropShadow_33_1486"/>
<feBlend mode="normal" in="SourceGraphic" in2="effect1_dropShadow_33_1486" result="shape"/>
</filter>
<filter id="filter30_d_33_1486" x="729.705" y="477.542" width="233.043" height="236.964" filterUnits="userSpaceOnUse" color-interpolation-filters="sRGB">
<feFlood flood-opacity="0" result="BackgroundImageFix"/>
<feColorMatrix in="SourceAlpha" type="matrix" values="0 0 0 0 0 0 0 0 0 0 0 0 0 0 0 0 0 0 127 0" result="hardAlpha"/>
<feOffset dy="2.46881"/>
<feGaussianBlur stdDeviation="1.23441"/>
<feComposite in2="hardAlpha" operator="out"/>
<feColorMatrix type="matrix" values="0 0 0 0 0 0 0 0 0 0 0 0 0 0 0 0 0 0 0.25 0"/>
<feBlend mode="normal" in2="BackgroundImageFix" result="effect1_dropShadow_33_1486"/>
<feBlend mode="normal" in="SourceGraphic" in2="effect1_dropShadow_33_1486" result="shape"/>
</filter>
<filter id="filter31_d_33_1486" x="871.711" y="493.201" width="95.0963" height="63.6139" filterUnits="userSpaceOnUse" color-interpolation-filters="sRGB">
<feFlood flood-opacity="0" result="BackgroundImageFix"/>
<feColorMatrix in="SourceAlpha" type="matrix" values="0 0 0 0 0 0 0 0 0 0 0 0 0 0 0 0 0 0 127 0" result="hardAlpha"/>
<feOffset dy="2.46881"/>
<feGaussianBlur stdDeviation="1.23441"/>
<feComposite in2="hardAlpha" operator="out"/>
<feColorMatrix type="matrix" values="0 0 0 0 0 0 0 0 0 0 0 0 0 0 0 0 0 0 0.25 0"/>
<feBlend mode="normal" in2="BackgroundImageFix" result="effect1_dropShadow_33_1486"/>
<feBlend mode="normal" in="SourceGraphic" in2="effect1_dropShadow_33_1486" result="shape"/>
</filter>
<filter id="filter32_d_33_1486" x="705.302" y="394.43" width="229.932" height="196.772" filterUnits="userSpaceOnUse" color-interpolation-filters="sRGB">
<feFlood flood-opacity="0" result="BackgroundImageFix"/>
<feColorMatrix in="SourceAlpha" type="matrix" values="0 0 0 0 0 0 0 0 0 0 0 0 0 0 0 0 0 0 127 0" result="hardAlpha"/>
<feOffset dy="0.617203"/>
<feGaussianBlur stdDeviation="0.617203"/>
<feComposite in2="hardAlpha" operator="out"/>
<feColorMatrix type="matrix" values="0 0 0 0 0 0 0 0 0 0 0 0 0 0 0 0 0 0 0.25 0"/>
<feBlend mode="normal" in2="BackgroundImageFix" result="effect1_dropShadow_33_1486"/>
<feBlend mode="normal" in="SourceGraphic" in2="effect1_dropShadow_33_1486" result="shape"/>
</filter>
<filter id="filter33_d_33_1486" x="751.081" y="562.398" width="58.2286" height="113.808" filterUnits="userSpaceOnUse" color-interpolation-filters="sRGB">
<feFlood flood-opacity="0" result="BackgroundImageFix"/>
<feColorMatrix in="SourceAlpha" type="matrix" values="0 0 0 0 0 0 0 0 0 0 0 0 0 0 0 0 0 0 127 0" result="hardAlpha"/>
<feOffset dy="2.46881"/>
<feGaussianBlur stdDeviation="1.23441"/>
<feComposite in2="hardAlpha" operator="out"/>
<feColorMatrix type="matrix" values="0 0 0 0 0 0 0 0 0 0 0 0 0 0 0 0 0 0 0.25 0"/>
<feBlend mode="normal" in2="BackgroundImageFix" result="effect1_dropShadow_33_1486"/>
<feBlend mode="normal" in="SourceGraphic" in2="effect1_dropShadow_33_1486" result="shape"/>
</filter>
<filter id="filter34_d_33_1486" x="829.205" y="464.793" width="120.545" height="87.213" filterUnits="userSpaceOnUse" color-interpolation-filters="sRGB">
<feFlood flood-opacity="0" result="BackgroundImageFix"/>
<feColorMatrix in="SourceAlpha" type="matrix" values="0 0 0 0 0 0 0 0 0 0 0 0 0 0 0 0 0 0 127 0" result="hardAlpha"/>
<feOffset dy="1.23441"/>
<feGaussianBlur stdDeviation="1.23441"/>
<feComposite in2="hardAlpha" operator="out"/>
<feColorMatrix type="matrix" values="0 0 0 0 0 0 0 0 0 0 0 0 0 0 0 0 0 0 0.25 0"/>
<feBlend mode="normal" in2="BackgroundImageFix" result="effect1_dropShadow_33_1486"/>
<feBlend mode="normal" in="SourceGraphic" in2="effect1_dropShadow_33_1486" result="shape"/>
</filter>
<filter id="filter35_d_33_1486" x="704.74" y="522.367" width="132.695" height="75.7859" filterUnits="userSpaceOnUse" color-interpolation-filters="sRGB">
<feFlood flood-opacity="0" result="BackgroundImageFix"/>
<feColorMatrix in="SourceAlpha" type="matrix" values="0 0 0 0 0 0 0 0 0 0 0 0 0 0 0 0 0 0 127 0" result="hardAlpha"/>
<feOffset dy="1.23441"/>
<feGaussianBlur stdDeviation="1.23441"/>
<feComposite in2="hardAlpha" operator="out"/>
<feColorMatrix type="matrix" values="0 0 0 0 0 0 0 0 0 0 0 0 0 0 0 0 0 0 0.25 0"/>
<feBlend mode="normal" in2="BackgroundImageFix" result="effect1_dropShadow_33_1486"/>
<feBlend mode="normal" in="SourceGraphic" in2="effect1_dropShadow_33_1486" result="shape"/>
</filter>
<filter id="filter36_d_33_1486" x="822.981" y="114.416" width="365.928" height="322.792" filterUnits="userSpaceOnUse" color-interpolation-filters="sRGB">
<feFlood flood-opacity="0" result="BackgroundImageFix"/>
<feColorMatrix in="SourceAlpha" type="matrix" values="0 0 0 0 0 0 0 0 0 0 0 0 0 0 0 0 0 0 127 0" result="hardAlpha"/>
<feOffset dy="2.46881"/>
<feGaussianBlur stdDeviation="1.23441"/>
<feComposite in2="hardAlpha" operator="out"/>
<feColorMatrix type="matrix" values="0 0 0 0 0 0 0 0 0 0 0 0 0 0 0 0 0 0 0.25 0"/>
<feBlend mode="normal" in2="BackgroundImageFix" result="effect1_dropShadow_33_1486"/>
<feBlend mode="normal" in="SourceGraphic" in2="effect1_dropShadow_33_1486" result="shape"/>
</filter>
<filter id="filter37_d_33_1486" x="1084.12" y="124.074" width="98.8712" height="34.8148" filterUnits="userSpaceOnUse" color-interpolation-filters="sRGB">
<feFlood flood-opacity="0" result="BackgroundImageFix"/>
<feColorMatrix in="SourceAlpha" type="matrix" values="0 0 0 0 0 0 0 0 0 0 0 0 0 0 0 0 0 0 127 0" result="hardAlpha"/>
<feOffset dy="2.46881"/>
<feGaussianBlur stdDeviation="1.23441"/>
<feComposite in2="hardAlpha" operator="out"/>
<feColorMatrix type="matrix" values="0 0 0 0 0 0 0 0 0 0 0 0 0 0 0 0 0 0 0.3 0"/>
<feBlend mode="normal" in2="BackgroundImageFix" result="effect1_dropShadow_33_1486"/>
<feBlend mode="normal" in="SourceGraphic" in2="effect1_dropShadow_33_1486" result="shape"/>
</filter>
<filter id="filter38_d_33_1486" x="1064.35" y="184.071" width="100.661" height="40.5478" filterUnits="userSpaceOnUse" color-interpolation-filters="sRGB">
<feFlood flood-opacity="0" result="BackgroundImageFix"/>
<feColorMatrix in="SourceAlpha" type="matrix" values="0 0 0 0 0 0 0 0 0 0 0 0 0 0 0 0 0 0 127 0" result="hardAlpha"/>
<feOffset dy="2.46881"/>
<feGaussianBlur stdDeviation="1.23441"/>
<feComposite in2="hardAlpha" operator="out"/>
<feColorMatrix type="matrix" values="0 0 0 0 0 0 0 0 0 0 0 0 0 0 0 0 0 0 0.3 0"/>
<feBlend mode="normal" in2="BackgroundImageFix" result="effect1_dropShadow_33_1486"/>
<feBlend mode="normal" in="SourceGraphic" in2="effect1_dropShadow_33_1486" result="shape"/>
</filter>
<filter id="filter39_d_33_1486" x="1049.78" y="234.527" width="97.2228" height="48.4302" filterUnits="userSpaceOnUse" color-interpolation-filters="sRGB">
<feFlood flood-opacity="0" result="BackgroundImageFix"/>
<feColorMatrix in="SourceAlpha" type="matrix" values="0 0 0 0 0 0 0 0 0 0 0 0 0 0 0 0 0 0 127 0" result="hardAlpha"/>
<feOffset dy="2.46881"/>
<feGaussianBlur stdDeviation="1.23441"/>
<feComposite in2="hardAlpha" operator="out"/>
<feColorMatrix type="matrix" values="0 0 0 0 0 0 0 0 0 0 0 0 0 0 0 0 0 0 0.3 0"/>
<feBlend mode="normal" in2="BackgroundImageFix" result="effect1_dropShadow_33_1486"/>
<feBlend mode="normal" in="SourceGraphic" in2="effect1_dropShadow_33_1486" result="shape"/>
</filter>
<filter id="filter40_d_33_1486" x="1020.47" y="160.23" width="43.6471" height="28.7785" filterUnits="userSpaceOnUse" color-interpolation-filters="sRGB">
<feFlood flood-opacity="0" result="BackgroundImageFix"/>
<feColorMatrix in="SourceAlpha" type="matrix" values="0 0 0 0 0 0 0 0 0 0 0 0 0 0 0 0 0 0 127 0" result="hardAlpha"/>
<feOffset dy="2.46881"/>
<feGaussianBlur stdDeviation="1.23441"/>
<feComposite in2="hardAlpha" operator="out"/>
<feColorMatrix type="matrix" values="0 0 0 0 0 0 0 0 0 0 0 0 0 0 0 0 0 0 0.3 0"/>
<feBlend mode="normal" in2="BackgroundImageFix" result="effect1_dropShadow_33_1486"/>
<feBlend mode="normal" in="SourceGraphic" in2="effect1_dropShadow_33_1486" result="shape"/>
</filter>
<filter id="filter41_d_33_1486" x="1029.35" y="127.794" width="40.7985" height="30.0901" filterUnits="userSpaceOnUse" color-interpolation-filters="sRGB">
<feFlood flood-opacity="0" result="BackgroundImageFix"/>
<feColorMatrix in="SourceAlpha" type="matrix" values="0 0 0 0 0 0 0 0 0 0 0 0 0 0 0 0 0 0 127 0" result="hardAlpha"/>
<feOffset dy="2.46881"/>
<feGaussianBlur stdDeviation="1.23441"/>
<feComposite in2="hardAlpha" operator="out"/>
<feColorMatrix type="matrix" values="0 0 0 0 0 0 0 0 0 0 0 0 0 0 0 0 0 0 0.3 0"/>
<feBlend mode="normal" in2="BackgroundImageFix" result="effect1_dropShadow_33_1486"/>
<feBlend mode="normal" in="SourceGraphic" in2="effect1_dropShadow_33_1486" result="shape"/>
</filter>
<filter id="filter42_d_33_1486" x="964.097" y="149.917" width="13.42" height="9.7157" filterUnits="userSpaceOnUse" color-interpolation-filters="sRGB">
<feFlood flood-opacity="0" result="BackgroundImageFix"/>
<feColorMatrix in="SourceAlpha" type="matrix" values="0 0 0 0 0 0 0 0 0 0 0 0 0 0 0 0 0 0 127 0" result="hardAlpha"/>
<feOffset dy="2.46881"/>
<feGaussianBlur stdDeviation="1.23441"/>
<feComposite in2="hardAlpha" operator="out"/>
<feColorMatrix type="matrix" values="0 0 0 0 0 0 0 0 0 0 0 0 0 0 0 0 0 0 0.3 0"/>
<feBlend mode="normal" in2="BackgroundImageFix" result="effect1_dropShadow_33_1486"/>
<feBlend mode="normal" in="SourceGraphic" in2="effect1_dropShadow_33_1486" result="shape"/>
</filter>
<filter id="filter43_d_33_1486" x="985.089" y="132.339" width="34.3082" height="24.4151" filterUnits="userSpaceOnUse" color-interpolation-filters="sRGB">
<feFlood flood-opacity="0" result="BackgroundImageFix"/>
<feColorMatrix in="SourceAlpha" type="matrix" values="0 0 0 0 0 0 0 0 0 0 0 0 0 0 0 0 0 0 127 0" result="hardAlpha"/>
<feOffset dy="2.46881"/>
<feGaussianBlur stdDeviation="1.23441"/>
<feComposite in2="hardAlpha" operator="out"/>
<feColorMatrix type="matrix" values="0 0 0 0 0 0 0 0 0 0 0 0 0 0 0 0 0 0 0.3 0"/>
<feBlend mode="normal" in2="BackgroundImageFix" result="effect1_dropShadow_33_1486"/>
<feBlend mode="normal" in="SourceGraphic" in2="effect1_dropShadow_33_1486" result="shape"/>
</filter>
<filter id="filter44_d_33_1486" x="1038.77" y="268.366" width="97.2521" height="98.0214" filterUnits="userSpaceOnUse" color-interpolation-filters="sRGB">
<feFlood flood-opacity="0" result="BackgroundImageFix"/>
<feColorMatrix in="SourceAlpha" type="matrix" values="0 0 0 0 0 0 0 0 0 0 0 0 0 0 0 0 0 0 127 0" result="hardAlpha"/>
<feOffset dy="2.46881"/>
<feGaussianBlur stdDeviation="1.23441"/>
<feComposite in2="hardAlpha" operator="out"/>
<feColorMatrix type="matrix" values="0 0 0 0 0 0 0 0 0 0 0 0 0 0 0 0 0 0 0.3 0"/>
<feBlend mode="normal" in2="BackgroundImageFix" result="effect1_dropShadow_33_1486"/>
<feBlend mode="normal" in="SourceGraphic" in2="effect1_dropShadow_33_1486" result="shape"/>
</filter>
<linearGradient id="paint0_linear_33_1486" x1="720" y1="0" x2="720" y2="1601.62" gradientUnits="userSpaceOnUse">
<stop stop-color="#609840"/>
<stop offset="1" stop-color="#7FB85E"/>
</linearGradient>
<linearGradient id="paint1_linear_33_1486" x1="720" y1="0" x2="720" y2="2582.5" gradientUnits="userSpaceOnUse">
<stop stop-color="#609840"/>
<stop offset="1" stop-color="#BBF998"/>
</linearGradient>
</defs>
</svg>
