<svg width="1440" height="959" viewBox="0 0 1440 959" fill="none" xmlns="http://www.w3.org/2000/svg">
<ellipse cx="720" cy="817.5" rx="1220" ry="817.5" fill="url(#paint0_linear_38_1326)"/>
<mask id="mask0_38_1326" style="mask-type:alpha" maskUnits="userSpaceOnUse" x="-500" y="0" width="2440" height="1635">
<ellipse cx="720" cy="817.5" rx="1220" ry="817.5" fill="url(#paint1_linear_38_1326)"/>
</mask>
<g mask="url(#mask0_38_1326)">
<g filter="url(#filter0_d_38_1326)">
<ellipse cx="1258.64" cy="354.695" rx="25.1606" ry="16.4878" fill="#568419"/>
<ellipse cx="1203.11" cy="461.432" rx="13.0141" ry="6.94224" fill="#568419"/>
<ellipse cx="1275.12" cy="398.951" rx="65.938" ry="43.389" fill="#568419"/>
<ellipse cx="1216.13" cy="405.026" rx="36.4394" ry="21.6945" fill="#568419"/>
<ellipse cx="1325.45" cy="432.795" rx="41.645" ry="21.6945" fill="#568419"/>
</g>
<g filter="url(#filter1_d_38_1326)">
<ellipse cx="343.694" cy="226.408" rx="25.1606" ry="16.4878" fill="#568419"/>
<ellipse cx="332.137" cy="335.601" rx="13.0141" ry="6.94224" fill="#568419"/>
<ellipse cx="396.75" cy="272.957" rx="65.938" ry="43.389" fill="#568419"/>
<ellipse cx="454.469" cy="306.964" rx="41.645" ry="21.6945" fill="#568419"/>
</g>
<g filter="url(#filter2_d_38_1326)">
<ellipse cx="25.1606" cy="16.4878" rx="25.1606" ry="16.4878" transform="matrix(-1 0 0 1 1205.19 -3.00185)" fill="#568419"/>
<ellipse cx="13.0141" cy="6.94224" rx="13.0141" ry="6.94224" transform="matrix(-1 0 0 1 1204.6 115.737)" fill="#568419"/>
<ellipse cx="65.938" cy="43.389" rx="65.938" ry="43.389" transform="matrix(-1 0 0 1 1192.91 16.6461)" fill="#568419"/>
<ellipse cx="41.645" cy="21.6945" rx="41.645" ry="21.6945" transform="matrix(-1 0 0 1 1110.9 72.3477)" fill="#568419"/>
</g>
<g filter="url(#filter3_d_38_1326)">
<ellipse cx="25.1606" cy="16.4878" rx="25.1606" ry="16.4878" transform="matrix(-0.999983 -0.00583161 -0.00582926 0.999983 199.04 341.073)" fill="#568419"/>
<ellipse cx="13.0141" cy="6.94224" rx="13.0141" ry="6.94224" transform="matrix(-0.999983 -0.00583161 -0.00582926 0.999983 241.743 457.607)" fill="#568419"/>
<ellipse cx="65.938" cy="43.389" rx="65.938" ry="43.389" transform="matrix(-0.999983 -0.00583161 -0.00582926 0.999983 223.232 358.57)" fill="#568419"/>
<ellipse cx="36.4394" cy="21.6945" rx="36.4394" ry="21.6945" transform="matrix(-0.999983 -0.00583161 -0.00582926 0.999983 252.569 386.511)" fill="#568419"/>
<ellipse cx="41.645" cy="21.6945" rx="41.645" ry="21.6945" transform="matrix(-0.999983 -0.00583161 -0.00582926 0.999983 148.295 413.672)" fill="#568419"/>
</g>
<g filter="url(#filter4_d_38_1326)">
<ellipse cx="25.1606" cy="16.4878" rx="25.1606" ry="16.4878" transform="matrix(0.999983 -0.00583161 0.00582926 0.999983 1324.7 128.151)" fill="#568419"/>
<ellipse cx="13.0141" cy="6.94224" rx="13.0141" ry="6.94224" transform="matrix(0.999983 -0.00583161 0.00582926 0.999983 1281.98 244.685)" fill="#568419"/>
<ellipse cx="65.938" cy="43.389" rx="65.938" ry="43.389" transform="matrix(0.999983 -0.00583161 0.00582926 0.999983 1300.49 145.649)" fill="#568419"/>
<ellipse cx="36.4394" cy="21.6945" rx="36.4394" ry="21.6945" transform="matrix(0.999983 -0.00583161 0.00582926 0.999983 1271.15 173.589)" fill="#568419"/>
<ellipse cx="41.645" cy="21.6945" rx="41.645" ry="21.6945" transform="matrix(0.999983 -0.00583161 0.00582926 0.999983 1375.45 200.75)" fill="#568419"/>
</g>
<g filter="url(#filter5_d_38_1326)">
<ellipse cx="19.6439" cy="15.9639" rx="19.6439" ry="15.9639" transform="matrix(0.997002 -0.0773775 0.0773465 0.997004 9.2002 655.515)" fill="#568419"/>
<ellipse cx="65.9381" cy="43.389" rx="65.9381" ry="43.389" transform="matrix(0.997002 -0.0773775 0.0773465 0.997004 -15.7832 682.252)" fill="#568419"/>
<ellipse cx="36.4395" cy="21.6945" rx="36.4395" ry="21.6945" transform="matrix(0.997002 -0.0773775 0.0773465 0.997004 -61.7744 693.047)" fill="#568419"/>
<ellipse cx="41.6451" cy="21.6945" rx="41.6451" ry="21.6945" transform="matrix(0.997002 -0.0773775 0.0773465 0.997004 62.9023 731.85)" fill="#568419"/>
</g>
<g filter="url(#filter6_d_38_1326)">
<ellipse cx="1315.03" cy="352.959" rx="13.8817" ry="11.2811" fill="#427027"/>
<ellipse cx="1268.18" cy="429.035" rx="8.67605" ry="4.62816" fill="#427027"/>
<ellipse cx="1378.07" cy="368.868" rx="7.51925" ry="4.62816" fill="#427027"/>
<ellipse cx="1287.84" cy="424.406" rx="7.51925" ry="4.62816" fill="#427027"/>
<ellipse cx="1387.91" cy="376.389" rx="4.62723" ry="2.8926" fill="#427027"/>
<ellipse cx="1316.18" cy="387.381" rx="43.9587" ry="28.926" fill="#427027"/>
<ellipse cx="1276.85" cy="391.431" rx="24.2929" ry="14.463" fill="#427027"/>
<ellipse cx="1349.73" cy="409.943" rx="27.7634" ry="14.463" fill="#427027"/>
</g>
<g filter="url(#filter7_d_38_1326)">
<ellipse cx="4.5208" cy="276.438" rx="13.5052" ry="9.82393" fill="#427027"/>
</g>
<g filter="url(#filter8_d_38_1326)">
<ellipse cx="13.8817" cy="11.2811" rx="13.8817" ry="11.2811" transform="matrix(-1 0 0 1 214.991 318.19)" fill="#427027"/>
<ellipse cx="8.67605" cy="4.62816" rx="8.67605" ry="4.62816" transform="matrix(-1 0 0 1 256.637 400.919)" fill="#427027"/>
<ellipse cx="7.51925" cy="4.62816" rx="7.51925" ry="4.62816" transform="matrix(-1 0 0 1 145.583 340.752)" fill="#427027"/>
<ellipse cx="7.51925" cy="4.62816" rx="7.51925" ry="4.62816" transform="matrix(-1 0 0 1 235.814 396.29)" fill="#427027"/>
<ellipse cx="4.62723" cy="2.8926" rx="4.62723" ry="2.8926" transform="matrix(-1 0 0 1 132.859 350.009)" fill="#427027"/>
<ellipse cx="44.1988" cy="36.8397" rx="44.1988" ry="36.8397" transform="matrix(-1 0 0 1 243.922 335.382)" fill="#427027"/>
<ellipse cx="24.2929" cy="14.463" rx="24.2929" ry="14.463" transform="matrix(-1 0 0 1 263.577 353.48)" fill="#427027"/>
<ellipse cx="27.7634" cy="14.463" rx="27.7634" ry="14.463" transform="matrix(-1 0 0 1 194.169 371.992)" fill="#427027"/>
</g>
<g filter="url(#filter9_d_38_1326)">
<ellipse cx="1322.61" cy="116.55" rx="13.8817" ry="11.2811" fill="#427027"/>
<ellipse cx="1275.76" cy="192.625" rx="8.67605" ry="4.62816" fill="#427027"/>
<ellipse cx="1385.66" cy="132.459" rx="7.51925" ry="4.62816" fill="#427027"/>
<ellipse cx="1295.43" cy="187.997" rx="7.51925" ry="4.62816" fill="#427027"/>
<ellipse cx="1395.49" cy="139.98" rx="4.62723" ry="2.8926" fill="#427027"/>
<ellipse cx="1324" cy="159.3" rx="44.1988" ry="36.8397" fill="#427027"/>
<ellipse cx="1284.44" cy="155.021" rx="24.2929" ry="14.463" fill="#427027"/>
<ellipse cx="1357.32" cy="173.534" rx="27.7634" ry="14.463" fill="#427027"/>
</g>
<g filter="url(#filter10_d_38_1326)">
<ellipse cx="13.882" cy="11.2809" rx="13.882" ry="11.2809" transform="matrix(0.939669 -0.342086 0.341964 0.939713 53.8594 695.882)" fill="#427027"/>
<ellipse cx="8.67626" cy="4.62805" rx="8.67626" ry="4.62805" transform="matrix(0.939669 -0.342086 0.341964 0.939713 43.0166 787.868)" fill="#427027"/>
<ellipse cx="7.51942" cy="4.62805" rx="7.51942" ry="4.62805" transform="matrix(0.939669 -0.342086 0.341964 0.939713 105.09 689.22)" fill="#427027"/>
<ellipse cx="7.51942" cy="4.62805" rx="7.51942" ry="4.62805" transform="matrix(0.939669 -0.342086 0.341964 0.939713 61 776.396)" fill="#427027"/>
<ellipse cx="4.62734" cy="2.89253" rx="4.62734" ry="2.89253" transform="matrix(0.939669 -0.342086 0.341964 0.939713 151.248 701.166)" fill="#427027"/>
<ellipse cx="4.62734" cy="2.89253" rx="4.62734" ry="2.89253" transform="matrix(0.939669 -0.342086 0.341964 0.939713 123.973 698.027)" fill="#427027"/>
<ellipse cx="43.9597" cy="28.9253" rx="43.9597" ry="28.9253" transform="matrix(0.939669 -0.342086 0.341964 0.939713 32.4209 721.541)" fill="#427027"/>
<ellipse cx="24.2935" cy="14.4627" rx="24.2935" ry="14.4627" transform="matrix(0.939669 -0.342086 0.341964 0.939713 20.2734 745.665)" fill="#427027"/>
<ellipse cx="27.764" cy="14.4627" rx="27.764" ry="14.4627" transform="matrix(0.939669 -0.342086 0.341964 0.939713 91.8252 739.317)" fill="#427027"/>
</g>
<g filter="url(#filter11_dd_38_1326)">
<ellipse cx="398.62" cy="520.809" rx="17.1884" ry="11.0519" fill="#427027"/>
<ellipse cx="377.83" cy="499.649" rx="8.67605" ry="4.62816" fill="#427027"/>
<ellipse cx="436.391" cy="537.93" rx="7.51925" ry="4.62816" fill="#427027"/>
<ellipse cx="365.15" cy="604.765" rx="7.51925" ry="4.62816" fill="#427027"/>
<ellipse cx="472.786" cy="563.21" rx="4.62723" ry="2.8926" fill="#427027"/>
<ellipse cx="448.231" cy="550.93" rx="4.62723" ry="2.8926" fill="#427027"/>
<ellipse cx="393.49" cy="567.74" rx="43.9587" ry="28.926" fill="#427027"/>
<ellipse cx="361.524" cy="588.075" rx="24.2929" ry="14.463" fill="#427027"/>
<ellipse cx="427.038" cy="590.302" rx="27.7634" ry="14.463" fill="#427027"/>
</g>
<ellipse cx="472.579" cy="477.845" rx="13.8817" ry="11.2811" fill="#39691E"/>
<ellipse cx="425.728" cy="553.921" rx="8.67605" ry="4.62816" fill="#39691E"/>
<ellipse cx="535.625" cy="493.755" rx="7.51925" ry="4.62816" fill="#39691E"/>
<ellipse cx="445.393" cy="549.293" rx="7.51925" ry="4.62816" fill="#39691E"/>
<ellipse cx="545.457" cy="501.275" rx="4.62723" ry="2.8926" fill="#39691E"/>
<ellipse cx="473.735" cy="512.267" rx="43.9587" ry="28.926" fill="#39691E"/>
<ellipse cx="434.405" cy="516.317" rx="24.2929" ry="14.463" fill="#39691E"/>
<ellipse cx="507.284" cy="534.83" rx="27.7634" ry="14.463" fill="#39691E"/>
<g filter="url(#filter12_d_38_1326)">
<ellipse cx="703.726" cy="-7.0967" rx="13.6408" ry="7.27656" fill="#568419"/>
</g>
<g filter="url(#filter13_d_38_1326)">
<ellipse cx="445.598" cy="7.16469" rx="26.3722" ry="17.2818" fill="#568419"/>
<ellipse cx="433.485" cy="121.616" rx="13.6408" ry="7.27656" fill="#568419"/>
<ellipse cx="501.207" cy="55.9555" rx="69.1134" ry="45.4785" fill="#568419"/>
<ellipse cx="561.708" cy="91.6002" rx="43.6505" ry="22.7392" fill="#568419"/>
</g>
<g filter="url(#filter14_d_38_1326)">
<ellipse cx="26.3722" cy="17.2818" rx="26.3722" ry="17.2818" transform="matrix(-0.999983 -0.00583161 -0.00582926 0.999983 845.76 85.9469)" fill="#568419"/>
<ellipse cx="13.6408" cy="7.27656" rx="13.6408" ry="7.27656" transform="matrix(-0.999983 -0.00583161 -0.00582926 0.999983 890.518 208.093)" fill="#568419"/>
<ellipse cx="69.1134" cy="45.4785" rx="69.1134" ry="45.4785" transform="matrix(-0.999983 -0.00583161 -0.00582926 0.999983 871.116 104.287)" fill="#568419"/>
<ellipse cx="38.1942" cy="22.7392" rx="38.1942" ry="22.7392" transform="matrix(-0.999983 -0.00583161 -0.00582926 0.999983 901.865 133.573)" fill="#568419"/>
<ellipse cx="43.6505" cy="22.7392" rx="43.6505" ry="22.7392" transform="matrix(-0.999983 -0.00583161 -0.00582926 0.999983 792.571 162.042)" fill="#568419"/>
</g>
<g filter="url(#filter15_d_38_1326)">
<ellipse cx="20.5899" cy="16.7326" rx="20.5899" ry="16.7326" transform="matrix(0.997002 -0.0773775 0.0773465 0.997004 646.76 415.531)" fill="#568419"/>
<ellipse cx="13.6408" cy="7.27655" rx="13.6408" ry="7.27655" transform="matrix(0.997002 -0.0773775 0.0773465 0.997004 608.646 548.485)" fill="#568419"/>
<ellipse cx="69.1134" cy="45.4784" rx="69.1134" ry="45.4784" transform="matrix(0.997002 -0.0773775 0.0773465 0.997004 620.573 443.556)" fill="#568419"/>
<ellipse cx="38.1943" cy="22.7392" rx="38.1943" ry="22.7392" transform="matrix(0.997002 -0.0773775 0.0773465 0.997004 572.367 454.871)" fill="#568419"/>
<ellipse cx="43.6506" cy="22.7392" rx="43.6506" ry="22.7392" transform="matrix(0.997002 -0.0773775 0.0773465 0.997004 703.047 495.543)" fill="#568419"/>
</g>
<g filter="url(#filter16_d_38_1326)">
<ellipse cx="550.795" cy="7.91968" rx="14.5502" ry="11.8244" fill="#427027"/>
<ellipse cx="501.689" cy="87.659" rx="9.09386" ry="4.85104" fill="#427027"/>
<ellipse cx="641.854" cy="18.1997" rx="14.1555" ry="10.297" fill="#427027"/>
<ellipse cx="522.301" cy="82.8076" rx="7.88135" ry="4.85104" fill="#427027"/>
<ellipse cx="619.977" cy="33.6455" rx="7.72121" ry="5.14851" fill="#427027"/>
<ellipse cx="567.216" cy="28.4969" rx="27.0242" ry="15.4455" fill="#427027"/>
<ellipse cx="510.783" cy="48.2445" rx="25.4628" ry="15.1595" fill="#427027"/>
<ellipse cx="592.455" cy="71.9732" rx="29.1004" ry="15.1595" fill="#427027"/>
</g>
<g filter="url(#filter17_d_38_1326)">
<ellipse cx="14.5502" cy="11.8244" rx="14.5502" ry="11.8244" transform="matrix(-1 0 0 1 862.479 61.9622)" fill="#427027"/>
<ellipse cx="9.09386" cy="4.85104" rx="9.09386" ry="4.85104" transform="matrix(-1 0 0 1 906.13 148.675)" fill="#427027"/>
<ellipse cx="7.88135" cy="4.85104" rx="7.88135" ry="4.85104" transform="matrix(-1 0 0 1 789.729 85.6109)" fill="#427027"/>
<ellipse cx="7.88135" cy="4.85104" rx="7.88135" ry="4.85104" transform="matrix(-1 0 0 1 884.304 143.824)" fill="#427027"/>
<ellipse cx="4.85006" cy="3.0319" rx="4.85006" ry="3.0319" transform="matrix(-1 0 0 1 776.391 95.313)" fill="#427027"/>
<ellipse cx="46.3272" cy="38.6138" rx="46.3272" ry="38.6138" transform="matrix(-1 0 0 1 892.804 79.982)" fill="#427027"/>
<ellipse cx="25.4628" cy="15.1595" rx="25.4628" ry="15.1595" transform="matrix(-1 0 0 1 913.405 98.9512)" fill="#427027"/>
<ellipse cx="29.1004" cy="15.1595" rx="29.1004" ry="15.1595" transform="matrix(-1 0 0 1 840.654 118.356)" fill="#427027"/>
</g>
<g filter="url(#filter18_d_38_1326)">
<ellipse cx="14.5505" cy="11.8241" rx="14.5505" ry="11.8241" transform="matrix(0.939669 -0.342086 0.341964 0.939713 693.571 457.843)" fill="#427027"/>
<ellipse cx="9.09408" cy="4.85093" rx="9.09408" ry="4.85093" transform="matrix(0.939669 -0.342086 0.341964 0.939713 682.205 554.258)" fill="#427027"/>
<ellipse cx="7.88153" cy="4.85093" rx="7.88153" ry="4.85093" transform="matrix(0.939669 -0.342086 0.341964 0.939713 747.269 450.86)" fill="#427027"/>
<ellipse cx="7.88153" cy="4.85093" rx="7.88153" ry="4.85093" transform="matrix(0.939669 -0.342086 0.341964 0.939713 701.055 542.234)" fill="#427027"/>
<ellipse cx="4.85018" cy="3.03183" rx="4.85018" ry="3.03183" transform="matrix(0.939669 -0.342086 0.341964 0.939713 795.648 463.381)" fill="#427027"/>
<ellipse cx="4.85018" cy="3.03183" rx="4.85018" ry="3.03183" transform="matrix(0.939669 -0.342086 0.341964 0.939713 767.062 460.091)" fill="#427027"/>
<ellipse cx="46.0767" cy="30.3183" rx="46.0767" ry="30.3183" transform="matrix(0.939669 -0.342086 0.341964 0.939713 671.099 484.738)" fill="#427027"/>
<ellipse cx="25.4634" cy="15.1591" rx="25.4634" ry="15.1591" transform="matrix(0.939669 -0.342086 0.341964 0.939713 658.365 510.023)" fill="#427027"/>
<ellipse cx="29.101" cy="15.1591" rx="29.101" ry="15.1591" transform="matrix(0.939669 -0.342086 0.341964 0.939713 733.364 503.369)" fill="#427027"/>
</g>
<g filter="url(#filter19_dd_38_1326)">
<ellipse cx="1054.95" cy="274.338" rx="18.0161" ry="11.5841" fill="#427027"/>
<ellipse cx="1033.16" cy="252.16" rx="9.09386" ry="4.85104" fill="#427027"/>
<ellipse cx="1094.54" cy="292.284" rx="7.88135" ry="4.85104" fill="#427027"/>
<ellipse cx="1019.87" cy="362.338" rx="7.88135" ry="4.85104" fill="#427027"/>
<ellipse cx="1132.69" cy="318.782" rx="4.85006" ry="3.0319" fill="#427027"/>
<ellipse cx="1106.95" cy="305.91" rx="4.85006" ry="3.0319" fill="#427027"/>
<ellipse cx="1049.57" cy="323.53" rx="46.0756" ry="30.319" fill="#427027"/>
<ellipse cx="1016.07" cy="344.844" rx="25.4628" ry="15.1595" fill="#427027"/>
<ellipse cx="1084.74" cy="347.179" rx="29.1004" ry="15.1595" fill="#427027"/>
</g>
<g filter="url(#filter20_dd_38_1326)">
<ellipse cx="18.0161" cy="11.5841" rx="18.0161" ry="11.5841" transform="matrix(-1 0 0 1 254.01 154.339)" fill="#427027"/>
<ellipse cx="9.09386" cy="4.85104" rx="9.09386" ry="4.85104" transform="matrix(-1 0 0 1 266.88 138.893)" fill="#427027"/>
<ellipse cx="7.88135" cy="4.85104" rx="7.88135" ry="4.85104" transform="matrix(-1 0 0 1 204.287 179.018)" fill="#427027"/>
<ellipse cx="7.88135" cy="4.85104" rx="7.88135" ry="4.85104" transform="matrix(-1 0 0 1 278.959 249.072)" fill="#427027"/>
<ellipse cx="4.85006" cy="3.0319" rx="4.85006" ry="3.0319" transform="matrix(-1 0 0 1 163.106 207.335)" fill="#427027"/>
<ellipse cx="4.85006" cy="3.0319" rx="4.85006" ry="3.0319" transform="matrix(-1 0 0 1 188.845 194.463)" fill="#427027"/>
<ellipse cx="46.0756" cy="30.319" rx="46.0756" ry="30.319" transform="matrix(-1 0 0 1 287.446 184.795)" fill="#427027"/>
<ellipse cx="25.4628" cy="15.1595" rx="25.4628" ry="15.1595" transform="matrix(-1 0 0 1 300.339 221.27)" fill="#427027"/>
<ellipse cx="29.1004" cy="15.1595" rx="29.1004" ry="15.1595" transform="matrix(-1 0 0 1 235.309 223.604)" fill="#427027"/>
</g>
<ellipse cx="1132.47" cy="229.306" rx="14.5502" ry="11.8244" fill="#39691E"/>
<ellipse cx="1083.36" cy="309.045" rx="9.09386" ry="4.85104" fill="#39691E"/>
<ellipse cx="1198.55" cy="245.981" rx="7.88135" ry="4.85104" fill="#39691E"/>
<ellipse cx="1103.98" cy="304.194" rx="7.88135" ry="4.85104" fill="#39691E"/>
<ellipse cx="1208.86" cy="253.864" rx="4.85006" ry="3.0319" fill="#39691E"/>
<ellipse cx="1133.68" cy="265.386" rx="46.0756" ry="30.319" fill="#39691E"/>
<ellipse cx="1092.46" cy="269.63" rx="25.4628" ry="15.1595" fill="#39691E"/>
<ellipse cx="1168.85" cy="289.035" rx="29.1004" ry="15.1595" fill="#39691E"/>
<ellipse cx="14.5502" cy="11.8244" rx="14.5502" ry="11.8244" transform="matrix(-1 0 0 1 173.023 109.067)" fill="#39691E"/>
<ellipse cx="9.09386" cy="4.85104" rx="9.09386" ry="4.85104" transform="matrix(-1 0 0 1 216.675 195.779)" fill="#39691E"/>
<ellipse cx="7.88135" cy="4.85104" rx="7.88135" ry="4.85104" transform="matrix(-1 0 0 1 100.273 132.715)" fill="#39691E"/>
<ellipse cx="7.88135" cy="4.85104" rx="7.88135" ry="4.85104" transform="matrix(-1 0 0 1 194.85 190.928)" fill="#39691E"/>
<ellipse cx="4.85006" cy="3.0319" rx="4.85006" ry="3.0319" transform="matrix(-1 0 0 1 86.9355 142.417)" fill="#39691E"/>
<ellipse cx="46.0756" cy="30.319" rx="46.0756" ry="30.319" transform="matrix(-1 0 0 1 203.338 126.652)" fill="#39691E"/>
<ellipse cx="25.4628" cy="15.1595" rx="25.4628" ry="15.1595" transform="matrix(-1 0 0 1 223.95 146.056)" fill="#39691E"/>
<ellipse cx="29.1004" cy="15.1595" rx="29.1004" ry="15.1595" transform="matrix(-1 0 0 1 151.198 165.46)" fill="#39691E"/>
<g filter="url(#filter21_d_38_1326)">
<ellipse cx="13.6429" cy="7.27544" rx="13.6429" ry="7.27544" transform="matrix(-0.490843 -0.871248 0.871163 -0.490994 13.0898 378.324)" fill="#568419"/>
</g>
<path d="M503.578 333.177C511.787 328.977 523.473 327.998 523.473 327.998C523.473 327.998 513.984 332.95 506.746 336.863C499.356 340.858 492.16 353.635 492.16 353.635C492.16 353.635 494.988 337.572 503.578 333.177Z" fill="#416D28"/>
<path d="M709.641 70.6289C712.013 58.9154 724.37 46.5167 724.37 46.5167C724.37 46.5167 719.841 58.9697 716.659 72.5422C713.788 84.7874 712.63 105.57 712.63 105.57C712.63 105.57 706.773 84.7867 709.641 70.6289Z" fill="#416D28"/>
<path d="M950.96 365.983C953.677 356.783 964.425 347.734 964.425 347.734C964.425 347.734 959.932 357.375 956.438 368.005C953.285 377.595 950.905 394.133 950.905 394.133C950.905 394.133 947.676 377.104 950.96 365.983Z" fill="#416D28"/>
<path d="M488.243 330.99C491.676 321.853 504.986 314.24 504.986 314.24C504.986 314.24 495.718 324.467 492.809 332.655C489.995 340.573 488.283 354.419 488.283 354.419C488.283 354.419 484.848 340.024 488.243 330.99Z" fill="#416D28"/>
<path d="M698.815 87.2351C690.817 75.0093 668.89 68.2347 668.89 68.2347C668.89 68.2347 685.766 80.1477 692.689 91.1591C699.384 101.806 706.404 121.473 706.404 121.473C706.404 121.473 706.722 99.323 698.815 87.2351Z" fill="#416D28"/>
<path d="M941.141 378.505C935.601 368.168 918.542 361.216 918.542 361.216C918.542 361.216 931.203 371.924 935.968 381.213C940.576 390.196 944.814 406.414 944.814 406.414C944.814 406.414 946.618 388.724 941.141 378.505Z" fill="#416D28"/>
<path d="M470.868 340.113C466.145 335.627 458.992 333.6 458.992 333.6C458.992 333.6 464.48 338.374 468.612 342.443C472.607 346.377 477.667 354.191 477.667 354.191C477.667 354.191 475.536 344.547 470.868 340.113Z" fill="#416D28"/>
<path d="M729.598 91.959C736.389 85.8192 747.155 86.4817 747.155 86.4817C747.155 86.4817 738.935 88.6294 732.999 94.2048C727.26 99.5956 720.133 111.559 720.133 111.559C720.133 111.559 722.884 98.0295 729.598 91.959Z" fill="#416D28"/>
<path d="M965.44 386.427C968.27 379.644 964.891 371.671 964.891 371.671C964.891 371.671 965.463 378.468 962.831 384.452C960.286 390.238 953.138 398.831 953.138 398.831C953.138 398.831 962.641 393.132 965.44 386.427Z" fill="#416D28"/>
<g filter="url(#filter22_d_38_1326)">
<path d="M988.258 228.794C988.997 226.519 992.216 226.519 992.955 228.794L1000.33 251.491H1024.19C1026.58 251.491 1027.58 254.551 1025.64 255.957L1006.34 269.985L1013.71 292.683C1014.45 294.958 1011.84 296.849 1009.91 295.443L990.607 281.416L971.303 295.443C969.368 296.849 966.765 294.958 967.504 292.683L974.877 269.985L955.572 255.957C953.638 254.551 954.632 251.491 957.024 251.491H980.885L988.258 228.794Z" fill="#EAE7E4"/>
<ellipse cx="990.449" cy="264.874" rx="6.83668" ry="6.83806" fill="#EFBA35"/>
</g>
<g filter="url(#filter23_d_38_1326)">
<path d="M151.778 164.324C151.039 162.049 147.821 162.049 147.082 164.324L139.708 187.021H115.847C113.455 187.021 112.461 190.081 114.396 191.487L133.7 205.515L126.327 228.213C125.588 230.488 128.191 232.379 130.126 230.973L149.43 216.946L168.733 230.973C170.668 232.379 173.271 230.488 172.532 228.213L165.159 205.515L184.464 191.487C186.398 190.081 185.404 187.021 183.012 187.021H159.151L151.778 164.324Z" fill="#EAE7E4"/>
<ellipse cx="6.83668" cy="6.83806" rx="6.83668" ry="6.83806" transform="matrix(-1 0 0 1 156.424 193.566)" fill="#EFBA35"/>
</g>
<g filter="url(#filter24_d_38_1326)">
<path d="M658.952 110.378C659.691 108.104 662.909 108.104 663.648 110.378L671.66 135.042H697.589C699.98 135.042 700.975 138.102 699.04 139.508L678.063 154.752L686.075 179.416C686.814 181.691 684.211 183.582 682.276 182.176L661.3 166.933L640.324 182.176C638.389 183.582 635.786 181.691 636.525 179.416L644.537 154.752L623.56 139.508C621.625 138.102 622.62 135.042 625.011 135.042H650.94L658.952 110.378Z" fill="#EAE7E4"/>
<ellipse cx="661.13" cy="149.304" rx="7.28596" ry="7.28743" fill="#EFBA35"/>
</g>
<g filter="url(#filter25_d_38_1326)">
<ellipse cx="503.44" cy="-4.02505" rx="5.02551" ry="5.02653" fill="#EFBA35"/>
</g>
<g filter="url(#filter26_d_38_1326)">
<path d="M969.628 280.279C970.367 278.005 973.586 278.005 974.325 280.279L979.122 295.049H994.65C997.041 295.049 998.036 298.109 996.101 299.515L983.539 308.644L988.337 323.414C989.076 325.689 986.472 327.58 984.538 326.174L971.977 317.046L959.415 326.174C957.481 327.58 954.877 325.689 955.616 323.414L960.414 308.644L947.852 299.515C945.917 298.109 946.912 295.049 949.303 295.049H964.831L969.628 280.279Z" fill="#EAE7E4"/>
<ellipse cx="971.86" cy="304.886" rx="5.02551" ry="5.02653" fill="#EFBA35"/>
</g>
<g filter="url(#filter27_d_38_1326)">
<path d="M170.408 215.809C169.669 213.535 166.451 213.535 165.712 215.809L160.914 230.579H145.386C142.995 230.579 142 233.639 143.935 235.045L156.497 244.174L151.699 258.944C150.96 261.219 153.564 263.11 155.498 261.704L168.06 252.576L180.621 261.704C182.555 263.11 185.159 261.219 184.42 258.944L179.622 244.174L192.184 235.045C194.119 233.639 193.125 230.579 190.733 230.579H175.205L170.408 215.809Z" fill="#EAE7E4"/>
<ellipse cx="5.02551" cy="5.02653" rx="5.02551" ry="5.02653" transform="matrix(-1 0 0 1 173.202 235.39)" fill="#EFBA35"/>
</g>
<g filter="url(#filter28_d_38_1326)">
<path d="M431.716 257.111C432.455 254.836 435.673 254.836 436.412 257.111L441.21 271.88H456.738C459.129 271.88 460.124 274.94 458.189 276.346L445.627 285.475L450.425 300.245C451.164 302.52 448.56 304.411 446.626 303.005L434.064 293.877L421.503 303.005C419.569 304.411 416.965 302.52 417.704 300.245L422.502 285.475L409.94 276.346C408.005 274.94 408.999 271.88 411.391 271.88H426.919L431.716 257.111Z" fill="#EAE7E4"/>
<ellipse cx="433.948" cy="281.717" rx="5.02551" ry="5.02653" fill="#EFBA35"/>
</g>
<g filter="url(#filter29_d_38_1326)">
<path d="M625.376 431.678C626.143 429.463 629.276 429.463 630.043 431.678L638.038 454.796H663.467C665.895 454.796 666.864 457.935 664.858 459.304L644.422 473.252L652.311 496.062C653.088 498.31 650.55 500.249 648.586 498.908L627.71 484.659L606.833 498.908C604.869 500.249 602.331 498.31 603.108 496.062L610.997 473.252L590.561 459.304C588.555 457.935 589.524 454.796 591.952 454.796H617.381L625.376 431.678Z" fill="#EAE7E4"/>
<ellipse cx="627.541" cy="468.151" rx="7.26397" ry="6.82402" fill="#EFBA35"/>
</g>
<g filter="url(#filter30_d_38_1326)">
<path d="M1241.85 107.098C1241.09 104.882 1237.95 104.882 1237.19 107.098L1229.19 130.215H1203.76C1201.33 130.215 1200.37 133.354 1202.37 134.723L1222.81 148.672L1214.92 171.482C1214.14 173.729 1216.68 175.669 1218.64 174.328L1239.52 160.079L1260.4 174.328C1262.36 175.669 1264.9 173.729 1264.12 171.482L1256.23 148.672L1276.67 134.723C1278.67 133.354 1277.71 130.215 1275.28 130.215H1249.85L1241.85 107.098Z" fill="#EAE7E4"/>
<ellipse cx="7.26397" cy="6.82402" rx="7.26397" ry="6.82402" transform="matrix(-1 0 0 1 1246.95 136.747)" fill="#EFBA35"/>
</g>
<g filter="url(#filter31_d_38_1326)">
<path d="M665.927 421.864C666.666 419.589 669.884 419.589 670.623 421.864L675.421 436.633H690.949C693.34 436.633 694.335 439.693 692.4 441.099L679.838 450.228L684.636 464.998C685.375 467.273 682.771 469.164 680.836 467.758L668.275 458.63L655.714 467.758C653.779 469.164 651.176 467.273 651.915 464.998L656.713 450.228L644.151 441.099C642.216 439.693 643.21 436.633 645.602 436.633H661.129L665.927 421.864Z" fill="#EAE7E4"/>
<ellipse cx="668.158" cy="446.471" rx="5.02551" ry="5.02653" fill="#EFBA35"/>
</g>
<g filter="url(#filter32_d_38_1326)">
<path d="M1201.3 97.283C1200.56 95.0083 1197.35 95.0083 1196.61 97.283L1191.81 112.052H1176.28C1173.89 112.052 1172.89 115.112 1174.83 116.518L1187.39 125.647L1182.59 140.418C1181.85 142.692 1184.46 144.584 1186.39 143.178L1198.95 134.05L1211.52 143.178C1213.45 144.584 1216.05 142.692 1215.31 140.418L1210.52 125.647L1223.08 116.518C1225.01 115.112 1224.02 112.052 1221.63 112.052H1206.1L1201.3 97.283Z" fill="#EAE7E4"/>
<ellipse cx="5.02551" cy="5.02653" rx="5.02551" ry="5.02653" transform="matrix(-1 0 0 1 1204.1 116.864)" fill="#EFBA35"/>
</g>
<g filter="url(#filter33_d_38_1326)">
<path d="M292.368 86.5571C290.036 86.7973 288.714 83.9567 290.399 82.3266L307.979 65.3188L297.247 42.2624C296.222 40.0603 298.659 37.8568 300.747 39.0979L322.014 51.7409L339.358 34.9608C341.068 33.3071 343.897 34.789 343.511 37.1359L339.406 62.0807L361.133 74.9974C363.177 76.2126 362.49 79.332 360.124 79.5757L336.12 82.049L332.103 106.465C331.709 108.862 328.454 109.309 327.429 107.107L316.697 84.0502L292.368 86.5571Z" fill="#EAE7E4"/>
<ellipse cx="7.26518" cy="6.82289" rx="7.26518" ry="6.82289" transform="matrix(-0.421979 -0.906606 0.90654 -0.422119 321.396 78.6673)" fill="#EFBA35"/>
</g>
<g filter="url(#filter34_d_38_1326)">
<path d="M1235.87 435.178C1236.64 432.834 1239.95 432.834 1240.71 435.178L1248.31 458.567H1272.9C1275.37 458.567 1276.39 461.721 1274.4 463.17L1254.5 477.626L1262.1 501.017C1262.86 503.361 1260.18 505.31 1258.19 503.861L1238.29 489.405L1218.4 503.861C1216.41 505.31 1213.72 503.361 1214.49 501.017L1222.08 477.626L1202.19 463.17C1200.2 461.721 1201.22 458.567 1203.69 458.567H1228.28L1235.87 435.178Z" fill="#EAE7E4"/>
<ellipse cx="1238.13" cy="472.359" rx="7.04528" ry="7.0467" fill="#EFBA35"/>
</g>
<g filter="url(#filter35_d_38_1326)">
<path d="M1216.67 488.234C1217.44 485.89 1220.75 485.89 1221.51 488.234L1226.46 503.454H1242.46C1244.92 503.454 1245.95 506.608 1243.96 508.056L1231.01 517.464L1235.95 532.685C1236.72 535.029 1234.03 536.978 1232.04 535.529L1219.09 526.122L1206.15 535.529C1204.16 536.978 1201.47 535.029 1202.23 532.685L1207.18 517.464L1194.23 508.056C1192.24 506.608 1193.26 503.454 1195.73 503.454H1211.73L1216.67 488.234Z" fill="#EAE7E4"/>
<ellipse cx="1218.98" cy="513.592" rx="5.17885" ry="5.1799" fill="#EFBA35"/>
</g>
<g filter="url(#filter36_d_38_1326)">
<path d="M662.352 464.359C663.113 462.014 666.429 462.014 667.191 464.359L672.135 479.578H688.137C690.601 479.578 691.626 482.732 689.632 484.181L676.686 493.588L681.631 508.809C682.392 511.153 679.709 513.102 677.716 511.653L664.771 502.247L651.827 511.653C649.833 513.102 647.15 511.153 647.912 508.809L652.856 493.588L639.91 484.181C637.917 482.732 638.941 479.578 641.406 479.578H657.407L662.352 464.359Z" fill="#EAE7E4"/>
<ellipse cx="664.651" cy="489.716" rx="5.17885" ry="5.1799" fill="#EFBA35"/>
</g>
<g filter="url(#filter37_d_38_1326)">
<path d="M1204.88 139.778C1204.12 137.434 1200.8 137.434 1200.04 139.778L1195.09 154.998H1179.09C1176.63 154.998 1175.6 158.151 1177.6 159.6L1190.54 169.008L1185.6 184.229C1184.84 186.573 1187.52 188.522 1189.51 187.073L1202.46 177.666L1215.4 187.073C1217.4 188.522 1220.08 186.573 1219.32 184.229L1214.37 169.008L1227.32 159.6C1229.31 158.151 1228.29 154.998 1225.82 154.998H1209.82L1204.88 139.778Z" fill="#EAE7E4"/>
<ellipse cx="5.17885" cy="5.1799" rx="5.17885" ry="5.1799" transform="matrix(-1 0 0 1 1207.76 159.956)" fill="#EFBA35"/>
</g>
<g filter="url(#filter38_d_38_1326)">
<path d="M861.919 644.253C862.709 641.969 865.939 641.969 866.728 644.253L874.968 668.076H901.172C903.675 668.076 904.673 671.31 902.606 672.721L881.546 687.096L889.676 710.601C890.477 712.918 887.862 714.916 885.837 713.534L864.324 698.85L842.81 713.534C840.786 714.916 838.171 712.918 838.972 710.601L847.102 687.096L826.042 672.721C823.974 671.31 824.973 668.076 827.476 668.076H853.68L861.919 644.253Z" fill="#EAE7E4"/>
<ellipse cx="864.151" cy="681.839" rx="7.48561" ry="7.03224" fill="#EFBA35"/>
</g>
<g filter="url(#filter39_d_38_1326)">
<path d="M903.708 634.138C904.47 631.794 907.786 631.794 908.547 634.138L913.492 649.358H929.493C931.957 649.358 932.982 652.512 930.989 653.961L918.043 663.368L922.987 678.589C923.749 680.933 921.066 682.882 919.072 681.433L906.128 672.027L893.183 681.433C891.189 682.882 888.507 680.933 889.268 678.589L894.213 663.368L881.267 653.961C879.273 652.512 880.298 649.358 882.762 649.358H898.764L903.708 634.138Z" fill="#EAE7E4"/>
<ellipse cx="906.007" cy="659.496" rx="5.17885" ry="5.1799" fill="#EFBA35"/>
</g>
<g filter="url(#filter40_d_38_1326)">
<path d="M446.556 173.907C440.134 186.873 423.309 191.629 408.975 184.529C394.642 177.43 388.228 161.164 394.65 148.198C401.072 135.232 405.359 125.752 419.693 132.852C434.026 139.951 416.657 151.83 446.556 173.907Z" fill="#FEF27A"/>
<path d="M489.599 210.322C477.876 218.803 475.974 236.185 485.35 249.144C494.726 262.103 511.83 265.733 523.552 257.251C535.275 248.77 543.913 242.972 534.537 230.013C525.161 217.054 516.324 236.15 489.599 210.322Z" fill="#C5263A"/>
<ellipse cx="502.673" cy="152.49" rx="59.9573" ry="48.2707" transform="rotate(40.2318 502.673 152.49)" fill="#FFD13B"/>
<ellipse cx="456.966" cy="206.048" rx="52.5897" ry="47.6356" transform="rotate(40.2318 456.966 206.048)" fill="#FFD13B"/>
<circle cx="454.922" cy="208.931" r="18.038" transform="rotate(40.2318 454.922 208.931)" fill="#F8931F"/>
<path d="M472.416 125.469C471.48 140.906 474.497 146.078 457.831 145.064C441.165 144.051 428.414 130.716 429.35 115.279C430.286 99.8419 430.435 80.8839 447.101 81.8971C460.043 108.602 473.352 110.032 472.416 125.469Z" fill="#FFD13B"/>
<path d="M496.779 112.506C491.8 127.148 493.345 132.932 477.537 127.555C461.73 122.178 452.951 105.95 457.929 91.3085C462.908 76.6671 468.057 58.4217 483.865 63.7989C489.297 92.9723 501.758 97.8648 496.779 112.506Z" fill="#FFD13B"/>
<path d="M524.603 111.27C516.436 124.402 516.629 130.386 502.451 121.567C488.272 112.748 483.399 94.953 491.566 81.821C499.733 68.6891 508.883 52.0856 523.061 60.9047C521.742 90.5492 532.77 98.1378 524.603 111.27Z" fill="#FFD13B"/>
<path d="M546.165 131.373C533.387 140.083 531.145 145.635 521.74 131.838C512.335 118.042 515.069 99.7964 527.848 91.0867C540.627 82.3769 555.707 70.8889 565.112 84.6857C551.923 111.266 558.944 122.664 546.165 131.373Z" fill="#FFD13B"/>
<path d="M534.083 178.148C519.014 181.629 513.414 179.51 517.174 195.778C520.935 212.046 536.198 222.412 551.267 218.931C566.335 215.45 585.007 212.162 581.246 195.895C552.766 187.556 549.151 174.667 534.083 178.148Z" fill="#FFD13B"/>
<path d="M542.83 151.974C529.215 159.31 523.255 158.745 531.176 173.443C539.098 188.142 556.557 194.11 570.171 186.775C583.785 179.439 600.925 171.339 593.003 156.64C563.333 156.116 556.444 144.638 542.83 151.974Z" fill="#FFD13B"/>
<path d="M539.44 124.331C527.843 134.561 521.909 135.361 532.956 147.883C544.002 160.404 562.358 162.262 573.955 152.032C585.553 141.802 600.411 130.028 589.365 117.507C560.348 123.719 551.038 114.101 539.44 124.331Z" fill="#FFD13B"/>
<path d="M516.042 106.396C509.57 120.441 504.466 123.571 519.63 130.561C534.794 137.55 552.334 131.83 558.807 117.785C565.279 103.74 574.11 86.965 558.945 79.9755C534.918 97.3861 522.514 92.3507 516.042 106.396Z" fill="#FFD13B"/>
<ellipse cx="409.668" cy="227.217" rx="16.1326" ry="10.6704" transform="rotate(40.2318 409.668 227.217)" fill="#0BB756"/>
<ellipse cx="447.938" cy="260.26" rx="16.1326" ry="10.6704" transform="rotate(40.2318 447.938 260.26)" fill="#06A7E2"/>
<path d="M477.511 181.785L471.674 195.816L465.08 190.237L477.511 181.785Z" fill="#F8931F"/>
<path d="M489.912 217.727L474.721 218.142L477.114 209.842L489.912 217.727Z" fill="#F8931F"/>
<path d="M447.715 244.932L447.3 229.741L455.599 232.133L447.715 244.932Z" fill="#F8931F"/>
<path d="M419.847 202.175L435.038 201.759L432.645 210.059L419.847 202.175Z" fill="#F8931F"/>
<path d="M462.396 172.68L462.812 187.871L454.512 185.478L462.396 172.68Z" fill="#F8931F"/>
<path d="M489.168 198.69L476.3 206.773L474.139 198.41L489.168 198.69Z" fill="#F8931F"/>
<path d="M465.42 243.727L457.337 230.859L465.7 228.698L465.42 243.727Z" fill="#F8931F"/>
<path d="M421.005 219.839L433.872 211.755L436.034 220.119L421.005 219.839Z" fill="#F8931F"/>
<path d="M443.66 174.712L451.744 187.58L443.381 189.742L443.66 174.712Z" fill="#F8931F"/>
<path d="M482.261 231.684L468.23 225.848L473.809 219.254L482.261 231.684Z" fill="#F8931F"/>
<path d="M433.11 236.734L438.946 222.703L445.541 228.282L433.11 236.734Z" fill="#F8931F"/>
<path d="M427.584 186.179L441.615 192.015L436.035 198.609L427.584 186.179Z" fill="#F8931F"/>
<path d="M522.126 141.493C507.671 158.578 510.066 170.225 498.176 160.166C486.285 150.106 500.793 147.435 515.248 130.349C529.702 113.264 529.933 98.5138 541.824 108.573C553.714 118.632 536.581 124.407 522.126 141.493Z" fill="#6A92F7"/>
<circle cx="497.094" cy="161.248" r="15.6245" transform="rotate(40.2318 497.094 161.248)" fill="#FD4F00"/>
<path d="M487.37 136.878C485.052 139.942 480.589 140.473 477.402 138.062C474.216 135.651 473.513 131.212 475.832 128.148C478.15 125.083 477.452 131.219 480.638 133.63C483.824 136.041 489.689 133.813 487.37 136.878Z" fill="#3D1B11"/>
<path d="M533.881 173.675C531.562 176.739 527.101 177.271 523.917 174.862C520.733 172.453 520.032 168.016 522.351 164.951C524.67 161.886 523.762 168.525 526.946 170.934C530.13 173.343 536.2 170.61 533.881 173.675Z" fill="#3D1B11"/>
<ellipse cx="489.369" cy="116.468" rx="6.22438" ry="1.7784" transform="rotate(31.3091 489.369 116.468)" fill="#FFA409"/>
<ellipse cx="6.22439" cy="1.7784" rx="6.22439" ry="1.7784" transform="matrix(0.673216 0.739446 0.739446 -0.673216 533.573 155.298)" fill="#FFA409"/>
</g>
<g filter="url(#filter41_d_38_1326)">
<path d="M673.793 381.764C670.67 422.229 635.219 413.432 626.833 409.342C618.446 405.252 631.227 400.332 633.626 395.413C636.024 390.495 636.505 367.676 644.892 371.766C653.278 375.857 675.121 364.558 673.793 381.764Z" fill="#5E5F82"/>
<ellipse cx="14.7854" cy="8.67114" rx="14.7854" ry="8.67114" transform="matrix(-0.594616 -0.80401 -0.80401 0.594616 661.93 377.191)" fill="#8585A3"/>
<path d="M641.846 392.363C635.202 414.962 609.034 421.153 577.964 412.019C546.893 402.885 535.257 382.918 541.901 360.319C548.545 337.719 572.331 316.357 603.401 325.49C634.471 334.624 648.49 369.763 641.846 392.363Z" fill="#8585A3"/>
<path d="M602.779 249.782C605.323 260.991 600.232 271.182 587.06 274.171C573.888 277.161 561.148 270.497 558.605 259.288C556.061 248.08 568.32 226.971 578.443 224.674C588.566 222.377 600.235 238.573 602.779 249.782Z" fill="#5E5F82"/>
<path d="M595.18 251.689C596.827 258.947 593.531 265.545 585.003 267.481C576.475 269.416 568.226 265.102 566.579 257.844C564.932 250.587 572.869 236.92 579.424 235.433C585.978 233.945 593.533 244.432 595.18 251.689Z" fill="#ADADC7"/>
<path d="M651.695 264.162C643.489 272.211 642.255 283.536 651.713 293.178C661.172 302.82 675.491 304.112 683.696 296.063C691.901 288.014 693.016 263.629 685.747 256.219C678.477 248.809 659.9 256.113 651.695 264.162Z" fill="#5E5F82"/>
<ellipse cx="547.842" cy="340.238" rx="14.7854" ry="8.67114" transform="rotate(-8.38036 547.842 340.238)" fill="#8585A3"/>
<path d="M657.052 269.878C651.74 275.089 650.94 282.422 657.064 288.665C663.188 294.908 672.459 295.744 677.772 290.532C683.084 285.321 683.806 269.533 679.1 264.735C674.393 259.937 662.365 264.667 657.052 269.878Z" fill="#ADADC7"/>
<path d="M667.02 334.655C659.197 361.267 628.796 360.76 599.384 352.114C569.972 343.467 529.739 318.976 548.275 297.628C559.549 272.4 592.993 253.315 622.405 261.962C651.817 270.609 671.7 307.489 667.02 334.655Z" fill="black"/>
<path d="M666.952 338.766C658.26 366.391 625.851 370.072 596.67 360.891C567.49 351.709 529.96 321.577 549.213 299.495C561.316 273.331 595.427 253.699 624.607 262.88C653.787 272.062 672.514 310.544 666.952 338.766Z" fill="#787897"/>
<path d="M681.449 332.417C672.182 363.94 630.239 367.804 594.97 357.436C559.701 347.068 530.217 318.097 539.052 288.045C549.063 265.818 592.447 235.678 627.716 246.046C662.985 256.414 686.949 300.223 681.449 332.417Z" fill="#8585A3"/>
<path d="M627.578 326.506C622.116 345.083 615.709 360.487 593.43 353.938C571.151 347.388 541.438 321.365 546.899 302.789C552.36 284.212 574.848 274.461 597.126 281.011C619.405 287.56 633.039 307.929 627.578 326.506Z" fill="#8585A3"/>
<path d="M664.138 337.254C658.676 355.831 629.041 362.421 606.762 355.871C584.484 349.322 577.998 332.114 583.459 313.537C588.92 294.96 611.408 285.21 633.687 291.759C655.965 298.308 669.599 318.677 664.138 337.254Z" fill="#8585A3"/>
<path d="M599.009 306.602C594.605 321.582 599.11 339.595 578.294 333.476C557.479 327.356 544.174 310.252 548.578 295.273C552.981 280.293 576.375 269.358 592.373 274.061C608.371 278.764 603.412 291.623 599.009 306.602Z" fill="#5E5F82"/>
<path d="M623.966 313.114C619.479 328.378 605.874 342.113 626.915 348.299C647.956 354.484 668.65 347.125 673.137 331.861C677.624 316.598 668.794 295.732 647.753 289.547C626.712 283.361 628.453 297.851 623.966 313.114Z" fill="#5E5F82"/>
<path d="M648.101 319.806C646.137 323.632 641.122 317.153 638.718 316.069C636.314 314.984 633.46 314.959 635.423 311.133C636.496 309.045 638.435 310.639 640.994 311.953C643.553 313.266 649.234 318.066 648.101 319.806Z" fill="#3D1B11"/>
<path d="M575.812 300.471C575.398 304.752 583.967 301.952 586.576 302.338C589.185 302.724 591.601 304.245 592.015 299.965C592.24 297.628 589.747 297.922 586.884 297.645C584.021 297.368 575.799 298.394 575.812 300.471Z" fill="#3D1B11"/>
<g filter="url(#filter42_d_38_1326)">
<path d="M637.88 333.793C635.19 342.94 619.369 346.346 602.543 341.399C585.716 336.453 574.255 325.027 576.944 315.879C579.633 306.731 599.455 309.928 610.853 313.13C622.251 316.332 640.569 324.645 637.88 333.793Z" fill="#ADADC7"/>
</g>
<ellipse cx="610.094" cy="314.358" rx="8.25684" ry="3.93788" transform="rotate(16.3821 610.094 314.358)" fill="#43415D"/>
<ellipse cx="557.557" cy="403.901" rx="16.1326" ry="10.6704" transform="rotate(16.3821 557.557 403.901)" fill="#717297"/>
<ellipse cx="605.917" cy="418.648" rx="16.1326" ry="10.6704" transform="rotate(16.3821 605.917 418.648)" fill="#717297"/>
</g>
<g filter="url(#filter43_d_38_1326)">
<path d="M770.515 439.8C766.384 424.822 752.319 382.053 751.7 380.264L753.638 379.309L782.787 351.133L838.34 337.577L880.997 380.922L892.163 416.195L786.861 468.076L770.515 439.8Z" fill="#1B2A74"/>
<ellipse cx="784.414" cy="324.272" rx="69.0265" ry="62.1514" transform="rotate(-26.229 784.414 324.272)" fill="#FFD8BD"/>
<g filter="url(#filter44_d_38_1326)">
<path d="M727.707 355.89L768.38 384.525L805.939 375.87L838.488 352.591L846.989 302.336C852.424 309.654 863.365 324.747 863.652 326.576C863.938 328.405 864.014 342.091 864.017 348.705L872.122 358.473L854.306 361.747L863.93 404.23L850.468 399.854L848.928 413.215L854.079 425.454L833.734 417.804L818.781 398.371L813.217 401.113C817.409 406.725 825.761 418.197 825.634 419.187C825.507 420.177 822.576 427.164 821.126 430.535C817.097 431.807 809.448 434.256 808.629 434.64C808.614 434.674 808.596 434.691 808.574 434.691C808.539 434.69 808.56 434.672 808.629 434.64C809 433.795 807.417 422.763 807.031 421.979C806.709 421.326 799.859 416.482 796.474 414.142L788.028 406.135L787.332 422.992L788.8 437.335L791.699 449.234C788.965 447.249 783.179 442.77 781.911 440.729C780.642 438.689 773.174 426.636 769.599 420.864L774.694 406.475L759.69 403.872C760.011 406.901 760.679 413.989 760.778 418.112C760.878 422.235 763.506 428.55 764.808 431.192C761.239 428.702 754.005 423.303 753.623 421.637C753.242 419.971 751.394 415.106 750.517 412.882L743.152 390.58L732.908 374.912L727.707 355.89Z" fill="#B2B1B1"/>
</g>
<g filter="url(#filter45_d_38_1326)">
<path d="M817.62 326.617C818.067 335.136 830.761 343.343 848.167 345.351C865.574 347.358 873.631 352.203 874.693 347.215C856.603 345.129 872.613 314.585 855.206 312.577C837.799 310.57 817.172 318.099 817.62 326.617Z" fill="#B2B1B1"/>
</g>
<path d="M818.328 323.579C815.685 332.537 826.585 344.639 844.934 351.648C863.283 358.657 871.713 367.312 874.711 362.441C855.643 355.157 874.279 329.018 855.93 322.009C837.581 315 820.97 314.621 818.328 323.579Z" fill="#D9D9D9"/>
<g filter="url(#filter46_d_38_1326)">
<path d="M724.506 330.752L741.741 291.799L757.095 281.837L804.777 266.395L832.312 282.946L855.485 314.316L847.38 282.825L817.984 256.161L781.249 250.108L762.26 259.463L733.639 273.565L714.773 299.882L711.476 325.565L714.619 353.108L736.126 373.123L731.83 356.617L724.506 330.752Z" fill="#D9D9D9"/>
</g>
<path d="M764.069 347.485C770.027 354.718 766.598 369.747 755.064 382.822C743.53 395.898 740.575 406.876 736.097 403.511C748.083 389.922 722.031 372.783 733.565 359.708C745.099 346.632 758.112 340.251 764.069 347.485Z" fill="#A6A0A0"/>
<g filter="url(#filter47_d_38_1326)">
<path d="M766.063 356.577C774.775 359.94 777.729 375.957 772.106 394.777C766.483 413.597 768.209 425.555 762.52 424.965C768.364 405.407 736.282 404.256 741.905 385.436C747.528 366.616 757.35 353.214 766.063 356.577Z" fill="#D9D9D9"/>
</g>
<g filter="url(#filter48_d_38_1326)">
<path d="M791.82 340.55C796.116 349.27 813.806 349.338 831.332 340.704C848.857 332.069 865.077 300.969 863.825 295.046C845.612 304.019 830.842 301.704 813.316 310.339C795.791 318.973 787.524 331.831 791.82 340.55Z" fill="#D9D9D9"/>
</g>
<g filter="url(#filter49_d_38_1326)">
<path d="M791.845 340.602C796.127 349.293 785.391 363.338 767.865 371.973C750.34 380.608 715.827 374.578 711.902 369.993C730.115 361.02 742.706 344.821 760.231 336.186C777.757 327.551 787.563 331.911 791.845 340.602Z" fill="#D9D9D9"/>
</g>
<path d="M769.448 310.078C771.505 314.254 763.062 316.761 754.982 320.742C746.902 324.722 734.374 325.688 732.514 323.472C740.911 319.335 743.013 313.706 751.093 309.725C759.173 305.744 767.391 305.902 769.448 310.078Z" fill="#D9D9D9"/>
<path d="M781.204 304.067C783.213 308.146 790.252 303.063 798.218 299.138C806.184 295.214 814.484 286.039 813.881 283.277C805.602 287.356 799.956 285.651 791.99 289.576C784.023 293.501 779.194 299.989 781.204 304.067Z" fill="#D9D9D9"/>
<path d="M882.028 354.267L866.667 447.799L869.784 448.817L890.595 356.376L908.077 343.911L919.541 305.62L909.047 315.478L912.63 317.739L907.666 332.23L895.019 342.672L893.324 329.542L898.515 299.572L904.475 301.17L900.238 284.614L889.885 297.711L894.814 299.2L889.529 328.503L883.302 341.067L875.384 324.803L876.236 309.391L880.362 308.858L874.419 295.315L870.653 335.332L882.028 354.267Z" fill="#FFD13B"/>
<path d="M752.565 272.231L723.184 289.603L714.75 268.519L725.34 271.657L723.1 247.914L742.488 260.309L736.406 227.67L759.305 252.739L758.697 228.651L774.772 245.777L783.64 237.509L793.025 255.833L769.585 264.569L752.565 272.231Z" fill="#FFD13B"/>
<path d="M798.694 312.34C796.761 308.951 798.641 305.489 802.163 303.479C805.686 301.47 809.519 301.675 811.452 305.064C813.384 308.453 807.592 305.187 804.069 307.196C800.546 309.206 800.627 315.729 798.694 312.34Z" fill="#3D1B11"/>
<path d="M754.312 333.226C752.379 329.837 754.247 326.376 757.767 324.368C761.288 322.361 765.127 322.567 767.06 325.956C768.993 329.344 763.193 326.077 759.673 328.085C756.153 330.093 756.245 336.615 754.312 333.226Z" fill="#3D1B11"/>
</g>
<g filter="url(#filter50_d_38_1326)">
<path d="M786.761 197.109L813.392 143.833L824.574 142.56L837.252 119.155L845.058 117.001L855.449 97.2117L869.535 96.5015L874.493 91.5079L949.241 236.374L911.356 255.922L887 208.718L863.639 226.018L857.302 213.736L832.659 216.334L825.211 203.688L800.575 209.28L801.117 213.31L786.761 197.109Z" fill="#256AEA"/>
<path d="M793.896 197.537L817.861 148.158L826.259 165.62L799.408 208.221L793.896 197.537Z" fill="#256AEA"/>
<path d="M825.92 204.48L860.656 164.639L868.234 179.624L832.465 217.164L825.92 204.48Z" fill="#256AEA"/>
<path d="M856.474 214.235L897.713 178.239L905.325 192.991L861.548 224.069L856.474 214.235Z" fill="#256AEA"/>
<path d="M818.525 147.815L849.702 142.893L857.057 157.147L827.077 164.988L818.525 147.815Z" fill="#256AEA"/>
<path d="M861.497 164.206L887.294 157.53L894.709 171.902L869.221 179.176L861.497 164.206Z" fill="#256AEA"/>
<path d="M850.38 142.662L860.051 128.433L867.839 143.527L857.687 156.823L850.38 142.662Z" fill="#256AEA"/>
<path d="M861.103 127.892L877.905 125.937L885.05 139.784L868.856 142.917L861.103 127.892Z" fill="#256AEA"/>
<path d="M878.307 125.686L886.862 115.476L894.405 130.094L885.469 139.566L878.307 125.686Z" fill="#256AEA"/>
<path d="M888.548 156.869L900.364 144.736L907.897 159.335L895.85 171.021L888.548 156.869Z" fill="#256AEA"/>
<path d="M898.344 177.914L911.158 173.382L918.167 186.967L905.893 192.544L898.344 177.914Z" fill="#256AEA"/>
<path d="M912.167 173.277L914.804 171.174L922.066 185.248L918.975 186.472L912.167 173.277Z" fill="#256AEA"/>
<path d="M867.266 117.685L878.582 101.49L883.936 111.867L876.361 122.063L869.876 122.742L867.266 117.685Z" fill="#256AEA"/>
<path d="M839.088 120.778L866.926 116.77L870.647 123.98L856.993 124.2L848.75 139.503L839.088 120.778Z" fill="#256AEA"/>
<path d="M828.296 140.562L839.533 121.638L848.528 139.072L828.539 141.033L828.296 140.562Z" fill="#256AEA"/>
<path d="M858.882 100.406L872.52 99.0172L873.978 101.842L865.787 113.788L858.882 100.406Z" fill="#256AEA"/>
<path d="M873.157 98.7081L875.545 95.6067L877.068 98.5599L875.597 98.384L874.3 100.923L873.157 98.7081Z" fill="#256AEA"/>
<path d="M848.402 116.157L858.162 101.07L864.948 114.221L848.402 116.157Z" fill="#256AEA"/>
<path d="M843.161 116.819L855.317 95.5074L869.651 94.9815L873.042 91.2672L875.893 94.7318L873.119 98.3909L858.351 99.8834L848.09 116.133L843.161 116.819Z" fill="#202D6B"/>
<path d="M824.223 141.941L837.749 117.381L865.828 114.115L876.986 97.8836L878.875 102.146L867.658 117.66L839.96 121.664L828.383 141.291L824.223 141.941Z" fill="#202D6B"/>
<path d="M787.424 197.359L813.678 143.013L847.765 139.025L857.092 124.012L876.083 121.769L883.99 111.456L885.76 114.887L877.623 124.752L860.186 127.327L849.227 141.859L817.157 147.073L792.785 197.615L787.424 197.359Z" fill="#202D6B"/>
<path d="M799.936 208.217L827.109 165.881L857.83 158.713L868.854 144.341L886.363 141.348L893.905 132.737L899.598 143.769L887.089 156.452L860.138 163.185L824.998 203.78L799.936 208.217Z" fill="#0F095B"/>
<path d="M833.02 218.237L868.804 180.594L895.526 173.073L908.993 160.428L913.945 170.025L911.296 172.342L897.295 177.097L855.713 213.934L833.02 218.237Z" fill="#0F095B"/>
<path d="M886.839 208.685L906.485 194.456L919.531 188.655L923.32 187.63L945.075 228.299L907.076 247.905L886.839 208.685Z" fill="#256AEA"/>
<path d="M799.794 208.602L804.433 201.538L816.645 204.392C816.645 204.392 816.364 207.482 816.326 209.787C816.289 212.093 877.797 225.153 881.171 229.017C884.546 232.881 894.969 251.231 894.969 251.231L881.184 257.222C881.184 257.222 874.656 238.028 872.343 235.627C870.03 233.227 804.561 215.528 801.75 213.946C798.938 212.363 799.794 208.602 799.794 208.602Z" fill="#223C6C"/>
<path d="M810.376 193.221L815.131 186.084L827.982 189.946C827.982 189.946 828.422 190.799 828.387 193.11C828.352 195.42 889.171 210.651 892.552 214.528C895.933 218.405 911.876 244.843 911.876 244.843L896.498 250.717C896.498 250.717 886.24 222.513 883.924 220.104C881.607 217.696 816.621 198.85 813.807 197.26C810.992 195.67 810.376 193.221 810.376 193.221Z" fill="#223C6C"/>
<path d="M819.188 178.458L823.837 171.368L838.848 173.593C838.848 173.593 839.347 174.56 839.305 177.18C839.262 179.8 908.97 197.933 912.805 202.325C916.639 206.716 932.537 235.937 932.537 235.937L917.332 242.844C917.332 242.844 904.97 210.451 902.342 207.723C899.714 204.994 825.936 183.703 822.742 181.904C819.547 180.105 819.188 178.458 819.188 178.458Z" fill="#223C6C"/>
<path d="M877.856 255.678L942.097 222.531L951.383 240.527L887.142 273.674L877.856 255.678Z" fill="#272323"/>
<path d="M1010.31 81.6604L951.485 72.5401L943.965 80.9101L917.555 77.7002L911.275 82.8114L889.134 79.8305L880.388 90.8908L873.448 92.0401L948.079 236.681L985.963 217.134L961.645 170.003L989.279 160.983L982.951 148.721L999.355 130.154L993.376 116.777L1012.21 99.948L1015.18 102.72L1010.31 81.6604Z" fill="#256AEA"/>
<g filter="url(#filter51_d_38_1326)">
<path d="M1006.15 86.983L952.087 78.5522L961.289 95.1933L1011.56 97.4677L1006.15 86.983Z" fill="#225ED0"/>
</g>
<g filter="url(#filter52_d_38_1326)">
<path d="M993.085 116.537L939.577 121.799L948.65 139.082L1000.18 132.09L993.085 116.537Z" fill="#225ED0"/>
</g>
<g filter="url(#filter53_d_38_1326)">
<path d="M983.649 148.481L930.351 161.106L938.045 176.016L988.778 158.421L983.649 148.481Z" fill="#1F59C5"/>
</g>
<path d="M951.655 78.8304L929.622 101.475L937.051 115.872L960.783 95.9217L951.655 78.8304Z" fill="#256AEA"/>
<path d="M940.231 123.581L919.809 140.674L927.138 154.877L947.864 138.375L940.231 123.581Z" fill="#256AEA"/>
<g filter="url(#filter54_d_38_1326)">
<path d="M928.996 101.806L911.795 101.443L919.583 116.537L936.303 115.967L928.996 101.806Z" fill="#1F59C5"/>
</g>
<path d="M910.536 102.092L899.416 114.545L906.561 128.391L918.289 117.118L910.536 102.092Z" fill="#256AEA"/>
<path d="M898.785 114.888L886.413 115.123L894.461 130.722L905.923 128.721L898.785 114.888Z" fill="#2262D7"/>
<path d="M918.775 141.782L902.07 144.439L909.511 158.86L925.988 155.761L918.775 141.782Z" fill="#256AEA"/>
<path d="M929.716 161.434L918.597 169.251L925.607 182.836L937.265 176.065L929.716 161.434Z" fill="#256AEA"/>
<path d="M918.135 169.905L914.893 170.835L922.155 184.909L924.943 183.099L918.135 169.905Z" fill="#256AEA"/>
<path d="M898.4 100.785L878.558 101.32L882.522 110.501L895.985 109.687L900.448 105.527L898.4 100.785Z" fill="#1F5AC5"/>
<path d="M917.403 80.3688L898.548 101.271L901.158 106.329L909.876 96.9524L927.417 98.2308L917.403 80.3688Z" fill="#256AEA"/>
<g filter="url(#filter55_d_38_1326)">
<path d="M939.907 82.2545L917.414 80.9077L926.694 96.832L940.118 82.663L939.907 82.2545Z" fill="#1F5AC5"/>
</g>
<path d="M889.744 84.4824L880.669 94.7156L882.101 97.4919L896.529 97.6334L889.744 84.4824Z" fill="#256AEA"/>
<g filter="url(#filter56_d_38_1326)">
<path d="M879.974 94.9138L876.102 95.1385L877.547 97.9389L878.889 97.8646L881.473 97.8183L879.974 94.9138Z" fill="#1F59C5"/>
</g>
<g filter="url(#filter57_d_38_1326)">
<path d="M907.987 84.274L889.393 83.7847L896.553 96.1161L907.987 84.274Z" fill="#1F59C5"/>
</g>
<path d="M912.027 81.2858L887.724 78.7851L879.059 90.1267L873.047 91.2637L875.268 95.5684L879.835 94.9249L889.536 83.7923L908.636 84.892L912.027 81.2858Z" fill="#202D6B"/>
<path d="M943.887 80.1757L915.638 76.919L896.439 98.2075L876.658 98.2586L878.558 102.456L898.295 101.803L917.88 81.2637L940.905 83.232L943.887 80.1757Z" fill="#202D6B"/>
<path d="M1009.74 82.1025L950.456 72.4378L927.376 97.7653L909.79 96.7751L896.914 110.874L883.549 111.872L885.326 115.316L898.433 113.817L910.671 101.166L928.819 100.562L951.717 77.5646L1006.83 86.5886L1009.74 82.1025Z" fill="#202D6B"/>
<path d="M1011.62 98.6115L961.252 96.716L937.349 117.6L919.193 118.417L906.456 130.937L893.85 132.609L899.606 143.766L918.291 140.073L939.621 122.004L993.261 116.447L1011.62 98.6115Z" fill="#0F095B"/>
<path d="M1000.54 131.761L948.841 139.366L927.03 156.851L908.815 160.585L913.739 170.129L917.183 169.296L929.275 160.602L983.719 147.805L1000.54 131.761Z" fill="#0F095B"/>
<g filter="url(#filter58_d_38_1326)">
<path d="M961.474 169.905L938.602 177.592L926.386 184.83L923.376 187.318L944.032 228.837L981.821 209.339L961.474 169.905Z" fill="#1F59C5"/>
</g>
<path d="M1012.06 98.8015L1003.6 98.4773L998.865 110.105C998.865 110.105 1001.55 111.675 1003.45 112.985C1005.36 114.296 980.412 172.099 981.613 177.102C982.813 182.105 991.758 201.29 991.758 201.29L1004.63 193.525C1004.63 193.525 992.74 177.027 992.119 173.743C991.498 170.458 1014.95 106.722 1015.28 103.507C1015.62 100.292 1012.06 98.8015 1012.06 98.8015Z" fill="#223C6C"/>
<path d="M993.502 98.7338L984.906 98.4847L980.576 111.212C980.576 111.212 981.016 112.065 982.923 113.373C984.83 114.682 961.851 173.151 963.047 178.155C964.243 183.159 976.545 211.476 976.545 211.476L990.295 202.321C990.295 202.321 973.241 177.624 972.624 174.338C972.006 171.053 994.46 107.09 994.801 103.872C995.142 100.654 993.502 98.7338 993.502 98.7338Z" fill="#223C6C"/>
<path d="M976.25 97.1353L967.773 96.8068L960.897 110.349C960.897 110.349 961.397 111.319 963.56 112.807C965.722 114.296 940.159 181.717 941.522 187.4C942.885 193.082 957.524 223.043 957.524 223.043L971.963 214.652C971.963 214.652 952.689 185.732 951.984 182.001C951.28 178.27 976.622 105.691 977.004 102.039C977.385 98.3861 976.25 97.1353 976.25 97.1353Z" fill="#223C6C"/>
<path d="M877.856 255.678L1004.87 190.142L1014.15 208.138L887.142 273.674L877.856 255.678Z" fill="#223C6C"/>
<path d="M884.943 165.33C886.947 169.214 884.472 170.434 881.468 171.985C878.463 173.535 876.067 174.828 874.063 170.944C872.059 167.061 876.087 168.344 879.092 166.794C882.096 165.243 882.939 161.447 884.943 165.33Z" fill="#3D1B11"/>
<path d="M933.191 139.604C935.195 143.488 932.72 144.708 929.716 146.258C926.711 147.808 924.314 149.102 922.31 145.218C920.306 141.334 924.335 142.617 927.339 141.067C930.344 139.516 931.187 135.72 933.191 139.604Z" fill="#3D1B11"/>
</g>
</g>
<defs>
<filter id="filter0_d_38_1326" x="1177.33" y="337.029" width="192.113" height="134.878" filterUnits="userSpaceOnUse" color-interpolation-filters="sRGB">
<feFlood flood-opacity="0" result="BackgroundImageFix"/>
<feColorMatrix in="SourceAlpha" type="matrix" values="0 0 0 0 0 0 0 0 0 0 0 0 0 0 0 0 0 0 127 0" result="hardAlpha"/>
<feOffset dy="1.17769"/>
<feGaussianBlur stdDeviation="1.17769"/>
<feComposite in2="hardAlpha" operator="out"/>
<feColorMatrix type="matrix" values="0 0 0 0 0 0 0 0 0 0 0 0 0 0 0 0 0 0 0.25 0"/>
<feBlend mode="normal" in2="BackgroundImageFix" result="effect1_dropShadow_38_1326"/>
<feBlend mode="normal" in="SourceGraphic" in2="effect1_dropShadow_38_1326" result="shape"/>
</filter>
<filter id="filter1_d_38_1326" x="316.178" y="208.742" width="182.292" height="137.334" filterUnits="userSpaceOnUse" color-interpolation-filters="sRGB">
<feFlood flood-opacity="0" result="BackgroundImageFix"/>
<feColorMatrix in="SourceAlpha" type="matrix" values="0 0 0 0 0 0 0 0 0 0 0 0 0 0 0 0 0 0 127 0" result="hardAlpha"/>
<feOffset dy="1.17769"/>
<feGaussianBlur stdDeviation="1.17769"/>
<feComposite in2="hardAlpha" operator="out"/>
<feColorMatrix type="matrix" values="0 0 0 0 0 0 0 0 0 0 0 0 0 0 0 0 0 0 0.25 0"/>
<feBlend mode="normal" in2="BackgroundImageFix" result="effect1_dropShadow_38_1326"/>
<feBlend mode="normal" in="SourceGraphic" in2="effect1_dropShadow_38_1326" result="shape"/>
</filter>
<filter id="filter2_d_38_1326" x="1025.25" y="-4.17954" width="182.292" height="137.334" filterUnits="userSpaceOnUse" color-interpolation-filters="sRGB">
<feFlood flood-opacity="0" result="BackgroundImageFix"/>
<feColorMatrix in="SourceAlpha" type="matrix" values="0 0 0 0 0 0 0 0 0 0 0 0 0 0 0 0 0 0 127 0" result="hardAlpha"/>
<feOffset dy="1.17769"/>
<feGaussianBlur stdDeviation="1.17769"/>
<feComposite in2="hardAlpha" operator="out"/>
<feColorMatrix type="matrix" values="0 0 0 0 0 0 0 0 0 0 0 0 0 0 0 0 0 0 0.25 0"/>
<feBlend mode="normal" in2="BackgroundImageFix" result="effect1_dropShadow_38_1326"/>
<feBlend mode="normal" in="SourceGraphic" in2="effect1_dropShadow_38_1326" result="shape"/>
</filter>
<filter id="filter3_d_38_1326" x="62.524" y="339.748" width="192.274" height="135.201" filterUnits="userSpaceOnUse" color-interpolation-filters="sRGB">
<feFlood flood-opacity="0" result="BackgroundImageFix"/>
<feColorMatrix in="SourceAlpha" type="matrix" values="0 0 0 0 0 0 0 0 0 0 0 0 0 0 0 0 0 0 127 0" result="hardAlpha"/>
<feOffset dy="1.17769"/>
<feGaussianBlur stdDeviation="1.17769"/>
<feComposite in2="hardAlpha" operator="out"/>
<feColorMatrix type="matrix" values="0 0 0 0 0 0 0 0 0 0 0 0 0 0 0 0 0 0 0.25 0"/>
<feBlend mode="normal" in2="BackgroundImageFix" result="effect1_dropShadow_38_1326"/>
<feBlend mode="normal" in="SourceGraphic" in2="effect1_dropShadow_38_1326" result="shape"/>
</filter>
<filter id="filter4_d_38_1326" x="1268.93" y="126.826" width="192.292" height="135.201" filterUnits="userSpaceOnUse" color-interpolation-filters="sRGB">
<feFlood flood-opacity="0" result="BackgroundImageFix"/>
<feColorMatrix in="SourceAlpha" type="matrix" values="0 0 0 0 0 0 0 0 0 0 0 0 0 0 0 0 0 0 127 0" result="hardAlpha"/>
<feOffset dy="1.17769"/>
<feGaussianBlur stdDeviation="1.17769"/>
<feComposite in2="hardAlpha" operator="out"/>
<feColorMatrix type="matrix" values="0 0 0 0 0 0 0 0 0 0 0 0 0 0 0 0 0 0 0.25 0"/>
<feBlend mode="normal" in2="BackgroundImageFix" result="effect1_dropShadow_38_1326"/>
<feBlend mode="normal" in="SourceGraphic" in2="effect1_dropShadow_38_1326" result="shape"/>
</filter>
<filter id="filter5_d_38_1326" x="-62.4911" y="652.744" width="212.502" height="146.059" filterUnits="userSpaceOnUse" color-interpolation-filters="sRGB">
<feFlood flood-opacity="0" result="BackgroundImageFix"/>
<feColorMatrix in="SourceAlpha" type="matrix" values="0 0 0 0 0 0 0 0 0 0 0 0 0 0 0 0 0 0 127 0" result="hardAlpha"/>
<feOffset dy="1.17769"/>
<feGaussianBlur stdDeviation="1.17769"/>
<feComposite in2="hardAlpha" operator="out"/>
<feColorMatrix type="matrix" values="0 0 0 0 0 0 0 0 0 0 0 0 0 0 0 0 0 0 0.25 0"/>
<feBlend mode="normal" in2="BackgroundImageFix" result="effect1_dropShadow_38_1326"/>
<feBlend mode="normal" in="SourceGraphic" in2="effect1_dropShadow_38_1326" result="shape"/>
</filter>
<filter id="filter6_d_38_1326" x="1251.38" y="341.678" width="142.329" height="94.3402" filterUnits="userSpaceOnUse" color-interpolation-filters="sRGB">
<feFlood flood-opacity="0" result="BackgroundImageFix"/>
<feColorMatrix in="SourceAlpha" type="matrix" values="0 0 0 0 0 0 0 0 0 0 0 0 0 0 0 0 0 0 127 0" result="hardAlpha"/>
<feOffset dy="1.17769"/>
<feGaussianBlur stdDeviation="0.588846"/>
<feComposite in2="hardAlpha" operator="out"/>
<feColorMatrix type="matrix" values="0 0 0 0 0 0 0 0 0 0 0 0 0 0 0 0 0 0 0.25 0"/>
<feBlend mode="normal" in2="BackgroundImageFix" result="effect1_dropShadow_38_1326"/>
<feBlend mode="normal" in="SourceGraphic" in2="effect1_dropShadow_38_1326" result="shape"/>
</filter>
<filter id="filter7_d_38_1326" x="-146.001" y="255.349" width="165.205" height="94.3404" filterUnits="userSpaceOnUse" color-interpolation-filters="sRGB">
<feFlood flood-opacity="0" result="BackgroundImageFix"/>
<feColorMatrix in="SourceAlpha" type="matrix" values="0 0 0 0 0 0 0 0 0 0 0 0 0 0 0 0 0 0 127 0" result="hardAlpha"/>
<feOffset dy="1.17769"/>
<feGaussianBlur stdDeviation="0.588846"/>
<feComposite in2="hardAlpha" operator="out"/>
<feColorMatrix type="matrix" values="0 0 0 0 0 0 0 0 0 0 0 0 0 0 0 0 0 0 0.25 0"/>
<feBlend mode="normal" in2="BackgroundImageFix" result="effect1_dropShadow_38_1326"/>
<feBlend mode="normal" in="SourceGraphic" in2="effect1_dropShadow_38_1326" result="shape"/>
</filter>
<filter id="filter8_d_38_1326" x="122.427" y="318.19" width="142.328" height="94.3403" filterUnits="userSpaceOnUse" color-interpolation-filters="sRGB">
<feFlood flood-opacity="0" result="BackgroundImageFix"/>
<feColorMatrix in="SourceAlpha" type="matrix" values="0 0 0 0 0 0 0 0 0 0 0 0 0 0 0 0 0 0 127 0" result="hardAlpha"/>
<feOffset dy="1.17769"/>
<feGaussianBlur stdDeviation="0.588846"/>
<feComposite in2="hardAlpha" operator="out"/>
<feColorMatrix type="matrix" values="0 0 0 0 0 0 0 0 0 0 0 0 0 0 0 0 0 0 0.16 0"/>
<feBlend mode="normal" in2="BackgroundImageFix" result="effect1_dropShadow_38_1326"/>
<feBlend mode="normal" in="SourceGraphic" in2="effect1_dropShadow_38_1326" result="shape"/>
</filter>
<filter id="filter9_d_38_1326" x="1258.97" y="105.268" width="142.329" height="94.3402" filterUnits="userSpaceOnUse" color-interpolation-filters="sRGB">
<feFlood flood-opacity="0" result="BackgroundImageFix"/>
<feColorMatrix in="SourceAlpha" type="matrix" values="0 0 0 0 0 0 0 0 0 0 0 0 0 0 0 0 0 0 127 0" result="hardAlpha"/>
<feOffset dy="1.17769"/>
<feGaussianBlur stdDeviation="0.588846"/>
<feComposite in2="hardAlpha" operator="out"/>
<feColorMatrix type="matrix" values="0 0 0 0 0 0 0 0 0 0 0 0 0 0 0 0 0 0 0.16 0"/>
<feBlend mode="normal" in2="BackgroundImageFix" result="effect1_dropShadow_38_1326"/>
<feBlend mode="normal" in="SourceGraphic" in2="effect1_dropShadow_38_1326" result="shape"/>
</filter>
<filter id="filter10_d_38_1326" x="23.5069" y="685.943" width="138.716" height="110.927" filterUnits="userSpaceOnUse" color-interpolation-filters="sRGB">
<feFlood flood-opacity="0" result="BackgroundImageFix"/>
<feColorMatrix in="SourceAlpha" type="matrix" values="0 0 0 0 0 0 0 0 0 0 0 0 0 0 0 0 0 0 127 0" result="hardAlpha"/>
<feOffset dy="1.17769"/>
<feGaussianBlur stdDeviation="0.588846"/>
<feComposite in2="hardAlpha" operator="out"/>
<feColorMatrix type="matrix" values="0 0 0 0 0 0 0 0 0 0 0 0 0 0 0 0 0 0 0.25 0"/>
<feBlend mode="normal" in2="BackgroundImageFix" result="effect1_dropShadow_38_1326"/>
<feBlend mode="normal" in="SourceGraphic" in2="effect1_dropShadow_38_1326" result="shape"/>
</filter>
<filter id="filter11_dd_38_1326" x="334.876" y="495.021" width="144.893" height="119.084" filterUnits="userSpaceOnUse" color-interpolation-filters="sRGB">
<feFlood flood-opacity="0" result="BackgroundImageFix"/>
<feColorMatrix in="SourceAlpha" type="matrix" values="0 0 0 0 0 0 0 0 0 0 0 0 0 0 0 0 0 0 127 0" result="hardAlpha"/>
<feOffset dy="2.35538"/>
<feGaussianBlur stdDeviation="1.17769"/>
<feComposite in2="hardAlpha" operator="out"/>
<feColorMatrix type="matrix" values="0 0 0 0 0 0 0 0 0 0 0 0 0 0 0 0 0 0 0.25 0"/>
<feBlend mode="normal" in2="BackgroundImageFix" result="effect1_dropShadow_38_1326"/>
<feColorMatrix in="SourceAlpha" type="matrix" values="0 0 0 0 0 0 0 0 0 0 0 0 0 0 0 0 0 0 127 0" result="hardAlpha"/>
<feOffset dy="1.17769"/>
<feGaussianBlur stdDeviation="0.588846"/>
<feComposite in2="hardAlpha" operator="out"/>
<feColorMatrix type="matrix" values="0 0 0 0 0 0 0 0 0 0 0 0 0 0 0 0 0 0 0.25 0"/>
<feBlend mode="normal" in2="effect1_dropShadow_38_1326" result="effect2_dropShadow_38_1326"/>
<feBlend mode="normal" in="SourceGraphic" in2="effect2_dropShadow_38_1326" result="shape"/>
</filter>
<filter id="filter12_d_38_1326" x="676.705" y="-137.49" width="201.366" height="141.373" filterUnits="userSpaceOnUse" color-interpolation-filters="sRGB">
<feFlood flood-opacity="0" result="BackgroundImageFix"/>
<feColorMatrix in="SourceAlpha" type="matrix" values="0 0 0 0 0 0 0 0 0 0 0 0 0 0 0 0 0 0 127 0" result="hardAlpha"/>
<feOffset dy="1.23441"/>
<feGaussianBlur stdDeviation="1.23441"/>
<feComposite in2="hardAlpha" operator="out"/>
<feColorMatrix type="matrix" values="0 0 0 0 0 0 0 0 0 0 0 0 0 0 0 0 0 0 0.25 0"/>
<feBlend mode="normal" in2="BackgroundImageFix" result="effect1_dropShadow_38_1326"/>
<feBlend mode="normal" in="SourceGraphic" in2="effect1_dropShadow_38_1326" result="shape"/>
</filter>
<filter id="filter13_d_38_1326" x="416.757" y="-11.3515" width="191.071" height="143.948" filterUnits="userSpaceOnUse" color-interpolation-filters="sRGB">
<feFlood flood-opacity="0" result="BackgroundImageFix"/>
<feColorMatrix in="SourceAlpha" type="matrix" values="0 0 0 0 0 0 0 0 0 0 0 0 0 0 0 0 0 0 127 0" result="hardAlpha"/>
<feOffset dy="1.23441"/>
<feGaussianBlur stdDeviation="1.23441"/>
<feComposite in2="hardAlpha" operator="out"/>
<feColorMatrix type="matrix" values="0 0 0 0 0 0 0 0 0 0 0 0 0 0 0 0 0 0 0.25 0"/>
<feBlend mode="normal" in2="BackgroundImageFix" result="effect1_dropShadow_38_1326"/>
<feBlend mode="normal" in="SourceGraphic" in2="effect1_dropShadow_38_1326" result="shape"/>
</filter>
<filter id="filter14_d_38_1326" x="702.67" y="84.558" width="201.531" height="141.712" filterUnits="userSpaceOnUse" color-interpolation-filters="sRGB">
<feFlood flood-opacity="0" result="BackgroundImageFix"/>
<feColorMatrix in="SourceAlpha" type="matrix" values="0 0 0 0 0 0 0 0 0 0 0 0 0 0 0 0 0 0 127 0" result="hardAlpha"/>
<feOffset dy="1.23441"/>
<feGaussianBlur stdDeviation="1.23441"/>
<feComposite in2="hardAlpha" operator="out"/>
<feColorMatrix type="matrix" values="0 0 0 0 0 0 0 0 0 0 0 0 0 0 0 0 0 0 0.25 0"/>
<feBlend mode="normal" in2="BackgroundImageFix" result="effect1_dropShadow_38_1326"/>
<feBlend mode="normal" in="SourceGraphic" in2="effect1_dropShadow_38_1326" result="shape"/>
</filter>
<filter id="filter15_d_38_1326" x="571.615" y="412.627" width="222.735" height="153.093" filterUnits="userSpaceOnUse" color-interpolation-filters="sRGB">
<feFlood flood-opacity="0" result="BackgroundImageFix"/>
<feColorMatrix in="SourceAlpha" type="matrix" values="0 0 0 0 0 0 0 0 0 0 0 0 0 0 0 0 0 0 127 0" result="hardAlpha"/>
<feOffset dy="1.23441"/>
<feGaussianBlur stdDeviation="1.23441"/>
<feComposite in2="hardAlpha" operator="out"/>
<feColorMatrix type="matrix" values="0 0 0 0 0 0 0 0 0 0 0 0 0 0 0 0 0 0 0.25 0"/>
<feBlend mode="normal" in2="BackgroundImageFix" result="effect1_dropShadow_38_1326"/>
<feBlend mode="normal" in="SourceGraphic" in2="effect1_dropShadow_38_1326" result="shape"/>
</filter>
<filter id="filter16_d_38_1326" x="484.086" y="-3.90472" width="173.158" height="98.8835" filterUnits="userSpaceOnUse" color-interpolation-filters="sRGB">
<feFlood flood-opacity="0" result="BackgroundImageFix"/>
<feColorMatrix in="SourceAlpha" type="matrix" values="0 0 0 0 0 0 0 0 0 0 0 0 0 0 0 0 0 0 127 0" result="hardAlpha"/>
<feOffset dy="1.23441"/>
<feGaussianBlur stdDeviation="0.617203"/>
<feComposite in2="hardAlpha" operator="out"/>
<feColorMatrix type="matrix" values="0 0 0 0 0 0 0 0 0 0 0 0 0 0 0 0 0 0 0.25 0"/>
<feBlend mode="normal" in2="BackgroundImageFix" result="effect1_dropShadow_38_1326"/>
<feBlend mode="normal" in="SourceGraphic" in2="effect1_dropShadow_38_1326" result="shape"/>
</filter>
<filter id="filter17_d_38_1326" x="765.457" y="61.9622" width="149.183" height="98.8833" filterUnits="userSpaceOnUse" color-interpolation-filters="sRGB">
<feFlood flood-opacity="0" result="BackgroundImageFix"/>
<feColorMatrix in="SourceAlpha" type="matrix" values="0 0 0 0 0 0 0 0 0 0 0 0 0 0 0 0 0 0 127 0" result="hardAlpha"/>
<feOffset dy="1.23441"/>
<feGaussianBlur stdDeviation="0.617203"/>
<feComposite in2="hardAlpha" operator="out"/>
<feColorMatrix type="matrix" values="0 0 0 0 0 0 0 0 0 0 0 0 0 0 0 0 0 0 0.16 0"/>
<feBlend mode="normal" in2="BackgroundImageFix" result="effect1_dropShadow_38_1326"/>
<feBlend mode="normal" in="SourceGraphic" in2="effect1_dropShadow_38_1326" result="shape"/>
</filter>
<filter id="filter18_d_38_1326" x="661.754" y="447.425" width="145.398" height="116.269" filterUnits="userSpaceOnUse" color-interpolation-filters="sRGB">
<feFlood flood-opacity="0" result="BackgroundImageFix"/>
<feColorMatrix in="SourceAlpha" type="matrix" values="0 0 0 0 0 0 0 0 0 0 0 0 0 0 0 0 0 0 127 0" result="hardAlpha"/>
<feOffset dy="1.23441"/>
<feGaussianBlur stdDeviation="0.617203"/>
<feComposite in2="hardAlpha" operator="out"/>
<feColorMatrix type="matrix" values="0 0 0 0 0 0 0 0 0 0 0 0 0 0 0 0 0 0 0.25 0"/>
<feBlend mode="normal" in2="BackgroundImageFix" result="effect1_dropShadow_38_1326"/>
<feBlend mode="normal" in="SourceGraphic" in2="effect1_dropShadow_38_1326" result="shape"/>
</filter>
<filter id="filter19_dd_38_1326" x="988.138" y="247.309" width="151.869" height="124.818" filterUnits="userSpaceOnUse" color-interpolation-filters="sRGB">
<feFlood flood-opacity="0" result="BackgroundImageFix"/>
<feColorMatrix in="SourceAlpha" type="matrix" values="0 0 0 0 0 0 0 0 0 0 0 0 0 0 0 0 0 0 127 0" result="hardAlpha"/>
<feOffset dy="2.46881"/>
<feGaussianBlur stdDeviation="1.23441"/>
<feComposite in2="hardAlpha" operator="out"/>
<feColorMatrix type="matrix" values="0 0 0 0 0 0 0 0 0 0 0 0 0 0 0 0 0 0 0.25 0"/>
<feBlend mode="normal" in2="BackgroundImageFix" result="effect1_dropShadow_38_1326"/>
<feColorMatrix in="SourceAlpha" type="matrix" values="0 0 0 0 0 0 0 0 0 0 0 0 0 0 0 0 0 0 127 0" result="hardAlpha"/>
<feOffset dy="1.23441"/>
<feGaussianBlur stdDeviation="0.617203"/>
<feComposite in2="hardAlpha" operator="out"/>
<feColorMatrix type="matrix" values="0 0 0 0 0 0 0 0 0 0 0 0 0 0 0 0 0 0 0.25 0"/>
<feBlend mode="normal" in2="effect1_dropShadow_38_1326" result="effect2_dropShadow_38_1326"/>
<feBlend mode="normal" in="SourceGraphic" in2="effect2_dropShadow_38_1326" result="shape"/>
</filter>
<filter id="filter20_dd_38_1326" x="150.937" y="138.893" width="151.87" height="124.818" filterUnits="userSpaceOnUse" color-interpolation-filters="sRGB">
<feFlood flood-opacity="0" result="BackgroundImageFix"/>
<feColorMatrix in="SourceAlpha" type="matrix" values="0 0 0 0 0 0 0 0 0 0 0 0 0 0 0 0 0 0 127 0" result="hardAlpha"/>
<feOffset dy="2.46881"/>
<feGaussianBlur stdDeviation="1.23441"/>
<feComposite in2="hardAlpha" operator="out"/>
<feColorMatrix type="matrix" values="0 0 0 0 0 0 0 0 0 0 0 0 0 0 0 0 0 0 0.25 0"/>
<feBlend mode="normal" in2="BackgroundImageFix" result="effect1_dropShadow_38_1326"/>
<feColorMatrix in="SourceAlpha" type="matrix" values="0 0 0 0 0 0 0 0 0 0 0 0 0 0 0 0 0 0 127 0" result="hardAlpha"/>
<feOffset dy="1.23441"/>
<feGaussianBlur stdDeviation="0.617203"/>
<feComposite in2="hardAlpha" operator="out"/>
<feColorMatrix type="matrix" values="0 0 0 0 0 0 0 0 0 0 0 0 0 0 0 0 0 0 0.25 0"/>
<feBlend mode="normal" in2="effect1_dropShadow_38_1326" result="effect2_dropShadow_38_1326"/>
<feBlend mode="normal" in="SourceGraphic" in2="effect2_dropShadow_38_1326" result="shape"/>
</filter>
<filter id="filter21_d_38_1326" x="-139.244" y="224.984" width="163.665" height="220.117" filterUnits="userSpaceOnUse" color-interpolation-filters="sRGB">
<feFlood flood-opacity="0" result="BackgroundImageFix"/>
<feColorMatrix in="SourceAlpha" type="matrix" values="0 0 0 0 0 0 0 0 0 0 0 0 0 0 0 0 0 0 127 0" result="hardAlpha"/>
<feOffset dy="1.23441"/>
<feGaussianBlur stdDeviation="1.23441"/>
<feComposite in2="hardAlpha" operator="out"/>
<feColorMatrix type="matrix" values="0 0 0 0 0 0 0 0 0 0 0 0 0 0 0 0 0 0 0.25 0"/>
<feBlend mode="normal" in2="BackgroundImageFix" result="effect1_dropShadow_38_1326"/>
<feBlend mode="normal" in="SourceGraphic" in2="effect1_dropShadow_38_1326" result="shape"/>
</filter>
<filter id="filter22_d_38_1326" x="952.081" y="227.088" width="77.0504" height="73.7759" filterUnits="userSpaceOnUse" color-interpolation-filters="sRGB">
<feFlood flood-opacity="0" result="BackgroundImageFix"/>
<feColorMatrix in="SourceAlpha" type="matrix" values="0 0 0 0 0 0 0 0 0 0 0 0 0 0 0 0 0 0 127 0" result="hardAlpha"/>
<feOffset dy="2.46881"/>
<feGaussianBlur stdDeviation="1.23441"/>
<feComposite in2="hardAlpha" operator="out"/>
<feColorMatrix type="matrix" values="0 0 0 0 0 0 0 0 0 0 0 0 0 0 0 0 0 0 0.25 0"/>
<feBlend mode="normal" in2="BackgroundImageFix" result="effect1_dropShadow_38_1326"/>
<feBlend mode="normal" in="SourceGraphic" in2="effect1_dropShadow_38_1326" result="shape"/>
</filter>
<filter id="filter23_d_38_1326" x="110.904" y="162.618" width="77.0504" height="73.7759" filterUnits="userSpaceOnUse" color-interpolation-filters="sRGB">
<feFlood flood-opacity="0" result="BackgroundImageFix"/>
<feColorMatrix in="SourceAlpha" type="matrix" values="0 0 0 0 0 0 0 0 0 0 0 0 0 0 0 0 0 0 127 0" result="hardAlpha"/>
<feOffset dy="2.46881"/>
<feGaussianBlur stdDeviation="1.23441"/>
<feComposite in2="hardAlpha" operator="out"/>
<feColorMatrix type="matrix" values="0 0 0 0 0 0 0 0 0 0 0 0 0 0 0 0 0 0 0.25 0"/>
<feBlend mode="normal" in2="BackgroundImageFix" result="effect1_dropShadow_38_1326"/>
<feBlend mode="normal" in="SourceGraphic" in2="effect1_dropShadow_38_1326" result="shape"/>
</filter>
<filter id="filter24_d_38_1326" x="620.069" y="108.672" width="82.4625" height="78.9245" filterUnits="userSpaceOnUse" color-interpolation-filters="sRGB">
<feFlood flood-opacity="0" result="BackgroundImageFix"/>
<feColorMatrix in="SourceAlpha" type="matrix" values="0 0 0 0 0 0 0 0 0 0 0 0 0 0 0 0 0 0 127 0" result="hardAlpha"/>
<feOffset dy="2.46881"/>
<feGaussianBlur stdDeviation="1.23441"/>
<feComposite in2="hardAlpha" operator="out"/>
<feColorMatrix type="matrix" values="0 0 0 0 0 0 0 0 0 0 0 0 0 0 0 0 0 0 0.25 0"/>
<feBlend mode="normal" in2="BackgroundImageFix" result="effect1_dropShadow_38_1326"/>
<feBlend mode="normal" in="SourceGraphic" in2="effect1_dropShadow_38_1326" result="shape"/>
</filter>
<filter id="filter25_d_38_1326" x="495.945" y="-9.05157" width="14.9889" height="14.9907" filterUnits="userSpaceOnUse" color-interpolation-filters="sRGB">
<feFlood flood-opacity="0" result="BackgroundImageFix"/>
<feColorMatrix in="SourceAlpha" type="matrix" values="0 0 0 0 0 0 0 0 0 0 0 0 0 0 0 0 0 0 127 0" result="hardAlpha"/>
<feOffset dy="2.46881"/>
<feGaussianBlur stdDeviation="1.23441"/>
<feComposite in2="hardAlpha" operator="out"/>
<feColorMatrix type="matrix" values="0 0 0 0 0 0 0 0 0 0 0 0 0 0 0 0 0 0 0.25 0"/>
<feBlend mode="normal" in2="BackgroundImageFix" result="effect1_dropShadow_38_1326"/>
<feBlend mode="normal" in="SourceGraphic" in2="effect1_dropShadow_38_1326" result="shape"/>
</filter>
<filter id="filter26_d_38_1326" x="944.361" y="278.573" width="55.2316" height="53.0211" filterUnits="userSpaceOnUse" color-interpolation-filters="sRGB">
<feFlood flood-opacity="0" result="BackgroundImageFix"/>
<feColorMatrix in="SourceAlpha" type="matrix" values="0 0 0 0 0 0 0 0 0 0 0 0 0 0 0 0 0 0 127 0" result="hardAlpha"/>
<feOffset dy="2.46881"/>
<feGaussianBlur stdDeviation="1.23441"/>
<feComposite in2="hardAlpha" operator="out"/>
<feColorMatrix type="matrix" values="0 0 0 0 0 0 0 0 0 0 0 0 0 0 0 0 0 0 0.25 0"/>
<feBlend mode="normal" in2="BackgroundImageFix" result="effect1_dropShadow_38_1326"/>
<feBlend mode="normal" in="SourceGraphic" in2="effect1_dropShadow_38_1326" result="shape"/>
</filter>
<filter id="filter27_d_38_1326" x="140.444" y="214.103" width="55.2316" height="53.0211" filterUnits="userSpaceOnUse" color-interpolation-filters="sRGB">
<feFlood flood-opacity="0" result="BackgroundImageFix"/>
<feColorMatrix in="SourceAlpha" type="matrix" values="0 0 0 0 0 0 0 0 0 0 0 0 0 0 0 0 0 0 127 0" result="hardAlpha"/>
<feOffset dy="2.46881"/>
<feGaussianBlur stdDeviation="1.23441"/>
<feComposite in2="hardAlpha" operator="out"/>
<feColorMatrix type="matrix" values="0 0 0 0 0 0 0 0 0 0 0 0 0 0 0 0 0 0 0.25 0"/>
<feBlend mode="normal" in2="BackgroundImageFix" result="effect1_dropShadow_38_1326"/>
<feBlend mode="normal" in="SourceGraphic" in2="effect1_dropShadow_38_1326" result="shape"/>
</filter>
<filter id="filter28_d_38_1326" x="406.449" y="255.405" width="55.2316" height="53.0211" filterUnits="userSpaceOnUse" color-interpolation-filters="sRGB">
<feFlood flood-opacity="0" result="BackgroundImageFix"/>
<feColorMatrix in="SourceAlpha" type="matrix" values="0 0 0 0 0 0 0 0 0 0 0 0 0 0 0 0 0 0 127 0" result="hardAlpha"/>
<feOffset dy="2.46881"/>
<feGaussianBlur stdDeviation="1.23441"/>
<feComposite in2="hardAlpha" operator="out"/>
<feColorMatrix type="matrix" values="0 0 0 0 0 0 0 0 0 0 0 0 0 0 0 0 0 0 0.25 0"/>
<feBlend mode="normal" in2="BackgroundImageFix" result="effect1_dropShadow_38_1326"/>
<feBlend mode="normal" in="SourceGraphic" in2="effect1_dropShadow_38_1326" result="shape"/>
</filter>
<filter id="filter29_d_38_1326" x="587.01" y="430.016" width="81.3986" height="74.2703" filterUnits="userSpaceOnUse" color-interpolation-filters="sRGB">
<feFlood flood-opacity="0" result="BackgroundImageFix"/>
<feColorMatrix in="SourceAlpha" type="matrix" values="0 0 0 0 0 0 0 0 0 0 0 0 0 0 0 0 0 0 127 0" result="hardAlpha"/>
<feOffset dy="2.46881"/>
<feGaussianBlur stdDeviation="1.23441"/>
<feComposite in2="hardAlpha" operator="out"/>
<feColorMatrix type="matrix" values="0 0 0 0 0 0 0 0 0 0 0 0 0 0 0 0 0 0 0.25 0"/>
<feBlend mode="normal" in2="BackgroundImageFix" result="effect1_dropShadow_38_1326"/>
<feBlend mode="normal" in="SourceGraphic" in2="effect1_dropShadow_38_1326" result="shape"/>
</filter>
<filter id="filter30_d_38_1326" x="1198.82" y="105.436" width="81.3986" height="74.2702" filterUnits="userSpaceOnUse" color-interpolation-filters="sRGB">
<feFlood flood-opacity="0" result="BackgroundImageFix"/>
<feColorMatrix in="SourceAlpha" type="matrix" values="0 0 0 0 0 0 0 0 0 0 0 0 0 0 0 0 0 0 127 0" result="hardAlpha"/>
<feOffset dy="2.46881"/>
<feGaussianBlur stdDeviation="1.23441"/>
<feComposite in2="hardAlpha" operator="out"/>
<feColorMatrix type="matrix" values="0 0 0 0 0 0 0 0 0 0 0 0 0 0 0 0 0 0 0.25 0"/>
<feBlend mode="normal" in2="BackgroundImageFix" result="effect1_dropShadow_38_1326"/>
<feBlend mode="normal" in="SourceGraphic" in2="effect1_dropShadow_38_1326" result="shape"/>
</filter>
<filter id="filter31_d_38_1326" x="640.66" y="420.158" width="55.2316" height="53.0211" filterUnits="userSpaceOnUse" color-interpolation-filters="sRGB">
<feFlood flood-opacity="0" result="BackgroundImageFix"/>
<feColorMatrix in="SourceAlpha" type="matrix" values="0 0 0 0 0 0 0 0 0 0 0 0 0 0 0 0 0 0 127 0" result="hardAlpha"/>
<feOffset dy="2.46881"/>
<feGaussianBlur stdDeviation="1.23441"/>
<feComposite in2="hardAlpha" operator="out"/>
<feColorMatrix type="matrix" values="0 0 0 0 0 0 0 0 0 0 0 0 0 0 0 0 0 0 0.25 0"/>
<feBlend mode="normal" in2="BackgroundImageFix" result="effect1_dropShadow_38_1326"/>
<feBlend mode="normal" in="SourceGraphic" in2="effect1_dropShadow_38_1326" result="shape"/>
</filter>
<filter id="filter32_d_38_1326" x="1171.34" y="95.577" width="55.2316" height="53.0211" filterUnits="userSpaceOnUse" color-interpolation-filters="sRGB">
<feFlood flood-opacity="0" result="BackgroundImageFix"/>
<feColorMatrix in="SourceAlpha" type="matrix" values="0 0 0 0 0 0 0 0 0 0 0 0 0 0 0 0 0 0 127 0" result="hardAlpha"/>
<feOffset dy="2.46881"/>
<feGaussianBlur stdDeviation="1.23441"/>
<feComposite in2="hardAlpha" operator="out"/>
<feColorMatrix type="matrix" values="0 0 0 0 0 0 0 0 0 0 0 0 0 0 0 0 0 0 0.25 0"/>
<feBlend mode="normal" in2="BackgroundImageFix" result="effect1_dropShadow_38_1326"/>
<feBlend mode="normal" in="SourceGraphic" in2="effect1_dropShadow_38_1326" result="shape"/>
</filter>
<filter id="filter33_d_38_1326" x="287.17" y="34.2576" width="77.6412" height="79.2146" filterUnits="userSpaceOnUse" color-interpolation-filters="sRGB">
<feFlood flood-opacity="0" result="BackgroundImageFix"/>
<feColorMatrix in="SourceAlpha" type="matrix" values="0 0 0 0 0 0 0 0 0 0 0 0 0 0 0 0 0 0 127 0" result="hardAlpha"/>
<feOffset dy="2.46881"/>
<feGaussianBlur stdDeviation="1.23441"/>
<feComposite in2="hardAlpha" operator="out"/>
<feColorMatrix type="matrix" values="0 0 0 0 0 0 0 0 0 0 0 0 0 0 0 0 0 0 0.25 0"/>
<feBlend mode="normal" in2="BackgroundImageFix" result="effect1_dropShadow_38_1326"/>
<feBlend mode="normal" in="SourceGraphic" in2="effect1_dropShadow_38_1326" result="shape"/>
</filter>
<filter id="filter34_d_38_1326" x="1198.59" y="433.42" width="79.4013" height="76.027" filterUnits="userSpaceOnUse" color-interpolation-filters="sRGB">
<feFlood flood-opacity="0" result="BackgroundImageFix"/>
<feColorMatrix in="SourceAlpha" type="matrix" values="0 0 0 0 0 0 0 0 0 0 0 0 0 0 0 0 0 0 127 0" result="hardAlpha"/>
<feOffset dy="2.54414"/>
<feGaussianBlur stdDeviation="1.27207"/>
<feComposite in2="hardAlpha" operator="out"/>
<feColorMatrix type="matrix" values="0 0 0 0 0 0 0 0 0 0 0 0 0 0 0 0 0 0 0.25 0"/>
<feBlend mode="normal" in2="BackgroundImageFix" result="effect1_dropShadow_38_1326"/>
<feBlend mode="normal" in="SourceGraphic" in2="effect1_dropShadow_38_1326" result="shape"/>
</filter>
<filter id="filter35_d_38_1326" x="1190.64" y="486.476" width="56.9169" height="54.6389" filterUnits="userSpaceOnUse" color-interpolation-filters="sRGB">
<feFlood flood-opacity="0" result="BackgroundImageFix"/>
<feColorMatrix in="SourceAlpha" type="matrix" values="0 0 0 0 0 0 0 0 0 0 0 0 0 0 0 0 0 0 127 0" result="hardAlpha"/>
<feOffset dy="2.54414"/>
<feGaussianBlur stdDeviation="1.27207"/>
<feComposite in2="hardAlpha" operator="out"/>
<feColorMatrix type="matrix" values="0 0 0 0 0 0 0 0 0 0 0 0 0 0 0 0 0 0 0.25 0"/>
<feBlend mode="normal" in2="BackgroundImageFix" result="effect1_dropShadow_38_1326"/>
<feBlend mode="normal" in="SourceGraphic" in2="effect1_dropShadow_38_1326" result="shape"/>
</filter>
<filter id="filter36_d_38_1326" x="636.313" y="462.6" width="56.9169" height="54.6389" filterUnits="userSpaceOnUse" color-interpolation-filters="sRGB">
<feFlood flood-opacity="0" result="BackgroundImageFix"/>
<feColorMatrix in="SourceAlpha" type="matrix" values="0 0 0 0 0 0 0 0 0 0 0 0 0 0 0 0 0 0 127 0" result="hardAlpha"/>
<feOffset dy="2.54414"/>
<feGaussianBlur stdDeviation="1.27207"/>
<feComposite in2="hardAlpha" operator="out"/>
<feColorMatrix type="matrix" values="0 0 0 0 0 0 0 0 0 0 0 0 0 0 0 0 0 0 0.25 0"/>
<feBlend mode="normal" in2="BackgroundImageFix" result="effect1_dropShadow_38_1326"/>
<feBlend mode="normal" in="SourceGraphic" in2="effect1_dropShadow_38_1326" result="shape"/>
</filter>
<filter id="filter37_d_38_1326" x="1174" y="138.02" width="56.9169" height="54.6388" filterUnits="userSpaceOnUse" color-interpolation-filters="sRGB">
<feFlood flood-opacity="0" result="BackgroundImageFix"/>
<feColorMatrix in="SourceAlpha" type="matrix" values="0 0 0 0 0 0 0 0 0 0 0 0 0 0 0 0 0 0 127 0" result="hardAlpha"/>
<feOffset dy="2.54414"/>
<feGaussianBlur stdDeviation="1.27207"/>
<feComposite in2="hardAlpha" operator="out"/>
<feColorMatrix type="matrix" values="0 0 0 0 0 0 0 0 0 0 0 0 0 0 0 0 0 0 0.25 0"/>
<feBlend mode="normal" in2="BackgroundImageFix" result="effect1_dropShadow_38_1326"/>
<feBlend mode="normal" in="SourceGraphic" in2="effect1_dropShadow_38_1326" result="shape"/>
</filter>
<filter id="filter38_d_38_1326" x="822.383" y="642.54" width="83.8822" height="76.5365" filterUnits="userSpaceOnUse" color-interpolation-filters="sRGB">
<feFlood flood-opacity="0" result="BackgroundImageFix"/>
<feColorMatrix in="SourceAlpha" type="matrix" values="0 0 0 0 0 0 0 0 0 0 0 0 0 0 0 0 0 0 127 0" result="hardAlpha"/>
<feOffset dy="2.54414"/>
<feGaussianBlur stdDeviation="1.27207"/>
<feComposite in2="hardAlpha" operator="out"/>
<feColorMatrix type="matrix" values="0 0 0 0 0 0 0 0 0 0 0 0 0 0 0 0 0 0 0.25 0"/>
<feBlend mode="normal" in2="BackgroundImageFix" result="effect1_dropShadow_38_1326"/>
<feBlend mode="normal" in="SourceGraphic" in2="effect1_dropShadow_38_1326" result="shape"/>
</filter>
<filter id="filter39_d_38_1326" x="877.669" y="632.38" width="56.9169" height="54.6389" filterUnits="userSpaceOnUse" color-interpolation-filters="sRGB">
<feFlood flood-opacity="0" result="BackgroundImageFix"/>
<feColorMatrix in="SourceAlpha" type="matrix" values="0 0 0 0 0 0 0 0 0 0 0 0 0 0 0 0 0 0 127 0" result="hardAlpha"/>
<feOffset dy="2.54414"/>
<feGaussianBlur stdDeviation="1.27207"/>
<feComposite in2="hardAlpha" operator="out"/>
<feColorMatrix type="matrix" values="0 0 0 0 0 0 0 0 0 0 0 0 0 0 0 0 0 0 0.25 0"/>
<feBlend mode="normal" in2="BackgroundImageFix" result="effect1_dropShadow_38_1326"/>
<feBlend mode="normal" in="SourceGraphic" in2="effect1_dropShadow_38_1326" result="shape"/>
</filter>
<filter id="filter40_d_38_1326" x="389.688" y="58.4314" width="207.794" height="219.993" filterUnits="userSpaceOnUse" color-interpolation-filters="sRGB">
<feFlood flood-opacity="0" result="BackgroundImageFix"/>
<feColorMatrix in="SourceAlpha" type="matrix" values="0 0 0 0 0 0 0 0 0 0 0 0 0 0 0 0 0 0 127 0" result="hardAlpha"/>
<feOffset dy="2.46881"/>
<feGaussianBlur stdDeviation="1.23441"/>
<feComposite in2="hardAlpha" operator="out"/>
<feColorMatrix type="matrix" values="0 0 0 0 0 0 0 0 0 0 0 0 0 0 0 0 0 0 0.25 0"/>
<feBlend mode="normal" in2="BackgroundImageFix" result="effect1_dropShadow_38_1326"/>
<feBlend mode="normal" in="SourceGraphic" in2="effect1_dropShadow_38_1326" result="shape"/>
</filter>
<filter id="filter41_d_38_1326" x="530.69" y="224.454" width="162.363" height="210.337" filterUnits="userSpaceOnUse" color-interpolation-filters="sRGB">
<feFlood flood-opacity="0" result="BackgroundImageFix"/>
<feColorMatrix in="SourceAlpha" type="matrix" values="0 0 0 0 0 0 0 0 0 0 0 0 0 0 0 0 0 0 127 0" result="hardAlpha"/>
<feOffset dy="2.46881"/>
<feGaussianBlur stdDeviation="1.23441"/>
<feComposite in2="hardAlpha" operator="out"/>
<feColorMatrix type="matrix" values="0 0 0 0 0 0 0 0 0 0 0 0 0 0 0 0 0 0 0.25 0"/>
<feBlend mode="normal" in2="BackgroundImageFix" result="effect1_dropShadow_38_1326"/>
<feBlend mode="normal" in="SourceGraphic" in2="effect1_dropShadow_38_1326" result="shape"/>
</filter>
<filter id="filter42_d_38_1326" x="574.701" y="309.255" width="65.296" height="37.5009" filterUnits="userSpaceOnUse" color-interpolation-filters="sRGB">
<feFlood flood-opacity="0" result="BackgroundImageFix"/>
<feColorMatrix in="SourceAlpha" type="matrix" values="0 0 0 0 0 0 0 0 0 0 0 0 0 0 0 0 0 0 127 0" result="hardAlpha"/>
<feOffset dy="1.23441"/>
<feGaussianBlur stdDeviation="0.925804"/>
<feComposite in2="hardAlpha" operator="out"/>
<feColorMatrix type="matrix" values="0 0 0 0 0 0 0 0 0 0 0 0 0 0 0 0 0 0 0.25 0"/>
<feBlend mode="normal" in2="BackgroundImageFix" result="effect1_dropShadow_38_1326"/>
<feBlend mode="normal" in="SourceGraphic" in2="effect1_dropShadow_38_1326" result="shape"/>
</filter>
<filter id="filter43_d_38_1326" x="709.007" y="227.67" width="213.003" height="245.344" filterUnits="userSpaceOnUse" color-interpolation-filters="sRGB">
<feFlood flood-opacity="0" result="BackgroundImageFix"/>
<feColorMatrix in="SourceAlpha" type="matrix" values="0 0 0 0 0 0 0 0 0 0 0 0 0 0 0 0 0 0 127 0" result="hardAlpha"/>
<feOffset dy="2.46881"/>
<feGaussianBlur stdDeviation="1.23441"/>
<feComposite in2="hardAlpha" operator="out"/>
<feColorMatrix type="matrix" values="0 0 0 0 0 0 0 0 0 0 0 0 0 0 0 0 0 0 0.25 0"/>
<feBlend mode="normal" in2="BackgroundImageFix" result="effect1_dropShadow_38_1326"/>
<feBlend mode="normal" in="SourceGraphic" in2="effect1_dropShadow_38_1326" result="shape"/>
</filter>
<filter id="filter44_d_38_1326" x="725.238" y="302.336" width="149.353" height="151.836" filterUnits="userSpaceOnUse" color-interpolation-filters="sRGB">
<feFlood flood-opacity="0" result="BackgroundImageFix"/>
<feColorMatrix in="SourceAlpha" type="matrix" values="0 0 0 0 0 0 0 0 0 0 0 0 0 0 0 0 0 0 127 0" result="hardAlpha"/>
<feOffset dy="2.46881"/>
<feGaussianBlur stdDeviation="1.23441"/>
<feComposite in2="hardAlpha" operator="out"/>
<feColorMatrix type="matrix" values="0 0 0 0 0 0 0 0 0 0 0 0 0 0 0 0 0 0 0.25 0"/>
<feBlend mode="normal" in2="BackgroundImageFix" result="effect1_dropShadow_38_1326"/>
<feBlend mode="normal" in="SourceGraphic" in2="effect1_dropShadow_38_1326" result="shape"/>
</filter>
<filter id="filter45_d_38_1326" x="815.144" y="312.25" width="62.0177" height="42.086" filterUnits="userSpaceOnUse" color-interpolation-filters="sRGB">
<feFlood flood-opacity="0" result="BackgroundImageFix"/>
<feColorMatrix in="SourceAlpha" type="matrix" values="0 0 0 0 0 0 0 0 0 0 0 0 0 0 0 0 0 0 127 0" result="hardAlpha"/>
<feOffset dy="2.46881"/>
<feGaussianBlur stdDeviation="1.23441"/>
<feComposite in2="hardAlpha" operator="out"/>
<feColorMatrix type="matrix" values="0 0 0 0 0 0 0 0 0 0 0 0 0 0 0 0 0 0 0.25 0"/>
<feBlend mode="normal" in2="BackgroundImageFix" result="effect1_dropShadow_38_1326"/>
<feBlend mode="normal" in="SourceGraphic" in2="effect1_dropShadow_38_1326" result="shape"/>
</filter>
<filter id="filter46_d_38_1326" x="710.242" y="249.491" width="146.478" height="125.484" filterUnits="userSpaceOnUse" color-interpolation-filters="sRGB">
<feFlood flood-opacity="0" result="BackgroundImageFix"/>
<feColorMatrix in="SourceAlpha" type="matrix" values="0 0 0 0 0 0 0 0 0 0 0 0 0 0 0 0 0 0 127 0" result="hardAlpha"/>
<feOffset dy="0.617203"/>
<feGaussianBlur stdDeviation="0.617203"/>
<feComposite in2="hardAlpha" operator="out"/>
<feColorMatrix type="matrix" values="0 0 0 0 0 0 0 0 0 0 0 0 0 0 0 0 0 0 0.25 0"/>
<feBlend mode="normal" in2="BackgroundImageFix" result="effect1_dropShadow_38_1326"/>
<feBlend mode="normal" in="SourceGraphic" in2="effect1_dropShadow_38_1326" result="shape"/>
</filter>
<filter id="filter47_d_38_1326" x="738.771" y="356.059" width="38.6769" height="73.8643" filterUnits="userSpaceOnUse" color-interpolation-filters="sRGB">
<feFlood flood-opacity="0" result="BackgroundImageFix"/>
<feColorMatrix in="SourceAlpha" type="matrix" values="0 0 0 0 0 0 0 0 0 0 0 0 0 0 0 0 0 0 127 0" result="hardAlpha"/>
<feOffset dy="2.46881"/>
<feGaussianBlur stdDeviation="1.23441"/>
<feComposite in2="hardAlpha" operator="out"/>
<feColorMatrix type="matrix" values="0 0 0 0 0 0 0 0 0 0 0 0 0 0 0 0 0 0 0.25 0"/>
<feBlend mode="normal" in2="BackgroundImageFix" result="effect1_dropShadow_38_1326"/>
<feBlend mode="normal" in="SourceGraphic" in2="effect1_dropShadow_38_1326" result="shape"/>
</filter>
<filter id="filter48_d_38_1326" x="788.232" y="293.811" width="78.1295" height="57.0269" filterUnits="userSpaceOnUse" color-interpolation-filters="sRGB">
<feFlood flood-opacity="0" result="BackgroundImageFix"/>
<feColorMatrix in="SourceAlpha" type="matrix" values="0 0 0 0 0 0 0 0 0 0 0 0 0 0 0 0 0 0 127 0" result="hardAlpha"/>
<feOffset dy="1.23441"/>
<feGaussianBlur stdDeviation="1.23441"/>
<feComposite in2="hardAlpha" operator="out"/>
<feColorMatrix type="matrix" values="0 0 0 0 0 0 0 0 0 0 0 0 0 0 0 0 0 0 0.25 0"/>
<feBlend mode="normal" in2="BackgroundImageFix" result="effect1_dropShadow_38_1326"/>
<feBlend mode="normal" in="SourceGraphic" in2="effect1_dropShadow_38_1326" result="shape"/>
</filter>
<filter id="filter49_d_38_1326" x="709.433" y="330.262" width="85.8219" height="49.7922" filterUnits="userSpaceOnUse" color-interpolation-filters="sRGB">
<feFlood flood-opacity="0" result="BackgroundImageFix"/>
<feColorMatrix in="SourceAlpha" type="matrix" values="0 0 0 0 0 0 0 0 0 0 0 0 0 0 0 0 0 0 127 0" result="hardAlpha"/>
<feOffset dy="1.23441"/>
<feGaussianBlur stdDeviation="1.23441"/>
<feComposite in2="hardAlpha" operator="out"/>
<feColorMatrix type="matrix" values="0 0 0 0 0 0 0 0 0 0 0 0 0 0 0 0 0 0 0.25 0"/>
<feBlend mode="normal" in2="BackgroundImageFix" result="effect1_dropShadow_38_1326"/>
<feBlend mode="normal" in="SourceGraphic" in2="effect1_dropShadow_38_1326" result="shape"/>
</filter>
<filter id="filter50_d_38_1326" x="784.292" y="72.4378" width="233.484" height="206.174" filterUnits="userSpaceOnUse" color-interpolation-filters="sRGB">
<feFlood flood-opacity="0" result="BackgroundImageFix"/>
<feColorMatrix in="SourceAlpha" type="matrix" values="0 0 0 0 0 0 0 0 0 0 0 0 0 0 0 0 0 0 127 0" result="hardAlpha"/>
<feOffset dy="2.46881"/>
<feGaussianBlur stdDeviation="1.23441"/>
<feComposite in2="hardAlpha" operator="out"/>
<feColorMatrix type="matrix" values="0 0 0 0 0 0 0 0 0 0 0 0 0 0 0 0 0 0 0.25 0"/>
<feBlend mode="normal" in2="BackgroundImageFix" result="effect1_dropShadow_38_1326"/>
<feBlend mode="normal" in="SourceGraphic" in2="effect1_dropShadow_38_1326" result="shape"/>
</filter>
<filter id="filter51_d_38_1326" x="949.619" y="78.5522" width="64.4078" height="23.8531" filterUnits="userSpaceOnUse" color-interpolation-filters="sRGB">
<feFlood flood-opacity="0" result="BackgroundImageFix"/>
<feColorMatrix in="SourceAlpha" type="matrix" values="0 0 0 0 0 0 0 0 0 0 0 0 0 0 0 0 0 0 127 0" result="hardAlpha"/>
<feOffset dy="2.46881"/>
<feGaussianBlur stdDeviation="1.23441"/>
<feComposite in2="hardAlpha" operator="out"/>
<feColorMatrix type="matrix" values="0 0 0 0 0 0 0 0 0 0 0 0 0 0 0 0 0 0 0.3 0"/>
<feBlend mode="normal" in2="BackgroundImageFix" result="effect1_dropShadow_38_1326"/>
<feBlend mode="normal" in="SourceGraphic" in2="effect1_dropShadow_38_1326" result="shape"/>
</filter>
<filter id="filter52_d_38_1326" x="937.108" y="116.537" width="65.5406" height="27.4827" filterUnits="userSpaceOnUse" color-interpolation-filters="sRGB">
<feFlood flood-opacity="0" result="BackgroundImageFix"/>
<feColorMatrix in="SourceAlpha" type="matrix" values="0 0 0 0 0 0 0 0 0 0 0 0 0 0 0 0 0 0 127 0" result="hardAlpha"/>
<feOffset dy="2.46881"/>
<feGaussianBlur stdDeviation="1.23441"/>
<feComposite in2="hardAlpha" operator="out"/>
<feColorMatrix type="matrix" values="0 0 0 0 0 0 0 0 0 0 0 0 0 0 0 0 0 0 0.3 0"/>
<feBlend mode="normal" in2="BackgroundImageFix" result="effect1_dropShadow_38_1326"/>
<feBlend mode="normal" in="SourceGraphic" in2="effect1_dropShadow_38_1326" result="shape"/>
</filter>
<filter id="filter53_d_38_1326" x="927.883" y="148.481" width="63.3639" height="32.4732" filterUnits="userSpaceOnUse" color-interpolation-filters="sRGB">
<feFlood flood-opacity="0" result="BackgroundImageFix"/>
<feColorMatrix in="SourceAlpha" type="matrix" values="0 0 0 0 0 0 0 0 0 0 0 0 0 0 0 0 0 0 127 0" result="hardAlpha"/>
<feOffset dy="2.46881"/>
<feGaussianBlur stdDeviation="1.23441"/>
<feComposite in2="hardAlpha" operator="out"/>
<feColorMatrix type="matrix" values="0 0 0 0 0 0 0 0 0 0 0 0 0 0 0 0 0 0 0.3 0"/>
<feBlend mode="normal" in2="BackgroundImageFix" result="effect1_dropShadow_38_1326"/>
<feBlend mode="normal" in="SourceGraphic" in2="effect1_dropShadow_38_1326" result="shape"/>
</filter>
<filter id="filter54_d_38_1326" x="909.327" y="101.443" width="29.4449" height="20.0314" filterUnits="userSpaceOnUse" color-interpolation-filters="sRGB">
<feFlood flood-opacity="0" result="BackgroundImageFix"/>
<feColorMatrix in="SourceAlpha" type="matrix" values="0 0 0 0 0 0 0 0 0 0 0 0 0 0 0 0 0 0 127 0" result="hardAlpha"/>
<feOffset dy="2.46881"/>
<feGaussianBlur stdDeviation="1.23441"/>
<feComposite in2="hardAlpha" operator="out"/>
<feColorMatrix type="matrix" values="0 0 0 0 0 0 0 0 0 0 0 0 0 0 0 0 0 0 0.3 0"/>
<feBlend mode="normal" in2="BackgroundImageFix" result="effect1_dropShadow_38_1326"/>
<feBlend mode="normal" in="SourceGraphic" in2="effect1_dropShadow_38_1326" result="shape"/>
</filter>
<filter id="filter55_d_38_1326" x="914.946" y="80.9077" width="27.6412" height="20.8619" filterUnits="userSpaceOnUse" color-interpolation-filters="sRGB">
<feFlood flood-opacity="0" result="BackgroundImageFix"/>
<feColorMatrix in="SourceAlpha" type="matrix" values="0 0 0 0 0 0 0 0 0 0 0 0 0 0 0 0 0 0 127 0" result="hardAlpha"/>
<feOffset dy="2.46881"/>
<feGaussianBlur stdDeviation="1.23441"/>
<feComposite in2="hardAlpha" operator="out"/>
<feColorMatrix type="matrix" values="0 0 0 0 0 0 0 0 0 0 0 0 0 0 0 0 0 0 0.3 0"/>
<feBlend mode="normal" in2="BackgroundImageFix" result="effect1_dropShadow_38_1326"/>
<feBlend mode="normal" in="SourceGraphic" in2="effect1_dropShadow_38_1326" result="shape"/>
</filter>
<filter id="filter56_d_38_1326" x="873.634" y="94.9138" width="10.3077" height="7.96268" filterUnits="userSpaceOnUse" color-interpolation-filters="sRGB">
<feFlood flood-opacity="0" result="BackgroundImageFix"/>
<feColorMatrix in="SourceAlpha" type="matrix" values="0 0 0 0 0 0 0 0 0 0 0 0 0 0 0 0 0 0 127 0" result="hardAlpha"/>
<feOffset dy="2.46881"/>
<feGaussianBlur stdDeviation="1.23441"/>
<feComposite in2="hardAlpha" operator="out"/>
<feColorMatrix type="matrix" values="0 0 0 0 0 0 0 0 0 0 0 0 0 0 0 0 0 0 0.3 0"/>
<feBlend mode="normal" in2="BackgroundImageFix" result="effect1_dropShadow_38_1326"/>
<feBlend mode="normal" in="SourceGraphic" in2="effect1_dropShadow_38_1326" result="shape"/>
</filter>
<filter id="filter57_d_38_1326" x="886.924" y="83.7847" width="23.5323" height="17.269" filterUnits="userSpaceOnUse" color-interpolation-filters="sRGB">
<feFlood flood-opacity="0" result="BackgroundImageFix"/>
<feColorMatrix in="SourceAlpha" type="matrix" values="0 0 0 0 0 0 0 0 0 0 0 0 0 0 0 0 0 0 127 0" result="hardAlpha"/>
<feOffset dy="2.46881"/>
<feGaussianBlur stdDeviation="1.23441"/>
<feComposite in2="hardAlpha" operator="out"/>
<feColorMatrix type="matrix" values="0 0 0 0 0 0 0 0 0 0 0 0 0 0 0 0 0 0 0.3 0"/>
<feBlend mode="normal" in2="BackgroundImageFix" result="effect1_dropShadow_38_1326"/>
<feBlend mode="normal" in="SourceGraphic" in2="effect1_dropShadow_38_1326" result="shape"/>
</filter>
<filter id="filter58_d_38_1326" x="920.907" y="169.905" width="63.3824" height="63.8697" filterUnits="userSpaceOnUse" color-interpolation-filters="sRGB">
<feFlood flood-opacity="0" result="BackgroundImageFix"/>
<feColorMatrix in="SourceAlpha" type="matrix" values="0 0 0 0 0 0 0 0 0 0 0 0 0 0 0 0 0 0 127 0" result="hardAlpha"/>
<feOffset dy="2.46881"/>
<feGaussianBlur stdDeviation="1.23441"/>
<feComposite in2="hardAlpha" operator="out"/>
<feColorMatrix type="matrix" values="0 0 0 0 0 0 0 0 0 0 0 0 0 0 0 0 0 0 0.3 0"/>
<feBlend mode="normal" in2="BackgroundImageFix" result="effect1_dropShadow_38_1326"/>
<feBlend mode="normal" in="SourceGraphic" in2="effect1_dropShadow_38_1326" result="shape"/>
</filter>
<linearGradient id="paint0_linear_38_1326" x1="720" y1="0" x2="720" y2="1014" gradientUnits="userSpaceOnUse">
<stop stop-color="#609840"/>
<stop offset="1" stop-color="#7FB85E"/>
</linearGradient>
<linearGradient id="paint1_linear_38_1326" x1="720" y1="0" x2="720" y2="1635" gradientUnits="userSpaceOnUse">
<stop stop-color="#609840"/>
<stop offset="1" stop-color="#BBF998"/>
</linearGradient>
</defs>
</svg>
