<svg width="39" height="38" viewBox="0 0 39 38" fill="none" xmlns="http://www.w3.org/2000/svg">
<path d="M15.8301 15.6162C14.7692 15.6162 13.9316 16.5468 13.9316 17.6822C13.9316 18.8175 14.7878 19.7481 15.8301 19.7481C16.891 19.7481 17.7285 18.8175 17.7285 17.6822C17.7471 16.5468 16.891 15.6162 15.8301 15.6162ZM22.6236 15.6162C21.5627 15.6162 20.7251 16.5468 20.7251 17.6822C20.7251 18.8175 21.5813 19.7481 22.6236 19.7481C23.6845 19.7481 24.522 18.8175 24.522 17.6822C24.522 16.5468 23.6845 15.6162 22.6236 15.6162Z" fill="white"/>
<path d="M31.6699 0H6.72957C4.62639 0 2.91406 1.71233 2.91406 3.83413V28.9978C2.91406 31.1196 4.62639 32.832 6.72957 32.832H27.8359L26.8494 29.3887L29.2318 31.6035L31.4839 33.6881L35.4855 37.2244V3.83413C35.4855 1.71233 33.7731 0 31.6699 0ZM24.4856 24.3075C24.4856 24.3075 23.8157 23.5073 23.2573 22.8C25.6954 22.1113 26.6261 20.5851 26.6261 20.5851C25.863 21.0876 25.137 21.4412 24.4856 21.6833C23.5551 22.0742 22.6616 22.3348 21.7869 22.4835C20.0001 22.8186 18.3622 22.7256 16.9663 22.4651C15.9054 22.2602 14.9934 21.9624 14.2303 21.6647C13.8022 21.4971 13.3369 21.2925 12.8716 21.0319C12.8158 20.9946 12.7599 20.976 12.7041 20.9387C12.6669 20.9201 12.6483 20.9016 12.6297 20.883C12.2946 20.6968 12.1085 20.5665 12.1085 20.5665C12.1085 20.5665 13.0019 22.0556 15.3657 22.7627C14.8073 23.4701 14.1186 24.3075 14.1186 24.3075C10.0053 24.1772 8.44191 21.4785 8.44191 21.4785C8.44191 15.4854 11.1221 10.6276 11.1221 10.6276C13.8022 8.61748 16.3521 8.6733 16.3521 8.6733L16.5382 8.89665C13.188 9.86449 11.6432 11.3349 11.6432 11.3349C11.6432 11.3349 12.0527 11.1115 12.7413 10.7951C14.7328 9.92033 16.3149 9.67836 16.9663 9.62252C17.078 9.60392 17.171 9.5853 17.2827 9.5853C18.4181 9.43641 19.7023 9.39919 21.0424 9.54808C22.8105 9.75281 24.7091 10.274 26.6447 11.3349C26.6447 11.3349 25.1743 9.93894 22.0101 8.97109L22.2707 8.6733C22.2707 8.6733 24.8207 8.61748 27.5008 10.6276C27.5008 10.6276 30.1811 15.4854 30.1811 21.4785C30.1811 21.4785 28.599 24.1772 24.4856 24.3075Z" fill="white"/>
<path d="M15.8301 15.6162C14.7692 15.6162 13.9316 16.5468 13.9316 17.6822C13.9316 18.8175 14.7878 19.7481 15.8301 19.7481C16.891 19.7481 17.7285 18.8175 17.7285 17.6822C17.7471 16.5468 16.891 15.6162 15.8301 15.6162ZM22.6236 15.6162C21.5627 15.6162 20.7251 16.5468 20.7251 17.6822C20.7251 18.8175 21.5813 19.7481 22.6236 19.7481C23.6845 19.7481 24.522 18.8175 24.522 17.6822C24.522 16.5468 23.6845 15.6162 22.6236 15.6162Z" fill="white"/>
</svg>
