<svg xmlns="http://www.w3.org/2000/svg" width="34" height="34" fill="none" viewBox="0 0 34 34"><path fill="#fff" d="M16.7953 -0.000488281C12.2353 -0.000488281 11.662 0.0195157 9.86863 0.0995314C8.08196 0.179548 6.86196 0.46627 5.7953 0.879684C4.68863 1.30644 3.75529 1.88654 2.82196 2.82007C1.88862 3.75358 1.31529 4.69377 0.881954 5.79398C0.46862 6.86086 0.181954 8.08111 0.101953 9.87478C0.0219532 11.6618 0.00195312 12.2353 0.00195312 16.7962C0.00195312 21.357 0.0219532 21.9305 0.101953 23.7242C0.181954 25.5112 0.46862 26.7314 0.881954 27.805C1.30862 28.9118 1.88862 29.8454 2.82196 30.779C3.75529 31.7124 4.6953 32.2859 5.7953 32.7194C6.86196 33.1327 8.08196 33.4194 9.8753 33.4994C11.6686 33.5795 12.2353 33.5995 16.802 33.5995C21.362 33.5995 21.9354 33.5795 23.7286 33.4994C25.5154 33.4194 26.7354 33.1327 27.8087 32.7194C28.9153 32.2926 29.8487 31.7124 30.7819 30.779C31.7153 29.8454 32.2887 28.9053 32.722 27.805C33.1353 26.7382 33.422 25.5179 33.502 23.7242C33.582 21.9305 33.602 21.3637 33.602 16.7962C33.602 12.2353 33.582 11.6618 33.502 9.86811C33.422 8.08109 33.1353 6.86086 32.722 5.78731C32.2953 4.68043 31.7153 3.74692 30.7819 2.8134C29.8487 1.87989 28.9086 1.30644 27.8087 0.873017C26.7419 0.459602 25.5219 0.172879 23.7286 0.0928634C21.9286 0.0195157 21.3553 -0.000488281 16.7953 -0.000488281ZM16.7953 3.02678C21.282 3.02678 21.8087 3.04677 23.5819 3.12679C25.2221 3.20014 26.1086 3.47352 26.702 3.70691C27.4887 4.01364 28.0486 4.37371 28.6353 4.96049C29.2219 5.54727 29.5887 6.10738 29.8887 6.8942C30.1153 7.48765 30.3954 8.37449 30.4686 10.0148C30.5486 11.7885 30.5686 12.3153 30.5686 16.8029C30.5686 21.2903 30.5486 21.8171 30.4686 23.5908C30.3954 25.2311 30.122 26.118 29.8887 26.7114C29.5819 27.4983 29.2219 28.0584 28.6353 28.6451C28.0486 29.2319 27.4887 29.5987 26.702 29.8988C26.1086 30.1255 25.2221 30.4054 23.5819 30.4789C21.8087 30.5588 21.282 30.5788 16.7953 30.5788C12.3086 30.5788 11.782 30.5588 10.0086 30.4789C8.36863 30.4054 7.48196 30.132 6.88862 29.8988C6.10196 29.592 5.54195 29.2319 4.95529 28.6451C4.36863 28.0584 4.00196 27.4983 3.70196 26.7114C3.47528 26.118 3.19528 25.2311 3.12195 23.5908C3.04195 21.8171 3.02196 21.2903 3.02196 16.8029C3.02196 12.3153 3.04195 11.7885 3.12195 10.0148C3.19528 8.37449 3.46863 7.48765 3.70196 6.8942C4.00863 6.10738 4.36863 5.54727 4.95529 4.96049C5.54195 4.37371 6.10196 4.00697 6.88862 3.70691C7.48196 3.48019 8.36863 3.20014 10.0086 3.12679C11.782 3.0401 12.3153 3.02678 16.7953 3.02678Z"/><path fill="#fff" d="M16.7958 22.3973C13.7024 22.3973 11.1957 19.8901 11.1957 16.7962C11.1957 13.7022 13.7024 11.195 16.7958 11.195C19.8891 11.195 22.3957 13.7022 22.3957 16.7962C22.3957 19.8901 19.8891 22.3973 16.7958 22.3973ZM16.7958 8.17443C12.0357 8.17443 8.16904 12.0352 8.16904 16.8029C8.16904 21.5637 12.029 25.4312 16.7958 25.4312C21.5557 25.4312 25.4225 21.5704 25.4225 16.8029C25.4225 12.0352 21.5624 8.17443 16.7958 8.17443Z"/><path fill="#fff" d="M27.7755 7.8277C27.7755 8.94126 26.8755 9.84143 25.7622 9.84143C24.6489 9.84143 23.7489 8.94126 23.7489 7.8277C23.7489 6.71415 24.6489 5.81398 25.7622 5.81398C26.8755 5.81398 27.7755 6.71415 27.7755 7.8277Z"/></svg>