<svg width="178" height="177" viewBox="0 0 178 177" fill="none" xmlns="http://www.w3.org/2000/svg">
<path d="M131.367 122.949L16.0975 173.105C8.58362 176.095 1.11644 168.692 4.04143 161.153L54.4135 44.0691" fill="#FFB636"/>
<path d="M4.04061 161.153L8.04386 151.848L9.07302 150.278C28.9845 119.945 49.1877 89.7965 70.081 60.1296L93.5076 84.1422C75.8318 96.2771 18.4381 155.588 6.41629 171.321C3.79931 168.913 2.52747 165.054 4.04061 161.153Z" fill="#FFD469"/>
<path d="M105.726 70.6734C127.109 92.0565 138.805 115.03 131.849 121.986C124.893 128.942 101.92 117.246 80.5361 95.8634C59.1526 74.4803 47.4574 51.5069 54.4133 44.5507C61.3692 37.5944 84.3426 49.2899 105.726 70.6734Z" fill="#A06C33"/>
<path d="M54.2916 113.243C54.2916 115.321 52.6066 117.006 50.5286 117.006C48.4506 117.006 46.7656 115.321 46.7656 113.243C46.7656 111.164 48.4502 109.48 50.5286 109.48C52.607 109.48 54.2916 111.164 54.2916 113.243Z" fill="#F7F9AA"/>
<path d="M174.039 73.6901C174.039 76.6729 171.621 79.0907 168.638 79.0907C165.655 79.0907 163.237 76.6729 163.237 73.6901C163.237 70.7074 165.655 68.2896 168.638 68.2896C171.621 68.2896 174.039 70.7074 174.039 73.6901ZM137.974 145.604C134.991 145.604 132.573 148.022 132.573 151.005C132.573 153.987 134.991 156.405 137.974 156.405C140.957 156.405 143.374 153.987 143.374 151.005C143.374 148.022 140.956 145.604 137.974 145.604Z" fill="#FFB636"/>
<path d="M123.553 27.4914C123.09 30.6252 121.065 33.3933 117.997 35.0858C115.88 36.2543 113.389 36.8617 110.804 36.8617C109.981 36.861 109.159 36.8002 108.344 36.6799C106.516 36.4095 104.686 36.6854 103.324 37.4366C102.714 37.7733 101.665 38.51 101.495 39.6623C101.325 40.8145 102.116 41.8232 102.602 42.3221C103.659 43.4059 105.273 44.1823 107.044 44.4724C107.093 44.4776 107.141 44.4793 107.19 44.4865C114.664 45.5914 120.002 51.5112 119.089 57.6831C118.626 60.8172 116.601 63.5853 113.533 65.2778C111.416 66.4463 108.926 67.0537 106.341 67.0537C105.517 67.053 104.695 66.9922 103.88 66.8719C102.053 66.6012 100.222 66.877 98.8604 67.6286C98.2499 67.9653 97.201 68.702 97.0306 69.8542C96.7575 71.7034 99.0281 74.1448 102.724 74.691C104.735 74.9883 106.125 76.8596 105.827 78.8709C105.557 80.6996 103.985 82.014 102.191 82.014C102.011 82.014 101.83 82.0006 101.647 81.9739C94.1737 80.869 88.8357 74.9489 89.748 68.7774C90.2113 65.6432 92.236 62.8752 95.3038 61.1826C98.0885 59.6463 101.517 59.0801 104.957 59.5886C106.785 59.8586 108.615 59.583 109.977 58.8318C110.587 58.4951 111.636 57.7584 111.807 56.6062C112.075 54.7871 109.879 52.3986 106.288 51.8016C106.229 51.7957 106.17 51.7909 106.111 51.7823C102.671 51.2734 99.5529 49.7398 97.3321 47.4634C94.8855 44.9557 93.7482 41.7199 94.2117 38.5854C94.675 35.4516 96.6998 32.6835 99.7672 30.991C102.552 29.4547 105.98 28.8884 109.421 29.3969C111.248 29.6666 113.078 29.3914 114.44 28.6402C115.051 28.3035 116.1 27.5668 116.27 26.4146C116.44 25.2623 115.649 24.2536 115.163 23.7547C114.077 22.6416 112.405 21.8478 110.576 21.5778C108.565 21.2805 107.176 19.4092 107.473 17.3979C107.771 15.3866 109.642 13.999 111.653 14.2946C115.093 14.8034 118.211 16.337 120.432 18.6134C122.879 21.1215 124.017 24.3573 123.553 27.4914Z" fill="#BEA4FF"/>
<path d="M28.7546 55.2049C28.7546 58.5849 26.0146 61.3249 22.6346 61.3249C19.2547 61.3249 16.5146 58.5849 16.5146 55.2049C16.5146 51.825 19.2547 49.085 22.6346 49.085C26.0146 49.085 28.7546 51.8247 28.7546 55.2049ZM138.151 48.1343C134.246 48.1343 131.08 51.2999 131.08 55.2046C131.08 59.1093 134.246 62.2749 138.151 62.2749C142.055 62.2749 145.221 59.1093 145.221 55.2046C145.221 51.2999 142.056 48.1343 138.151 48.1343ZM75.009 136.863C71.1039 136.863 67.9387 140.029 67.9387 143.934C67.9387 147.839 71.1043 151.004 75.009 151.004C78.9137 151.004 82.0793 147.839 82.0793 143.934C82.0793 140.029 78.9141 136.863 75.009 136.863ZM168.799 104.49C169.869 102.419 169.057 99.8739 166.986 98.8047C166.161 98.3788 165.176 97.8132 164.035 97.1588C154.012 91.4087 133.157 79.4443 108.601 99.2707C106.787 100.734 106.505 103.391 107.968 105.204C109.432 107.017 112.088 107.301 113.902 105.836C133.965 89.638 150.16 98.9274 159.836 104.478C161.012 105.153 162.123 105.791 163.114 106.302C163.606 106.557 164.144 106.711 164.696 106.758C165.248 106.805 165.804 106.742 166.332 106.574C166.86 106.405 167.35 106.135 167.773 105.777C168.196 105.42 168.545 104.982 168.799 104.49Z" fill="#FF6E83"/>
<path d="M150.823 21.702C150.823 23.7803 149.138 25.4649 147.06 25.4649C144.982 25.4649 143.297 23.7803 143.297 21.702C143.297 19.6236 144.982 17.939 147.06 17.939C149.138 17.9386 150.823 19.6236 150.823 21.702ZM16.514 4.1119C14.4356 4.1119 12.751 5.79651 12.751 7.87488C12.751 9.95324 14.4356 11.6379 16.514 11.6379C18.5923 11.6379 20.2773 9.95324 20.2773 7.87488C20.2773 5.79651 18.5923 4.1119 16.514 4.1119ZM75.5189 53.2214C75.9445 52.3869 76.4692 51.4366 77.0248 50.4306C79.8437 45.3242 83.7038 38.3313 83.9361 30.1866C84.2151 20.4018 79.1191 11.5179 68.7901 3.78175C66.997 2.4387 64.4554 2.8041 63.1133 4.59657C61.7706 6.38939 62.1354 8.931 63.9282 10.2734C72.1386 16.4227 76.0312 22.8608 75.829 29.9553C75.6527 36.1337 72.4767 41.8876 69.9244 46.5107C69.3364 47.5765 68.7805 48.5828 68.2951 49.5345C67.277 51.5296 68.069 53.972 70.0637 54.9901C70.6333 55.2816 71.264 55.4339 71.9039 55.4343C72.6519 55.4348 73.3855 55.2283 74.0235 54.8378C74.6615 54.4472 75.1791 53.8878 75.5189 53.2214Z" fill="#59CAFC"/>
</svg>
