<svg xmlns="http://www.w3.org/2000/svg" width="21" height="21" fill="none" viewBox="0 0 21 21"><g id="Group"><path id="Vector" stroke="#fff" stroke-linecap="round" stroke-linejoin="round" stroke-width="2" d="M10 2H3C2.46957 2 1.96086 2.21071 1.58579 2.58579C1.21071 2.96086 1 3.46957 1 4V18C1 18.5304 1.21071 19.0391 1.58579 19.4142C1.96086 19.7893 2.46957 20 3 20H17C17.5304 20 18.0391 19.7893 18.4142 19.4142C18.7893 19.0391 19 18.5304 19 18V11"/><path id="Vector_2" stroke="#fff" stroke-linecap="round" stroke-linejoin="round" stroke-width="2" d="M16.3751 1.62523C16.7729 1.2274 17.3125 1.00391 17.8751 1.00391C18.4377 1.00391 18.9773 1.2274 19.3751 1.62523C19.7729 2.02305 19.9964 2.56262 19.9964 3.12523C19.9964 3.68784 19.7729 4.2274 19.3751 4.62523L10.3621 13.6392C10.1246 13.8765 9.8313 14.0501 9.50909 14.1442L6.63609 14.9842C6.55005 15.0093 6.45883 15.0108 6.372 14.9886C6.28517 14.9663 6.20592 14.9212 6.14254 14.8578C6.07916 14.7944 6.03398 14.7151 6.01174 14.6283C5.98949 14.5415 5.991 14.4503 6.01609 14.3642L6.85609 11.4912C6.95062 11.1693 7.12463 10.8763 7.36209 10.6392L16.3751 1.62523Z"/></g></svg>