<svg width="154" height="154" viewBox="0 0 154 154" fill="none" xmlns="http://www.w3.org/2000/svg">
<path d="M117.31 36.5462C116.718 35.9529 116.014 35.4822 115.24 35.161C114.466 34.8399 113.636 34.6746 112.798 34.6746C111.96 34.6746 111.13 34.8399 110.355 35.161C109.581 35.4822 108.878 35.9529 108.286 36.5462L76.9897 67.7782L45.6937 36.4822C45.1012 35.8897 44.3978 35.4197 43.6236 35.099C42.8494 34.7783 42.0197 34.6133 41.1817 34.6133C40.3438 34.6133 39.514 34.7783 38.7398 35.099C37.9657 35.4197 37.2622 35.8897 36.6697 36.4822C36.0772 37.0747 35.6072 37.7782 35.2865 38.5523C34.9658 39.3265 34.8008 40.1563 34.8008 40.9942C34.8008 41.8322 34.9658 42.6619 35.2865 43.4361C35.6072 44.2103 36.0772 44.9137 36.6697 45.5062L67.9657 76.8022L36.6697 108.098C36.0772 108.691 35.6072 109.394 35.2865 110.168C34.9658 110.942 34.8008 111.772 34.8008 112.61C34.8008 113.448 34.9658 114.278 35.2865 115.052C35.6072 115.826 36.0772 116.53 36.6697 117.122C37.2622 117.715 37.9657 118.185 38.7398 118.505C39.514 118.826 40.3438 118.991 41.1817 118.991C42.0197 118.991 42.8494 118.826 43.6236 118.505C44.3978 118.185 45.1012 117.715 45.6937 117.122L76.9897 85.8262L108.286 117.122C108.878 117.715 109.582 118.185 110.356 118.505C111.13 118.826 111.96 118.991 112.798 118.991C113.636 118.991 114.465 118.826 115.24 118.505C116.014 118.185 116.717 117.715 117.31 117.122C117.902 116.53 118.372 115.826 118.693 115.052C119.014 114.278 119.179 113.448 119.179 112.61C119.179 111.772 119.014 110.942 118.693 110.168C118.372 109.394 117.902 108.691 117.31 108.098L86.0137 76.8022L117.31 45.5062C119.742 43.0742 119.742 38.9782 117.31 36.5462Z" fill="#EF626C"/>
</svg>
