<svg width="40" height="54" viewBox="0 0 40 54" fill="none" xmlns="http://www.w3.org/2000/svg">
<path fill-rule="evenodd" clip-rule="evenodd" d="M5.58333 13.9583C5.58333 6.24775 11.8311 0 19.5417 0C27.2522 0 33.5 6.24775 33.5 13.9583V22.3333H34.6167C37.0733 22.3333 39.0833 24.3433 39.0833 26.8V46.3417C39.0833 50.0267 36.0683 53.0417 32.3833 53.0417H6.7C3.015 53.0417 0 50.0267 0 46.3417V26.8C0 24.3433 2.01 22.3333 4.46667 22.3333H5.58333V13.9583ZM27.9167 13.9583V22.3333H11.1667V13.9583C11.1667 9.32975 14.9131 5.58334 19.5417 5.58334C24.1702 5.58334 27.9167 9.32975 27.9167 13.9583ZM19.5417 28.6146C18.4315 28.6134 17.3541 28.9904 16.4868 29.6834C15.6196 30.3764 15.0142 31.3442 14.7704 32.4272C14.5266 33.5102 14.659 34.644 15.1457 35.6418C15.6324 36.6396 16.4443 37.4418 17.4479 37.9164V44.6667C17.4479 45.222 17.6685 45.7545 18.0612 46.1472C18.4538 46.5398 18.9864 46.7604 19.5417 46.7604C20.097 46.7604 20.6295 46.5398 21.0222 46.1472C21.4148 45.7545 21.6354 45.222 21.6354 44.6667V37.9164C22.639 37.4418 23.451 36.6396 23.9377 35.6418C24.4243 34.644 24.5567 33.5102 24.3129 32.4272C24.0691 31.3442 23.4638 30.3764 22.5965 29.6834C21.7292 28.9904 20.6518 28.6134 19.5417 28.6146Z" fill="white"/>
</svg>
