<svg width="24" height="25" viewBox="0 0 24 25" fill="none" xmlns="http://www.w3.org/2000/svg">
<path d="M12.125 12.73C10.6332 12.73 9.20242 12.1374 8.14753 11.0825C7.09263 10.0276 6.5 8.59682 6.5 7.10498C6.5 5.61314 7.09263 4.1824 8.14753 3.12751C9.20242 2.07261 10.6332 1.47998 12.125 1.47998C13.6169 1.47998 15.0476 2.07261 16.1024 3.12751C17.1573 4.1824 17.75 5.61314 17.75 7.10498C17.75 8.59682 17.1573 10.0276 16.1024 11.0825C15.0476 12.1374 13.6169 12.73 12.125 12.73ZM12.125 10.48C12.5682 10.48 13.0071 10.3927 13.4166 10.2231C13.826 10.0535 14.198 9.80487 14.5115 9.49147C14.8249 9.17806 15.0735 8.80601 15.243 8.39654C15.4127 7.98706 15.5 7.5482 15.5 7.10498C15.5 6.66176 15.4127 6.2229 15.243 5.81342C15.0735 5.40395 14.8249 5.0319 14.5115 4.7185C14.198 4.40509 13.826 4.1565 13.4166 3.98689C13.0071 3.81728 12.5682 3.72998 12.125 3.72998C11.2299 3.72998 10.3715 4.08556 9.73852 4.7185C9.10558 5.35143 8.75 6.20987 8.75 7.10498C8.75 8.00009 9.10558 8.85853 9.73852 9.49147C10.3715 10.1244 11.2299 10.48 12.125 10.48ZM22.25 22.855C22.25 23.1533 22.1314 23.4395 21.9205 23.6505C21.7095 23.8614 21.4233 23.98 21.125 23.98C20.8267 23.98 20.5405 23.8614 20.3295 23.6505C20.1186 23.4395 20 23.1533 20 22.855V20.605C20 19.7099 19.6444 18.8514 19.0115 18.2185C18.3785 17.5856 17.5201 17.23 16.625 17.23H7.625C6.72989 17.23 5.87145 17.5856 5.23851 18.2185C4.60558 18.8514 4.25 19.7099 4.25 20.605V22.855C4.25 23.1533 4.13147 23.4395 3.9205 23.6505C3.70952 23.8614 3.42337 23.98 3.125 23.98C2.82663 23.98 2.54048 23.8614 2.3295 23.6505C2.11853 23.4395 2 23.1533 2 22.855V20.605C2 19.1131 2.59263 17.6823 3.64753 16.6275C4.70242 15.5726 6.13316 14.98 7.625 14.98H16.625C18.1169 14.98 19.5476 15.5726 20.6024 16.6275C21.6573 17.6823 22.25 19.1131 22.25 20.605V22.855Z" fill="white"/>
</svg>
