<svg width="25" height="24" viewBox="0 0 25 24" fill="none" xmlns="http://www.w3.org/2000/svg">
<g id="material-symbols:search">
<path id="Vector" d="M20.1313 21L13.8313 14.7C13.3313 15.1 12.7563 15.4167 12.1063 15.65C11.4563 15.8833 10.7646 16 10.0313 16C8.21458 16 6.67725 15.3707 5.41925 14.112C4.16125 12.8533 3.53192 11.316 3.53125 9.5C3.53058 7.684 4.15992 6.14667 5.41925 4.888C6.67858 3.62933 8.21592 3 10.0313 3C11.8466 3 13.3843 3.62933 14.6443 4.888C15.9043 6.14667 16.5333 7.684 16.5313 9.5C16.5313 10.2333 16.4146 10.925 16.1813 11.575C15.9479 12.225 15.6313 12.8 15.2313 13.3L21.5312 19.6L20.1313 21ZM10.0313 14C11.2813 14 12.3439 13.5627 13.2193 12.688C14.0946 11.8133 14.5319 10.7507 14.5313 9.5C14.5306 8.24933 14.0933 7.187 13.2193 6.313C12.3453 5.439 11.2826 5.00133 10.0313 5C8.77992 4.99867 7.71758 5.43633 6.84425 6.313C5.97092 7.18967 5.53325 8.252 5.53125 9.5C5.52925 10.748 5.96692 11.8107 6.84425 12.688C7.72158 13.5653 8.78392 14.0027 10.0313 14Z" fill="#A1ACBD"/>
</g>
</svg>
