<svg width="154" height="154" viewBox="0 0 154 154" fill="none" xmlns="http://www.w3.org/2000/svg">
<path d="M54.596 106.152L30.3208 81.877C29.1137 80.7112 27.4971 80.0661 25.819 80.0807C24.1409 80.0953 22.5357 80.7684 21.3491 81.955C20.1625 83.1416 19.4894 84.7468 19.4749 86.4249C19.4603 88.1029 20.1054 89.7196 21.2712 90.9266L50.0712 119.727C51.2713 120.926 52.8989 121.6 54.596 121.6C56.293 121.6 57.9206 120.926 59.1208 119.727L129.521 49.3266C130.687 48.1196 131.332 46.5029 131.317 44.8249C131.302 43.1468 130.629 41.5416 129.443 40.355C128.256 39.1684 126.651 38.4953 124.973 38.4807C123.295 38.4661 121.678 39.1112 120.471 40.277L54.596 106.152Z" fill="#469B68"/>
</svg>
