<svg width="14" height="14" viewBox="0 0 14 14" fill="none" xmlns="http://www.w3.org/2000/svg">
<g id="ep:arrow-up">
<path id="Vector" d="M6.68115 4.70798L2.0349 9.58435C1.95733 9.66572 1.91406 9.77382 1.91406 9.88623C1.91406 9.99864 1.95733 10.1067 2.0349 10.1881L2.04015 10.1934C2.07775 10.2329 2.12301 10.2645 2.17317 10.286C2.22334 10.3075 2.27736 10.3186 2.33196 10.3186C2.38655 10.3186 2.44058 10.3075 2.49074 10.286C2.54091 10.2645 2.58617 10.2329 2.62377 10.1934L6.99877 5.60135L11.372 10.1934C11.4096 10.2329 11.4549 10.2645 11.505 10.286C11.5552 10.3075 11.6092 10.3186 11.6638 10.3186C11.7184 10.3186 11.7725 10.3075 11.8226 10.286C11.8728 10.2645 11.918 10.2329 11.9556 10.1934L11.9609 10.1881C12.0385 10.1067 12.0817 9.99864 12.0817 9.88623C12.0817 9.77382 12.0385 9.66572 11.9609 9.58435L7.31465 4.70798C7.27379 4.66509 7.22464 4.63095 7.1702 4.60762C7.11575 4.58429 7.05713 4.57227 6.9979 4.57227C6.93866 4.57227 6.88004 4.58429 6.8256 4.60762C6.77115 4.63095 6.72201 4.66509 6.68115 4.70798Z" fill="white" stroke="white"/>
</g>
</svg>
